<svg xmlns="http://www.w3.org/2000/svg" width="449" height="260.91" viewBox="0 0 449 260.91"><path fill="#fff" fill-opacity=".9" d="M248.59 37.06a11.78 11.78 0 0 1 7.75 2.85 18.35 18.35 0 0 1 16.2-9.44 18.84 18.84 0 0 1 10.35 3.1 29.65 29.65 0 0 1 48.32-2.62 17.91 17.91 0 0 1 4.3-.55 18.2 18.2 0 0 1 18.39 18H237a11.51 11.51 0 0 1 11.59-11.34z"/><path fill="#fff" fill-opacity=".85" d="M354.26 50.08a6.51 6.51 0 0 0-4.26 1.58 9.94 9.94 0 0 0-8.73-5.1 9.66 9.66 0 0 0-5.57 1.72 16 16 0 0 0-26.03-1.37 8.94 8.94 0 0 0-2.32-.28 9.81 9.81 0 0 0-9.93 9.71h63.12a6.16 6.16 0 0 0-6.28-6.26z"/><path fill="#fff" d="M226.83 24.59a11.78 11.78 0 0 0-7.75 2.89 18.34 18.34 0 0 0-16.2-9.44 18.84 18.84 0 0 0-10.36 3.1 29.65 29.65 0 0 0-48.32-2.62 17.91 17.91 0 0 0-4.3-.55 18.2 18.2 0 0 0-18.39 18h116.94a11.42 11.42 0 0 0-11.62-11.38z"/><path fill="#fff" fill-opacity=".7" d="M145.18 35.75a6.19 6.19 0 0 0-4.18 1.59 9.94 9.94 0 0 0-8.74-5.1 9.66 9.66 0 0 0-5.57 1.72 16 16 0 0 0-26.06-1.38 8.94 8.94 0 0 0-2.33-.28 9.81 9.81 0 0 0-9.93 9.71h63.12a6.26 6.26 0 0 0-6.31-6.26z"/><path fill="#fff" fill-opacity=".8" d="M179.14 49.46a11.78 11.78 0 0 1 7.75 2.89 18.35 18.35 0 0 1 16.2-9.44 18.84 18.84 0 0 1 10.35 3.1 29.65 29.65 0 0 1 48.32-2.62 17.9 17.9 0 0 1 4.3-.55 18.2 18.2 0 0 1 18.39 18H167.51a11.42 11.42 0 0 1 11.63-11.38z"/><path fill="#fcd07a" d="M430.4 139.5h-47.54v78.67h47.54z"/><path fill="#69e2de" d="M421.46 90.52h-29.73v40.92h29.73z"/><path fill="#69e2de" d="M408.85 74.53h-4.44v40.92h4.44z"/><path fill="#69e2de" d="M411 123.17v-7.72h19.4v-7.3h-47.54v7.3h19.44v7.72h-19.44v10.19h19.44v7.72h-19.44v10.19h19.44v7.71h-19.44v10.13h19.44v7.72h-19.44v10.2h19.44v7.71h-19.44v10.17h19.44v7.65h-19.44v5.51h47.54v-5.51H411v-7.65h19.4v-10.17H411v-7.71h19.4v-10.2H411v-7.72h19.4v-10.12H411v-7.71h19.4v-10.2H411v-7.72h19.4v-10.19z"/><path fill="#00bec5" d="M402.3 115.45h-19.44v7.72h19.44zM430.4 115.45H411v7.72h19.4zM402.3 133.36h-19.44v7.72h19.44zM430.4 133.36H411v7.72h19.4z"/><path fill="#fcd07a" d="M402.3 151.27h-19.44v7.72h19.44z"/><path fill="#00bec5" d="M430.4 151.27H411v7.72h19.4z"/><path fill="#fcd07a" d="M402.3 169.12h-19.44v7.71h19.44z"/><path fill="#00bec5" d="M430.4 169.12H411v7.71h19.4z"/><path fill="#fcd07a" d="M402.3 187.03h-19.44v7.72h19.44z"/><path fill="#00bec5" d="M430.4 187.03H411v7.72h19.4z"/><path fill="#fcd07a" d="M403.42 203.97h-20.56v10.06h20.57z"/><path fill="#00bec5" d="M430.4 202.8H409v12.26h21.4z"/><path fill="#dcdcdc" d="M370 41.06h-49.42v180.76H370z"/><path fill="#fff" d="M362.42 58.91h-35.5v5.72h35.5z"/><path fill="#dcdcdc" d="M362.42 78.25h-35.5v5.72h35.5zM362.42 97.68h-35.5v5.72h35.5zM362.42 117.04h-35.5v5.72h35.5z"/><path fill="#fff" d="M362.42 136.39h-35.5v5.72h35.5zM362.42 155.82h-35.5v5.72h35.5zM362.42 175.18h-35.5v5.73h35.5zM362.42 194.54h-35.5v5.72h35.5z"/><path fill="#56ccf2" d="M370 41.06h-49.42v180.76H370z"/><path fill="#fff" d="M362.42 58.91h-35.5v5.72h35.5zM362.42 78.25h-35.5v5.72h35.5zM362.42 97.68h-35.5v5.72h35.5zM362.42 117.04h-35.5v5.72h35.5zM362.42 136.39h-35.5v5.72h35.5zM362.42 155.82h-35.5v5.72h35.5zM362.42 175.18h-35.5v5.73h35.5z"/><path fill="#dcdcdc" d="M362.43 194.54h-35.5v5.72h35.5z"/><path fill="#fcd07a" d="M323.68 73.78l-36.35 29.83v117.93h36.35z"/><path fill="#ffa033" d="M323.68 73.78l-36.35 29.83v117.93h36.35z"/><path fill="#fcd07a" d="M297.34 122.91a5.86 5.86 0 1 0-6-5.86 5.92 5.92 0 0 0 6 5.86zM313.68 122.91a5.86 5.86 0 1 0-6-5.86 5.92 5.92 0 0 0 6 5.86zM297.34 139.22a5.86 5.86 0 1 0-6-5.86 5.92 5.92 0 0 0 6 5.86zM313.68 139.22a5.86 5.86 0 1 0-6-5.86 5.92 5.92 0 0 0 6 5.86zM297.34 155.55a5.86 5.86 0 1 0-6-5.86 5.92 5.92 0 0 0 6 5.86zM313.68 155.55a5.86 5.86 0 1 0-6-5.86 5.92 5.92 0 0 0 6 5.86zM297.34 171.91a5.86 5.86 0 1 0-6-5.86 5.92 5.92 0 0 0 6 5.86zM313.68 171.91a5.86 5.86 0 1 0-6-5.86 5.92 5.92 0 0 0 6 5.86zM297.34 188.2a5.86 5.86 0 1 0-6-5.85 5.92 5.92 0 0 0 6 5.85zM313.68 188.2a5.86 5.86 0 1 0-6-5.85 5.92 5.92 0 0 0 6 5.85zM297.34 204.53a5.86 5.86 0 1 0-6-5.85 5.92 5.92 0 0 0 6 5.85zM313.68 204.53a5.86 5.86 0 1 0-6-5.85 5.92 5.92 0 0 0 6 5.85z"/><path fill="#004860" d="M251.06 73.78l-36.28 29.83v117.93h36.28z"/><path fill="#002738" d="M224.71 121.1a5.86 5.86 0 1 0-6-5.86 5.92 5.92 0 0 0 6 5.86zM241.12 121.1a5.86 5.86 0 1 0-6-5.86 5.92 5.92 0 0 0 6 5.86zM224.71 137.43a5.86 5.86 0 1 0-6-5.85 5.92 5.92 0 0 0 6 5.85zM241.12 137.43a5.86 5.86 0 1 0-6-5.85 5.92 5.92 0 0 0 6 5.85zM224.71 153.76a5.86 5.86 0 1 0-6-5.86 5.92 5.92 0 0 0 6 5.86z"/><path fill="#dcdcdc" d="M241.12 153.76a5.86 5.86 0 1 0-6-5.86 5.92 5.92 0 0 0 6 5.86zM224.71 170.08a5.86 5.86 0 1 0-6-5.86 5.92 5.92 0 0 0 6 5.86zM241.12 170.08a5.86 5.86 0 1 0-6-5.86 5.92 5.92 0 0 0 6 5.86zM224.71 186.41a5.86 5.86 0 1 0-6-5.85 5.92 5.92 0 0 0 6 5.85zM241.12 186.41a5.86 5.86 0 1 0-6-5.85 5.92 5.92 0 0 0 6 5.85zM224.71 202.74a5.86 5.86 0 1 0-6-5.86 5.92 5.92 0 0 0 6 5.86zM241.12 202.74a5.86 5.86 0 1 0-6-5.86 5.92 5.92 0 0 0 6 5.86z"/><path fill="#69e2de" d="M287.33 73.78l-36.27 29.83v117.93h36.28z"/><path fill="#69e2de" d="M257.54 114.63H253v10.54h4.51z"/><path fill="#00bec5" d="M264.51 114.63H260v10.54h4.51z"/><path fill="#69e2de" d="M271.48 114.63H267v10.54h4.51z"/><path fill="#00bec5" d="M278.46 114.63H274v10.54h4.51z"/><path fill="#69e2de" d="M285.43 114.63h-4.51v10.54h4.51zM257.54 128.13H253v10.54h4.51z"/><path fill="#00bec5" d="M264.51 128.13H260v10.54h4.51z"/><path fill="#69e2de" d="M271.48 128.13H267v10.54h4.51z"/><path fill="#00bec5" d="M278.46 128.13H274v10.54h4.51z"/><path fill="#69e2de" d="M285.43 128.13h-4.51v10.54h4.51z"/><path fill="#fcd07a" d="M257.54 141.56H253v10.54h4.51z"/><path fill="#00bec5" d="M264.51 141.56H260v10.54h4.51z"/><path fill="#69e2de" d="M271.48 141.56H267v10.54h4.51z"/><path fill="#fcd07a" d="M278.46 141.56H274v10.54h4.51zM285.43 141.56h-4.51v10.54h4.51zM257.54 154.99H253v10.54h4.51zM264.51 154.99H260v10.54h4.51zM271.48 154.99H267v10.54h4.51zM278.46 154.99H274v10.54h4.51zM285.43 154.99h-4.51v10.54h4.51zM257.54 168.5H253v10.54h4.51zM264.51 168.5H260v10.54h4.51zM271.48 168.5H267v10.54h4.51zM278.46 168.5H274v10.54h4.51zM285.43 168.5h-4.51v10.54h4.51zM257.54 181.91H253v10.54h4.51zM264.51 181.91H260v10.54h4.51zM271.48 181.91H267v10.54h4.51zM278.46 181.91H274v10.54h4.51zM285.43 181.91h-4.51v10.54h4.51zM257.54 195.36H253v10.55h4.51zM264.51 195.36H260v10.55h4.51zM271.48 195.36H267v10.55h4.51zM278.46 195.36H274v10.55h4.51zM285.43 195.36h-4.51v10.55h4.51z"/><path fill="#69e2de" d="M157.16 0h-49.38v221.82h49.38z"/><path fill="#00bec5" d="M152.23 6.2h-39.45v2.41h39.45zM152.23 14.74h-39.45v2.41h39.45zM152.23 23.21h-39.45v2.41h39.45zM152.23 31.69h-39.45v2.41h39.45zM152.23 40.16h-39.45v2.41h39.45zM152.23 48.63h-39.45v2.41h39.45zM152.23 57.11h-39.45v2.41h39.45zM152.23 65.65h-39.45v2.41h39.45zM152.23 74.12h-39.45v2.41h39.45zM152.23 82.59h-39.45v2.42h39.45zM152.23 91.07h-39.45v2.41h39.45zM152.23 99.54h-39.45v2.37h39.45zM152.23 108.08h-39.45v2.41h39.45zM152.23 116.56h-39.45v2.41h39.45zM152.23 125.03h-39.45v2.41h39.45z"/><path fill="#fcd07a" d="M152.23 133.5h-39.45v2.41h39.45zM152.23 141.98h-39.45v2.41h39.45zM152.23 150.52h-39.45v2.39h39.45zM152.23 158.99h-39.45v2.41h39.45zM152.23 167.47h-39.45v2.44h39.45zM152.23 175.91h-39.45v2.41h39.45zM152.23 184.41h-39.45v2.41h39.45zM152.23 192.91h-39.45v2.41h39.45zM152.23 201.43h-39.45v2.41h39.45z"/><path fill="#fff" d="M200.27 71.16h-49.38v150.66h49.38z"/><path fill="#fff" d="M189.28 92.03h-27.4V62.14l13.74-11.85 13.67 11.85z"/><path fill="#dcdcdc" d="M173.43 62.48h-4.93v11.3h4.93zM182.73 62.48h-4.93v11.3h4.93zM164.2 80.74h-4.93v11.3h4.93zM173.5 80.74h-4.93v11.3h4.93zM182.66 80.74h-4.93v11.3h4.93zM191.89 80.74H187v11.3h4.93zM164.2 96.3h-4.93v11.3h4.93zM173.5 96.3h-4.93v11.3h4.93zM182.66 96.3h-4.93v11.3h4.93zM191.89 96.3H187v11.3h4.93zM164.2 111.91h-4.93v11.3h4.93zM173.5 111.91h-4.93v11.3h4.93zM182.66 111.91h-4.93v11.3h4.93zM191.89 111.91H187v11.3h4.93zM164.2 127.44h-4.93v11.3h4.93zM173.5 127.44h-4.93v11.3h4.93zM182.66 127.44h-4.93v11.3h4.93zM191.89 127.44H187v11.3h4.93zM164.2 143.01h-4.93v11.3h4.93zM173.5 143.01h-4.93v11.3h4.93zM182.66 143.01h-4.93v11.3h4.93zM191.89 143.01H187v11.3h4.93zM164.2 158.65h-4.93v11.26h4.93zM173.5 158.65h-4.93v11.26h4.93zM182.66 158.65h-4.93v11.26h4.93zM191.89 158.65H187v11.26h4.93zM164.2 174.22h-4.93v11.3h4.93zM173.5 174.22h-4.93v11.3h4.93zM182.66 174.22h-4.93v11.3h4.93zM191.89 174.22H187v11.3h4.93zM164.2 189.79h-4.93v11.3h4.93zM173.5 189.79h-4.93v11.3h4.93zM182.66 189.79h-4.93v11.3h4.93zM191.89 189.79H187v11.3h4.93z"/><path fill="#cdde40" d="M78.9 74.12H25.29V227.6H78.9z"/><path fill="#cdde40" d="M72.7 62.48H30.22v17.5H72.7z"/><path fill="#cdde40" d="M67.77 51.32H35.15v13.43h32.62z"/><path fill="#7ea800" d="M39.3 82.59h-6.62v14.32h6.62zM49.66 82.59H43v14.32h6.62zM59.94 82.59h-6.62v14.32h6.62zM70.23 82.59h-6.62v14.32h6.62zM39.3 102.09h-6.62v14.33h6.62zM49.66 102.09H43v14.33h6.62zM59.94 102.09h-6.62v14.33h6.62zM70.23 102.09h-6.62v14.33h6.62zM39.3 121.65h-6.62v14.33h6.62zM49.66 121.65H43v14.33h6.62zM59.94 121.65h-6.62v14.33h6.62zM70.23 121.65h-6.62v14.33h6.62zM39.3 141.15h-6.62v14.33h6.62zM49.66 141.15H43v14.33h6.62zM59.94 141.15h-6.62v14.33h6.62zM70.23 141.15h-6.62v14.33h6.62z"/><path fill="#004860" d="M118.34 225.26H68.75v-96.44l10.14-17.77h28.88l10.57 17.77z"/><path fill="#002738" d="M86.57 129.3H80v14.33h6.62zM96.85 129.3h-6.62v14.33h6.62zM107.14 129.3h-6.62v14.33h6.62zM86.57 147.21H80v14.33h6.62zM96.85 147.21h-6.62v14.33h6.62zM107.14 147.21h-6.62v14.33h6.62zM86.57 165.12H80v14.33h6.62zM96.85 165.12h-6.62v14.33h6.62zM107.14 165.12h-6.62v14.33h6.62z"/><path fill="#ffa033" d="M267 225.26h-49.54V155l24.8-32.72L267 155z"/><path fill="#69e2de" d="M260.28 187.58h-36.06v18.46h36.07z"/><path fill="#fcd07a" d="M264.37 188.54l-2.54-10.47H222.6l-2.54 10.47a1.58 1.58 0 0 0-.14.55 1.69 1.69 0 0 0 3.38 0 1.69 1.69 0 0 0 3.38 0 1.69 1.69 0 0 0 3.38 0 1.69 1.69 0 0 0 3.38 0 1.69 1.69 0 0 0 3.38 0 1.69 1.69 0 0 0 3.38 0 1.69 1.69 0 0 0 3.38 0 1.69 1.69 0 0 0 3.38 0 1.69 1.69 0 0 0 3.38 0 1.69 1.69 0 0 0 3.38 0 1.69 1.69 0 0 0 3.38 0 1.69 1.69 0 0 0 3.38 0 1.69 1.69 0 0 0 3.38 0c.65-.18.58-.34.51-.55zM230.13 157.91h-5.71v12.81h5.71zM239.37 157.91h-5.71v12.81h5.71zM248.59 157.91h-5.71v12.81h5.71zM257.75 157.91H252v12.81h5.71z"/><path fill="#cdde40" d="M217.45 214.65h-49.59v-59.17l24.79-32.79 24.8 32.79z"/><path fill="#7ea800" d="M181.46 163.19v-.07a3.67 3.67 0 0 0-7.33 0v11.37h7.26zM191.32 163.19v-.07a3.67 3.67 0 0 0-7.33 0v11.37h7.25zM201.25 163.19v-.07a3.67 3.67 0 0 0-7.33 0v11.37h7.26zM211.11 163.19v-.07a3.67 3.67 0 0 0-7.33 0v11.37H211zM181.46 181.58v-.07a3.67 3.67 0 0 0-7.33 0v11.4h7.26zM191.32 181.58v-.07a3.67 3.67 0 0 0-7.33 0v11.4h7.25zM201.25 181.58v-.07a3.67 3.67 0 0 0-7.33 0v11.4h7.26zM211.11 181.58v-.07a3.67 3.67 0 0 0-7.33 0v11.4H211z"/><path fill="#69e2de" d="M366.09 228.5h-49.52v-71.09l10.14-13.09h28.88l10.5 13.09z"/><path fill="#00bec5" d="M354.82 161.33h-26.91v12.06h26.91zM354.82 179.66h-26.91v12.05h26.91z"/><path fill="#ea6745" d="M167.94 133.5h-49.59v91.69h49.59z"/><path fill="#f1a187" d="M136.37 144.39h-9.93v4.82h9.93zM148.07 144.39h-9.93v4.82h9.93zM159.76 144.39h-9.93v4.82h9.93zM136.37 153.14h-9.93v4.77h9.93zM148.07 153.14h-9.93v4.77h9.93zM159.76 153.14h-9.93v4.77h9.93zM136.37 161.91h-9.93v4.82h9.93zM148.07 161.91h-9.93v4.82h9.93zM159.76 161.91h-9.93v4.82h9.93zM136.37 170.56h-9.93v4.82h9.93zM148.07 170.56h-9.93v4.82h9.93zM159.76 170.56h-9.93v4.82h9.93zM136.37 179.31h-9.93v4.82h9.93zM148.07 179.31h-9.93v4.82h9.93zM159.76 179.31h-9.93v4.82h9.93zM136.37 188h-9.93v4.82h9.93zM148.07 188h-9.93v4.82h9.93zM159.76 188h-9.93v4.82h9.93z"/><path fill="#fff" d="M68.75 225.26H19.16v-59.17L44 133.3l24.8 32.79z"/><path fill="#dcdcdc" d="M41.14 157.91h-6.62v14.33h6.62zM51.49 157.91h-6.62v14.33h6.62zM41.14 176.97h-6.62v14.33h6.62zM51.49 176.97h-6.62v14.33h6.62z"/><path fill="#e64374" d="M316.57 149.69H267v75.5h49.59z"/><path fill="#e64374" d="M309.39 139.98h-37.9v19.36h37.9z"/><path fill="#e64374" d="M304.95 131.58h-28.88v14.81h28.88z"/><path fill="#fa8cab" d="M280.43 155.27h-4.93v11.3h4.93zM289.66 155.27h-4.93v11.3h4.93zM298.82 155.27h-4.93v11.3h4.93zM308.12 155.27h-4.93v11.3h4.93zM280.43 170.84h-4.93v11.3h4.93zM289.66 170.84h-4.93v11.3h4.93zM298.82 170.84h-4.93v11.3h4.93zM308.12 170.84h-4.93v11.3h4.93zM280.43 186.41h-4.93v11.3h4.93zM289.66 186.41h-4.93v11.3h4.93zM298.82 186.41h-4.93v11.3h4.93zM308.12 186.41h-4.93v11.3h4.93z"/><path fill="#004860" d="M415.68 216.03h-49.59v-59.17l24.8-32.72 24.8 32.72z"/><path fill="#002738" d="M382.15 167.19a5.86 5.86 0 1 0-6-5.85 5.92 5.92 0 0 0 6 5.85zM399.62 167.19a5.86 5.86 0 1 0-6-5.85 5.92 5.92 0 0 0 6 5.85zM382.15 183.79a5.86 5.86 0 1 0-6-5.86 5.92 5.92 0 0 0 6 5.86zM399.62 183.79a5.86 5.86 0 1 0-6-5.86 5.92 5.92 0 0 0 6 5.86zM382.15 200.39a5.86 5.86 0 1 0-6-5.85 5.92 5.92 0 0 0 6 5.85zM399.62 200.39a5.86 5.86 0 1 0-6-5.85 5.92 5.92 0 0 0 6 5.85z"/><path fill="#fff" d="M449 213.91H0v47h449z"/><path fill="#004860" d="M70.3 204.11h-3v17.22h3z"/><path fill="#afc01d" d="M55.58 197.23a13.05 13.05 0 0 0 13.17 12.88v-43.33s-13.17 23.28-13.17 30.45z"/><path fill="#7ea800" d="M81.92 197.23c0-7.1-13.17-30.45-13.17-30.45v43.33a13.05 13.05 0 0 0 13.17-12.88z"/><path fill="#004860" d="M20.71 204.11h-3v17.22h3z"/><path fill="#63ab3c" d="M6.34 197.15a13.05 13.05 0 0 0 13.17 12.88v-43.32S6.34 189.99 6.34 197.15z"/><path fill="#5a9e44" d="M32.19 197.15c0-7.1-13.17-30.45-13.17-30.45v43.33a13.05 13.05 0 0 0 13.17-12.88z"/><path fill="#004860" d="M102.07 204.11H99v17.22h3z"/><path fill="#63ab3c" d="M87.35 197.23a13.05 13.05 0 0 0 13.17 12.88v-43.33s-13.17 23.28-13.17 30.45z"/><path fill="#5a9e44" d="M113.69 197.23c0-7.1-13.17-30.45-13.17-30.45v43.33a13.05 13.05 0 0 0 13.17-12.88z"/><path fill="#004860" d="M268.53 204.11h-3v17.22h3z"/><path fill="#afc01d" d="M253.8 197.23a13.05 13.05 0 0 0 13.2 12.88v-43.33s-13.2 23.28-13.2 30.45z"/><path fill="#7ea800" d="M280.15 197.23c0-7.1-13.17-30.45-13.17-30.45v43.33a13 13 0 0 0 13.17-12.88z"/><path fill="#004860" d="M300.3 204.11h-3v17.22h3z"/><path fill="#63ab3c" d="M285.64 197.23a13.05 13.05 0 0 0 13.17 12.88v-43.33s-13.17 23.28-13.17 30.45z"/><path fill="#5a9e44" d="M312 197.23c0-7.1-13.17-30.45-13.17-30.45v43.33A13.05 13.05 0 0 0 312 197.23z"/><path fill="#004860" d="M416.67 204.11h-3v17.22h3z"/><path fill="#afc01d" d="M401.94 197.23a13.05 13.05 0 0 0 13.17 12.88v-43.33s-13.17 23.28-13.17 30.45z"/><path fill="#7ea800" d="M428.36 197.23c0-7.1-13.17-30.45-13.17-30.45v43.33a13.05 13.05 0 0 0 13.17-12.88z"/></svg>