<svg id="Layer_1" data-name="Layer 1" xmlns="http://www.w3.org/2000/svg" width="31.82" height="31.86" viewBox="0 0 31.82 31.86"><title>phone-icon</title><path d="M31.65,24.56A5.08,5.08,0,0,0,28.24,21l-3.92-1.07a4.14,4.14,0,0,0-1.08-.14A4.72,4.72,0,0,0,20,21l-1,1a14.09,14.09,0,0,1-9.18-9.19l1-1a4.74,4.74,0,0,0,1.13-4.32L10.87,3.59A5.12,5.12,0,0,0,6,0,4.19,4.19,0,0,0,3,1.22L.87,3.35l-.31.4a5.34,5.34,0,0,0-.5,1.38L0,5.61A26.28,26.28,0,0,0,7.62,24.24,25.86,25.86,0,0,0,26,31.86h.64l.5-.14a5.33,5.33,0,0,0,.63-.25,2.74,2.74,0,0,0,.36-.2l.3-.25h0l2.14-2.16A4.53,4.53,0,0,0,31.65,24.56ZM29.2,27.44l-2.12,2.12-.12.06-.38.15-.36.1h-.06A24,24,0,0,1,9,22.86H9A24.13,24.13,0,0,1,2,5.65a3.43,3.43,0,0,1,.33-.87L4.44,2.63c1.43-1.42,4-.27,4.52,1.49L10,8a2.74,2.74,0,0,1-.62,2.39L8,11.86l-.41.41.15.56A16,16,0,0,0,19,24.13l.56.15.41-.41,1.42-1.42a2.71,2.71,0,0,1,2.38-.59l3.92,1h0a3.17,3.17,0,0,1,2,2.23,2.51,2.51,0,0,1-.51,2.34Z" transform="translate(0 0)" style="fill:#fff"/></svg>