<svg xmlns="http://www.w3.org/2000/svg" width="96" height="96" viewBox="0 0 96 96"><defs/><defs><linearGradient id="a" x1="20.6" y1=".53" x2="75.4" y2="95.47" gradientUnits="userSpaceOnUse"><stop offset=".3" stop-color="#3cb7ea"/><stop offset="1" stop-color="#5a56a1"/></linearGradient></defs><rect width="96" height="96" rx="14" ry="14" fill="#fff"/><path d="M90.4 14.1v10.5a2.5 2.5 0 01-5 0V14.1a3.5 3.5 0 00-3.5-3.5H71.4a2.5 2.5 0 010-5h10.5a8.51 8.51 0 018.5 8.5zM24.6 5.6H14.1a8.51 8.51 0 00-8.5 8.5v10.5a2.5 2.5 0 005 0V14.1a3.5 3.5 0 013.5-3.5h10.5a2.5 2.5 0 000-5zm63.3 63.3a2.5 2.5 0 00-2.5 2.5v10.5a3.5 3.5 0 01-3.5 3.5H71.4a2.5 2.5 0 000 5h10.5a8.51 8.51 0 008.5-8.5V71.4a2.5 2.5 0 00-2.5-2.5zM24.6 85.4H14.1a3.5 3.5 0 01-3.5-3.5V71.4a2.5 2.5 0 00-5 0v10.5a8.51 8.51 0 008.5 8.5h10.5a2.5 2.5 0 000-5z" fill="url(#a)"/><path d="M30.55 86.6h1.69v.57h-.56v2.49h-.59v-2.49h-.54zM33.57 86.6h.59l1.18 3.06h-.61l-.24-.66h-1.24l-.25.63h-.61zm.3.81l-.41 1h.82zM38.6 87.14l-.41.39a1.23 1.23 0 00-.93-.44 1 1 0 00-1 1 1.08 1.08 0 00.13.54.9.9 0 00.38.37 1.09 1.09 0 00.54.14 1.15 1.15 0 00.46-.1 1.73 1.73 0 00.46-.34l.4.41a2.35 2.35 0 01-.64.46 1.84 1.84 0 01-.69.13 1.56 1.56 0 01-1.62-1.62 1.68 1.68 0 01.2-.81 1.5 1.5 0 01.6-.57 1.59 1.59 0 01.83-.22 1.88 1.88 0 01.73.16 1.79 1.79 0 01.56.5zM39.11 86.6h.59v1.15h1V86.6h.59v3.06h-.59v-1.34h-1v1.34h-.59zM44.82 87.14l-.41.39a1.25 1.25 0 00-.94-.44 1 1 0 00-1 1 1.08 1.08 0 00.13.54.94.94 0 00.37.37 1.14 1.14 0 00.54.14 1.2 1.2 0 00.47-.1 1.73 1.73 0 00.46-.34l.39.41a2.21 2.21 0 01-.64.46 1.83 1.83 0 01-.68.13 1.59 1.59 0 01-1.17-.46 1.54 1.54 0 01-.46-1.16 1.58 1.58 0 01.21-.81 1.54 1.54 0 01.59-.57 1.64 1.64 0 01.83-.22 1.81 1.81 0 01.73.16 1.73 1.73 0 01.58.5zM46.26 86.6h.59L48 89.66h-.61l-.21-.66h-1.25l-.25.63h-.6zm.3.81l-.41 1H47zM48.52 86.6h.61a2 2 0 01.72.09.73.73 0 01.35.3.91.91 0 01.13.5.87.87 0 01-.14.5.9.9 0 01-.44.31l.73 1.36h-.64l-.69-1.3v1.3h-.58zm.58 1.19h.18a.68.68 0 00.38-.07.28.28 0 00.11-.24.31.31 0 00-.05-.17.36.36 0 00-.14-.11 1.17 1.17 0 00-.32 0h-.16zM51 86.6h.69a2.31 2.31 0 011 .16 1.31 1.31 0 01.53.54 1.75 1.75 0 01.21.87 1.93 1.93 0 01-.11.65 1.32 1.32 0 01-.33.49 1.11 1.11 0 01-.45.27 3.11 3.11 0 01-.83.08H51zm.58.56v1.93h.27a1.4 1.4 0 00.58-.09.73.73 0 00.29-.31 1.07 1.07 0 00.12-.53 1 1 0 00-.28-.76 1.08 1.08 0 00-.79-.24zM54.18 89.07a.33.33 0 01.23.09.34.34 0 010 .46.34.34 0 01-.23.1.33.33 0 01-.23-.1.31.31 0 010-.46.32.32 0 01.23-.09zM57.93 87.14l-.41.39a1.21 1.21 0 00-.93-.44 1 1 0 00-.74.3 1 1 0 00-.3.74 1.08 1.08 0 00.13.54 1 1 0 00.38.37 1.09 1.09 0 00.54.14 1.15 1.15 0 00.46-.1 1.59 1.59 0 00.46-.34l.4.41a2.35 2.35 0 01-.64.46 1.84 1.84 0 01-.69.13 1.61 1.61 0 01-1.17-.46 1.58 1.58 0 01-.42-1.16 1.68 1.68 0 01.2-.81 1.5 1.5 0 01.6-.57 1.59 1.59 0 01.83-.22 1.88 1.88 0 01.73.16 1.79 1.79 0 01.57.46zM59.88 86.52A1.53 1.53 0 0161 87a1.63 1.63 0 010 2.28 1.59 1.59 0 01-2.27 0 1.61 1.61 0 01.34-2.52 1.53 1.53 0 01.81-.24zm0 .57a1 1 0 00-.72.3 1 1 0 00-.28.75 1 1 0 00.36.8 1 1 0 00.65.23.92.92 0 00.7-.3 1 1 0 00.3-.74 1 1 0 00-.3-.74.94.94 0 00-.71-.3zM62.31 86.6h.57l.71 2.13.72-2.13h.56l.52 3.06h-.57l-.32-1.93-.66 1.93h-.51l-.64-1.93-.34 1.93h-.57zM34.2 7.52v3.1h-.86V10a1.2 1.2 0 01-1.23.78c-.88 0-1.64-.62-1.64-2.08V6.79c0-1.35.65-2 1.9-2a1.66 1.66 0 011.83 1.76v.16h-1.1c0-.78-.23-1.09-.73-1.09s-.78.33-.78 1.09v1.84c0 .9.2 1.32.78 1.32s.73-.33.73-1.11v-.38h-.73v-.86zM38 7.56v1.76a1.35 1.35 0 01-1.55 1.43 1.34 1.34 0 01-1.55-1.43V7.56c0-.76.39-1.42 1.55-1.42S38 6.8 38 7.56zm-2.1-.13v2a.47.47 0 00.53.52c.32 0 .51-.11.51-.52v-2c0-.4-.2-.51-.52-.51a.45.45 0 00-.52.51zM41.72 7.56v1.76a1.35 1.35 0 01-1.54 1.43c-1.17 0-1.55-.67-1.55-1.43V7.56c0-.76.38-1.42 1.55-1.42a1.34 1.34 0 011.54 1.42zm-2.07-.13v2c0 .39.23.52.54.52s.51-.11.51-.52v-2c0-.4-.2-.51-.52-.51s-.53.08-.53.51zM44.34 6.25h1v4.5c0 .92-.39 1.38-1.41 1.38s-1.39-.33-1.49-1h1c0 .16.2.25.47.25s.48-.15.48-.43v-.75a1 1 0 01-.83.58 1.13 1.13 0 01-1.15-1.24V7.36a1.09 1.09 0 011.15-1.22 1 1 0 01.83.43zm-1 1.22v2a.48.48 0 00.48.53.46.46 0 00.47-.51v-2a.46.46 0 00-.42-.49.48.48 0 00-.48.47zM47.06 10.62h-1V4.84h1zM48.75 8.54v1c0 .32.2.48.52.48a.47.47 0 00.52-.48v-.3h1v.12c0 1-.63 1.39-1.5 1.39s-1.51-.4-1.51-1.39V7.52c0-1 .63-1.38 1.51-1.38s1.5.4 1.5 1.38v1zm1-.72v-.43a.46.46 0 00-.52-.47c-.32 0-.52.16-.52.47v.43zM54.14 10.62h-1.09V4.84h2.07a1.55 1.55 0 011.52 1.69 1.6 1.6 0 01-1.54 1.74h-1zm0-3.21h.56a.75.75 0 00.82-.86.74.74 0 00-.82-.85h-.56zM58.31 10.62h-1V4.84h1zM59.06 7.59v-.21a1.33 1.33 0 011.47-1.24c.84 0 1.51.33 1.51 1.12V10a1.08 1.08 0 00.12.64h-1a1 1 0 01-.08-.42 1 1 0 01-.95.55A1.07 1.07 0 0159 9.54c0-.76.35-1.13 1.11-1.45.48-.2.91-.39.91-.76S60.84 7 60.53 7a.49.49 0 00-.51.56v.08zm1.3 1.19a.74.74 0 00-.36.62c0 .33.12.6.43.6a.52.52 0 00.57-.57V8.36zM63.58 6.25l.58 3.35.56-3.35h1l-1.16 4.92c-.17.73-.45.9-1 .9a4.41 4.41 0 01-.52 0v-.77h.36c.14 0 .21-.13.21-.29s-.23-1-1.14-4.76z" fill="#181716"/><path fill="none" d="M53.86 53.86h1.68v1.68h-1.68zM53.87 50.51h1.67V47.16H52.19v1.68h1.68v1.67zM35.43 48.84h1.68v1.68h-1.68zM55.54 55.54h1.68v1.68h-1.68zM47.16 45.49v-1.68h-1.67v-1.68h-1.68v3.36h1.68v1.67H48.84v-1.67h-1.68zM55.54 50.51h1.68v1.68h-1.68zM38.78 55.54h1.68v1.68h-1.68zM45.49 38.78h1.68v1.68h-1.68zM43.81 65.59h1.68v-1.67h-3.36v1.67h1.68zM28.73 63.92v-1.68H25.38v1.68H28.73zM67.27 57.22v-1.68H62.24v1.68h1.68v1.67h1.67v-1.67h1.68zM33.76 18.68h1.68v1.68h-1.68zM72.3 55.54h1.68v1.68H72.3zM70.62 57.22h1.68v1.68h-1.68zM62.24 70.62v-1.67h1.68V62.24h-1.68V67.27h-1.67v1.68H55.54V72.3h1.68v1.67h5.02V72.3h1.68v-1.68h-1.68zM40.46 68.95h1.68v1.68h-1.68zM35.43 68.95v-1.68h1.68v1.68H40.46V63.92h-1.68v-1.68h-1.67v1.68h-1.68v1.67h-1.67v-1.67h-1.68v-1.68h-1.67V65.59h1.67v3.36H35.43zM67.27 53.87v1.67h1.68V52.19h-3.36v1.68h1.68zM70.62 67.27v-1.68h-5v5h5v-3.32zM69 69h-1.73v-1.73H69zM25.38 57.22h1.68v1.68h-1.68zM43.81 67.27h1.68v1.68h-1.68z"/><path fill="none" d="M50.51 65.59v-1.67H47.16v1.67h-1.67v1.68h1.67v1.68H50.51v-1.68h1.68v-1.68h-1.68zM72.3 42.14h1.68v1.68H72.3zM67.27 48.84h1.68v1.68h-1.68zM57.22 65.59h1.68v1.68h-1.68z"/><path fill="none" d="M67.27 45.49h-1.68v1.67h-1.67v1.68H67.27v-1.68h1.68v1.68h1.67V45.49h1.68v-1.68H68.95v1.68h-1.68zM30.41 40.46v-1.68h-3.36v1.68h1.68v1.67h1.68v-1.67zM27.05 50.51h1.68v-1.67H25.38v1.67h1.67zM18.76 77.24H27V69h-8.24zm1.59-6.62h5v5h-5zM37.11 33.76h1.68v1.68h-1.68zM18.76 27H27v-8.24h-8.24zm1.59-6.62h5v5h-5zM55.54 32.08H50.51V35.43h1.68v-1.67h1.68v1.67h1.67V32.08zM69 27h8.21v-8.24H69zm1.59-6.62h5v5h-5zM35.43 73.97v1.68h1.68V72.3h-1.68v1.67zM47.16 28.73v-1.68h-1.67v1.68h-1.68v1.68h1.68v1.67H48.84v-1.67H52.19v-1.68h-1.68v-1.68h-1.67v1.68h-1.68zM57.22 32.08h1.68v1.68h-1.68zM52.19 27.05h1.68v1.68h-1.68zM22.03 33.76h1.68v1.68h-1.68zM42.14 18.68h1.68v1.68h-1.68z"/><path fill="none" d="M47.16 25.38h1.68v1.68h-1.68zM35.43 32.08v-1.67H38.78V33.76h1.68v1.67h1.67v-1.67h1.68v1.67H47.16v-1.67h-1.67v-1.68h-3.36v-1.67h-1.67v-3.36h1.67v1.68h1.68V25.38H37.11v1.67h1.67v1.68h-1.67v-1.68h-1.68v1.68h-1.67v-1.68h-1.68v3.36h1.68V33.76h1.67v-1.68z"/><path d="M30.41 17h1.68v1.68h-1.68zM33.76 17h1.68v1.68h-1.68zM38.78 17h1.68v1.68h-1.68zM42.14 17h1.68v1.68h-1.68z"/><path d="M50.51 17h-1.67v1.68H43.81v1.67h1.68v1.68H48.84v-1.68h1.67v-1.67h1.68V17h-1.68zM55.54 17h1.68v1.68h-1.68zM63.92 18.68V17H60.57v1.68H63.92zM32.08 18.68h1.68v1.68h-1.68zM35.43 18.68h1.68v1.68h-1.68zM42.13 18.68h-1.67V22.03H43.81v-1.68h-1.68v-1.67z"/><path d="M53.87 20.35v-1.67h-1.68V22.03h1.68v-1.68zM50.51 22.03h1.68v1.68h-1.68zM60.57 23.7v1.68H63.92V28.73h1.67V22.03h-1.67v-1.68H60.57v1.68h-1.68V18.68h-1.67v1.67h-1.68v1.68h1.68v1.67H60.57zM40.46 25.38H43.81V23.7H37.11v1.68H40.46zM35.43 25.38h1.68v1.68h-1.68z"/><path d="M33.76 27.05h1.68v1.68h-1.68zM37.11 27.05h1.68v1.68h-1.68zM43.81 28.73h1.68v-1.68h1.67v-1.67h1.68V23.7H45.49v1.68h-1.68V28.73z"/><path d="M47.16 27.05h1.68v1.68h-1.68zM60.57 27.05h1.68v1.68h-1.68zM77.32 32.08h-1.67v1.68h1.67v-1.68H79v-1.67h-1.68v1.67zM33.76 32.08v-1.67h-1.68v-3.36h1.68v-1.67h-1.68V23.7H35.43V20.35h-1.67v1.68H30.41V30.41h-3.36v1.67h1.68v1.68h-1.68v1.67h1.68v1.68h1.68V33.76H33.76v-1.68zM38.78 33.76V30.41H35.43V33.76h-1.67v1.67H37.11v-1.67h1.67z"/><path d="M74 32.08v-1.67h-8.41v1.67h-1.67v-1.67h-1.68v1.67h-3.35v-5h-1.67v3.36h-1.68v-5h1.68V23.7h-5v1.68h-3.38v1.67h1.67v1.68h1.68v-1.68h1.67v1.68h-1.67v1.68h-3.35v1.67h-3.35v-1.67h-1.68v-1.68h-1.67v-1.68h-1.68v3.36h1.68v1.67h3.35v1.68h1.67v1.67h-3.35v-1.67h-1.67v1.67h-1.68v-1.67h-1.68v1.67h-1.67v1.68h20.11v-1.68h3.35v1.68h1.67v-1.68h1.68v1.68h3.35v-3.35h-1.68v-1.68h5v1.68h1.71v3.35h5v-1.68h-1.65v-1.67H74zm-20.14 3.35v-1.67h-1.67v1.67h-1.68v-3.35h5v3.35zm3.36-1.67v-1.68h1.67v1.68zM23.7 35.43h1.68v-5.02H23.7v1.67h-1.67v1.68h1.67v1.67zM20.35 37.11v-1.68h1.68v-1.67h-1.68v-1.68h-1.67v-1.67H17v1.67h1.68v1.68H17V37.11H20.35zM22.03 35.43h1.68v1.68h-1.68zM32.08 35.43h1.68v1.68h-1.68z"/><path d="M68.95 35.43h1.68v1.68h-1.68zM28.73 38.78h1.68V42.13H33.76v-1.67H37.11v-1.68h-1.68v-1.67h-1.67v1.67h-1.68v-1.67H25.38v1.67H22.03v-1.67h-1.68v1.67h-1.67v1.68H17V45.49h1.68v-3.36h1.67v-1.67h1.68V43.81h1.67v-1.68h1.68v-1.67h1.67v-1.68h1.68zM68.95 38.78v-1.67h-3.36v1.67h3.36zM75.65 37.11H72.3v1.67h-1.68v1.68h-1.67V43.81H72.3v-1.68h1.67v1.68H72.3v1.68h-1.68V48.84h-1.67v1.67h-1.68v-1.67H63.92v-1.68h1.67v-1.67h3.36v-1.68H63.92v1.68H60.57V48.84h1.67v1.67H65.59v1.68h3.36V55.54h-1.68v1.68h-1.68v1.67h3.36v1.68H72.3v-1.68h-1.68v-1.67h1.68v-1.68h1.67v1.68H72.3v1.67h5.02v-1.67h-1.67V53.87H72.3v-1.68h-1.68v-1.68h1.68V47.16h1.67V52.19h1.68v-1.68h1.67v-1.67h-1.67v-1.68h1.67v-1.67h-1.67V40.46h-1.68v-1.68H79v-1.67H75.65zM38.78 40.46h1.68V37.11H37.11v1.67h1.67v1.68zM47.16 38.78h1.68v1.68h-1.68z"/><path d="M27.05 40.46h1.68v1.68h-1.68zM65.59 40.46h1.68v1.68h-1.68zM28.73 42.14h1.68v1.68h-1.68zM32.08 45.49h1.68v-1.68H30.41v1.68h1.67zM28.73 48.84v-1.68h-1.68v-1.67h1.68v-1.68H25.38V48.84H28.73zM45.49 47.16v-1.67h-1.68V48.84h1.68V52.19h-1.68v-1.68h-1.68V55.54h-1.67v1.68h-1.68v-1.68h-1.67v-1.67h-1.68V57.22h1.68v1.67h1.67v1.68H42.13v-1.68h3.36V55.54h-1.68v-1.67H47.16v1.67h1.68V52.19h-1.68V48.84h1.68v-1.68H45.49zM67.27 47.16h1.68v1.68h-1.68z"/><path d="M28.73 50.51H25.38v-1.67H23.7v-1.68H17V50.51H20.35v-1.67h1.68v1.67H25.38v1.68H28.73v-1.68h1.68v-1.67h-1.68v1.67zM48.84 50.51h1.68v1.68h-1.68zM27.05 53.87v1.67H33.76v-1.67H30.41v-1.68h-1.68v1.68h-1.68zM38.78 53.86h1.68v1.68h-1.68z"/><path d="M63.92 55.54h3.35v-1.68h-1.68v-1.67h-5v1.67h-3.37v-1.67h-1.68v-1.68h1.68v1.68h1.67v-1.68h-1.67v-5h1.67v-3.37h1.68v-1.68h1.67v1.68h1.68v-1.68h1.67v-1.68h-6.7v-1.67h-6.7v1.67h3.35v5h-1.68v-3.32h-1.67v5h-1.68v-1.65h-1.67v-1.67h-1.68v-1.68h-1.67v-1.68h1.67v-1.67h-3.35v1.67h-1.67v3.36h-3.36v1.67h-1.67v-1.67h-1.68v3.35h1.68v1.67h-6.7v1.68h1.67V52.19h8.38v-1.68h-1.68v-1.67h1.68v-3.35h3.35v-3.35h1.68v1.67h1.67v1.68h1.68v1.67h1.67v1.68h1.68v-1.68h3.35v3.35h-1.68v-1.67h-1.67V52.19h1.67v1.67h1.68v1.68h1.68v1.68h1.67v-1.68h1.68v1.68h1.67v-1.68zm-26.81-5h-1.68v-1.7h1.68zM25.38 55.54h1.68v1.68h-1.68z"/><path d="M53.87 55.54v-1.67h-3.36v1.67h1.68v1.68H55.54v-1.68h-1.67zM77.32 55.54H79v1.68h-1.68zM23.7 57.22H20.35v-1.68H23.7V52.19H17v1.68h1.68v1.67H17V60.57h1.68v-1.68H25.38v-1.67H23.7zM27.05 57.22h1.68v1.68h-1.68zM32.08 57.22h1.68v1.68h-1.68zM48.84 57.22v1.67h-1.68v1.68H50.51v-1.68h1.68v-1.67H48.84zM55.54 58.89v1.68h1.68V57.22h-1.68v1.67zM63.92 57.22h-1.68V60.57H65.59v-1.68h-1.67v-1.67z"/><path d="M25.38 58.89h1.68v1.68h-1.68zM30.41 60.57h1.67v-1.68H28.73v1.68h1.68zM33.76 58.89h1.68v1.68h-1.68zM58.89 58.89h1.68v1.68h-1.68zM65.59 60.57h1.68v1.68h-1.68zM22.03 62.24h-1.68v1.68H17v1.67H23.7v-1.67h-1.67v-1.68zM30.41 62.24h1.67v-1.67H23.7V63.92h1.68v-1.68H28.73v1.68H25.38v1.67H30.41V62.24zM33.76 63.92v1.67h1.67v-1.67h1.68v-1.68h1.67v1.68h1.68V60.57H33.76v1.67h-1.68v1.68h1.68zM55.54 62.24H58.89v-1.67h-5.02v1.67h-3.36v-1.67h-5.02v1.67h-1.68v-1.67h-1.68V63.92h3.36v1.67h1.67v-1.67H50.51v1.67h1.68v1.68h1.68v-1.68h1.67V62.24zM75.65 62.24h-1.68V65.59h1.68v3.36h1.67v-3.36H79V62.24H75.65zM57.22 63.92h1.68v1.68h-1.68zM32.08 65.59h-1.67v3.36h1.67v-3.36z"/><path d="M50.51 68.95H47.16v-1.68h-1.67v1.68h-1.68v-1.68h1.68v-1.68h-3.36v-1.67h-1.67V68.95h1.67v1.67H47.16v1.68h1.68v-1.68H52.19V67.27h-1.68v1.68zM58.89 68.95h1.68v-1.68h1.67V62.24h1.68v-1.67H60.57v5.02h-1.68v1.68h-1.67v-1.68h-1.68v3.36H58.89zM67.27 67.27h1.68v1.68h-1.68z"/><path d="M38.78 68.95h-1.67v-1.68h-1.68v1.68H32.08v1.67H35.43v1.68h1.68v-1.68H40.46v-1.67h-1.68zM55.54 68.95h-1.67V72.3h1.67V68.95zM72.3 69v-6.76h-1.68v-1.67H69v3.35h-3.41v-1.68h-1.67V69h-1.68v1.67h1.68v1.63h1.67V74h1.68v1.68h-1.68v1.67h1.68V79h3.35v-1.68H69V74h1.67v-1.7h1.63V74h3.35v-5H72.3zM69 70.62h-3.41v-5h5v5z"/><path d="M30.41 70.62h1.68v1.68h-1.68zM40.46 70.62h1.68v1.68h-1.68zM77.32 72.3v1.67H79v-5.02h-1.68V72.3zM35.43 72.3h-1.67v1.67h-1.68V77.32h1.68v-1.67h1.67V72.3zM50.51 73.97v1.68h1.68v1.67H48.84V79H53.87V73.97h-1.68V72.3H48.84v1.67h1.67zM62.24 73.97h-5.02V72.3h-1.68V79H58.89v-1.68h-1.67v-1.67h5.02V79h1.68V72.3h-1.68v1.67zM37.11 75.65h1.67V72.3h-1.67V75.65zM45.49 73.97V72.3h-1.68V75.65h1.68V79h1.67V75.65h1.68v-1.68H45.49zM35.43 75.65h1.68v1.68h-1.68zM40.46 75.65h1.68v1.68h-1.68zM70.62 75.65h1.68v1.68h-1.68zM77.32 75.65H73.97V79H79v-1.68h-1.68v-1.67zM30.41 77.32h1.68V79h-1.68zM37.11 77.32h1.68V79h-1.68zM42.14 77.32h1.68V79h-1.68zM28.73 17H17v11.73h11.73zM27 27h-8.24v-8.24H27zM77.24 17h-10v11.73H79V17zm0 10H69v-8.24h8.21zM17 67.27V79h11.73V67.27H17zm10 10h-8.24V69H27z"/><path d="M20.35 20.35h5.03v5.03h-5.03zM70.62 20.35h5.03v5.03h-5.03zM20.35 70.62h5.03v5.03h-5.03z"/></svg>