<svg xmlns="http://www.w3.org/2000/svg" width="96" height="96" viewBox="0 0 96 96"><defs/><defs><linearGradient id="a" x1="20.6" y1=".53" x2="75.4" y2="95.47" gradientUnits="userSpaceOnUse"><stop offset=".3" stop-color="#3cb7ea"/><stop offset="1" stop-color="#5a56a1"/></linearGradient></defs><rect width="96" height="96" rx="14" ry="14" fill="#fff"/><path d="M90.4 14.1v10.5a2.5 2.5 0 01-5 0V14.1a3.5 3.5 0 00-3.5-3.5H71.4a2.5 2.5 0 010-5h10.5a8.51 8.51 0 018.5 8.5zM24.6 5.6H14.1a8.51 8.51 0 00-8.5 8.5v10.5a2.5 2.5 0 005 0V14.1a3.5 3.5 0 013.5-3.5h10.5a2.5 2.5 0 000-5zm63.3 63.3a2.5 2.5 0 00-2.5 2.5v10.5a3.5 3.5 0 01-3.5 3.5H71.4a2.5 2.5 0 000 5h10.5a8.51 8.51 0 008.5-8.5V71.4a2.5 2.5 0 00-2.5-2.5zM24.6 85.4H14.1a3.5 3.5 0 01-3.5-3.5V71.4a2.5 2.5 0 00-5 0v10.5a8.51 8.51 0 008.5 8.5h10.5a2.5 2.5 0 000-5z" fill="url(#a)"/><path d="M30.55 86.6h1.69v.57h-.56v2.49h-.59v-2.49h-.54zM33.57 86.6h.59l1.18 3.06h-.61l-.24-.66h-1.24l-.25.63h-.61zm.3.81l-.41 1h.82zM38.6 87.14l-.41.39a1.23 1.23 0 00-.93-.44 1 1 0 00-1 1 1.08 1.08 0 00.13.54.9.9 0 00.38.37 1.09 1.09 0 00.54.14 1.15 1.15 0 00.46-.1 1.73 1.73 0 00.46-.34l.4.41a2.35 2.35 0 01-.64.46 1.84 1.84 0 01-.69.13 1.56 1.56 0 01-1.62-1.62 1.68 1.68 0 01.2-.81 1.5 1.5 0 01.6-.57 1.59 1.59 0 01.83-.22 1.88 1.88 0 01.73.16 1.79 1.79 0 01.56.5zM39.11 86.6h.59v1.15h1V86.6h.59v3.06h-.59v-1.34h-1v1.34h-.59zM44.82 87.14l-.41.39a1.25 1.25 0 00-.94-.44 1 1 0 00-1 1 1.08 1.08 0 00.13.54.94.94 0 00.37.37 1.14 1.14 0 00.54.14 1.2 1.2 0 00.47-.1 1.73 1.73 0 00.46-.34l.39.41a2.21 2.21 0 01-.64.46 1.83 1.83 0 01-.68.13 1.59 1.59 0 01-1.17-.46 1.54 1.54 0 01-.46-1.16 1.58 1.58 0 01.21-.81 1.54 1.54 0 01.59-.57 1.64 1.64 0 01.83-.22 1.81 1.81 0 01.73.16 1.73 1.73 0 01.58.5zM46.26 86.6h.59L48 89.66h-.61l-.21-.66h-1.25l-.25.63h-.6zm.3.81l-.41 1H47zM48.52 86.6h.61a2 2 0 01.72.09.73.73 0 01.35.3.91.91 0 01.13.5.87.87 0 01-.14.5.9.9 0 01-.44.31l.73 1.36h-.64l-.69-1.3v1.3h-.58zm.58 1.19h.18a.68.68 0 00.38-.07.28.28 0 00.11-.24.31.31 0 00-.05-.17.36.36 0 00-.14-.11 1.17 1.17 0 00-.32 0h-.16zM51 86.6h.69a2.31 2.31 0 011 .16 1.31 1.31 0 01.53.54 1.75 1.75 0 01.21.87 1.93 1.93 0 01-.11.65 1.32 1.32 0 01-.33.49 1.11 1.11 0 01-.45.27 3.11 3.11 0 01-.83.08H51zm.58.56v1.93h.27a1.4 1.4 0 00.58-.09.73.73 0 00.29-.31 1.07 1.07 0 00.12-.53 1 1 0 00-.28-.76 1.08 1.08 0 00-.79-.24zM54.18 89.07a.33.33 0 01.23.09.34.34 0 010 .46.34.34 0 01-.23.1.33.33 0 01-.23-.1.31.31 0 010-.46.32.32 0 01.23-.09zM57.93 87.14l-.41.39a1.21 1.21 0 00-.93-.44 1 1 0 00-.74.3 1 1 0 00-.3.74 1.08 1.08 0 00.13.54 1 1 0 00.38.37 1.09 1.09 0 00.54.14 1.15 1.15 0 00.46-.1 1.59 1.59 0 00.46-.34l.4.41a2.35 2.35 0 01-.64.46 1.84 1.84 0 01-.69.13 1.61 1.61 0 01-1.17-.46 1.58 1.58 0 01-.42-1.16 1.68 1.68 0 01.2-.81 1.5 1.5 0 01.6-.57 1.59 1.59 0 01.83-.22 1.88 1.88 0 01.73.16 1.79 1.79 0 01.57.46zM59.88 86.52A1.53 1.53 0 0161 87a1.63 1.63 0 010 2.28 1.59 1.59 0 01-2.27 0 1.61 1.61 0 01.34-2.52 1.53 1.53 0 01.81-.24zm0 .57a1 1 0 00-.72.3 1 1 0 00-.28.75 1 1 0 00.36.8 1 1 0 00.65.23.92.92 0 00.7-.3 1 1 0 00.3-.74 1 1 0 00-.3-.74.94.94 0 00-.71-.3zM62.31 86.6h.57l.71 2.13.72-2.13h.56l.52 3.06h-.57l-.32-1.93-.66 1.93h-.51l-.64-1.93-.34 1.93h-.57zM34.85 4.68h1.47l1.28 5.77h-1.18L36.14 9H34.9l-.34 1.5h-1.18zM36 8.09l-.43-2.69L35 8.09zM39.3 6.08v.49a.9.9 0 01.84-.6 1.1 1.1 0 011.15 1.23v2.15a1.12 1.12 0 01-1.15 1.23.89.89 0 01-.84-.58v1.92h-1V6.08zm0 1.23v2a.48.48 0 00.49.53.46.46 0 00.47-.51v-2a.46.46 0 00-.47-.51.48.48 0 00-.49.49zM43.18 6.08v.49A.89.89 0 0144 6a1.09 1.09 0 011.16 1.2v2.15A1.11 1.11 0 0144 10.58a.88.88 0 01-.84-.59v1.92h-1V6.08zm0 1.23v2a.48.48 0 00.49.53.46.46 0 00.47-.51v-2a.46.46 0 00-.47-.51.48.48 0 00-.49.49zM48.41 6.5v-.06c0-.71-.26-1-.69-1a.52.52 0 00-.58.49.71.71 0 00.36.66l1.12.74a1.73 1.73 0 011 1.62 1.55 1.55 0 01-1.78 1.63A1.7 1.7 0 0146 8.69v-.22h1v.22c0 .81.39 1 .8 1a.61.61 0 00.65-.65c0-.38-.19-.6-.6-.86l-1-.64A1.72 1.72 0 0146 6.07a1.5 1.5 0 011.7-1.5 1.55 1.55 0 011.71 1.75v.18zM51.61 4.91v1.17h.45v.78h-.45V9.3c0 .32.06.43.45.43v.74a2.91 2.91 0 01-.49 0c-.59 0-.94-.25-.94-.84V6.86h-.42v-.78h.42V4.91zM55.88 7.4v1.75a1.35 1.35 0 01-1.54 1.43c-1.17 0-1.55-.67-1.55-1.43V7.4c0-.76.38-1.43 1.55-1.43a1.35 1.35 0 011.54 1.43zm-2.07-.13v2a.47.47 0 00.53.52c.33 0 .52-.11.52-.52v-2c0-.41-.2-.52-.52-.52s-.53.12-.53.52zM57.73 6.08v.84a1 1 0 011-.9v1.09c-.38 0-1 0-1 1v2.39h-1V6.08zM60.44 8.37v1c0 .32.2.48.52.48a.46.46 0 00.52-.48v-.3h1v.12c0 1-.63 1.39-1.5 1.39s-1.51-.39-1.51-1.39V7.36c0-1 .63-1.39 1.51-1.39s1.5.4 1.5 1.39v1zm1-.72v-.42a.46.46 0 00-.44-.48c-.32 0-.52.16-.52.48v.42z" fill="#181716"/><path fill="none" d="M62.09 43.3h1.88v1.88h-1.88zM62.09 47.06v1.88h3.76v-3.76h-1.88v1.88h-1.88zM62.09 52.7v1.88h3.76V52.7h-3.76zM60.21 41.42h-1.88v1.88h3.76v-3.75h-1.88v1.87zM60.21 50.82h-3.76v1.88h5.64v-1.88h-1.88z"/><path fill="none" d="M56.45 43.3h1.88v1.88h-1.88zM54.58 45.18h1.88v1.88h-1.88zM60.21 30.15h-1.88v3.76h1.88v1.88h-5.63v1.88h7.51v1.88h3.76v-1.88h1.88v-1.88h-3.76v-1.88h-1.88v-1.88h-1.88v-1.88zM32.03 60.21h-3.76v1.88h5.64v-1.88h-1.88zM33.91 48.94h1.88v1.88h-1.88zM33.91 52.7h1.88v1.88h-1.88zM60.21 28.27v1.88h1.88v-3.76h-3.76v1.88h1.88zM60.21 47.06h1.88v-1.88h-3.76v1.88h1.88zM28.27 45.18h1.88v1.88h-1.88zM37.67 18.88h1.88v1.88h-1.88zM41.42 28.27v3.76h1.88v-3.76h1.88v-1.88H43.3v-1.87h-3.75v1.87h1.87v1.88zM43.3 37.67h1.88v1.88H43.3zM41.42 45.18h1.88v1.88h-1.88zM54.58 69.61h1.88v1.88h-1.88z"/><path fill="none" d="M56.45 41.42v-1.87h-1.87v-1.88H52.7v3.75h1.88v1.88h1.87v-1.88zM47.06 75.24h1.88v1.88h-1.88zM67.73 41.42h3.75v-1.87h-1.87v-1.88h-1.88v3.75zM58.33 18.88h1.88v1.88h-1.88zM19 77h9.21v-9.18H19zm1.79-7.42h5.63v5.63h-5.66zM19 28.18h9.21V19H19zm1.79-7.42h5.63v5.63h-5.66zM54.58 63.97h1.88v1.88h-1.88zM45.18 28.27h1.88v1.88h-1.88zM63.97 41.42h1.88v1.88h-1.88zM56.45 32.03v-1.88h-1.87v-1.88H52.7v3.76h1.88v1.88h1.87v-1.88z"/><path fill="none" d="M52.7 35.79h1.88v-1.88h-3.76v1.88h1.88zM50.82 28.27v-1.88h-1.88v3.76h1.88v-1.88zM48.94 26.39v-1.87h1.88v1.87h3.76v-3.75h-7.52v1.88h-1.88v1.87h3.76zM69.61 47.06V43.3h-1.88v5.64h1.88v-1.88zM45.18 20.76H43.3v1.88h3.76v-1.88h-1.88zM56.45 28.27h1.88v1.88h-1.88zM35.79 63.97h1.88v1.88h1.88v-3.76h-1.88v-7.51h-1.88v1.87h-7.52v1.88h7.52v3.76h-1.88v3.76h1.88v-1.88zM48.94 58.33v3.76h1.88v-1.88h1.88v-1.88h-3.76zM39.55 54.58h1.88v1.88h-1.88z"/><path fill="none" d="M24.52 58.33v-1.88h3.75v-1.87h1.88V52.7h-1.88v-1.88h3.76v-1.88h-5.64v3.76h-5.63v1.88h1.88v5.63h1.88v-1.88zM67.82 28.18H77V19h-9.18zm1.79-7.42h5.63v5.63h-5.63zM33.91 71.48h1.88v1.88h-1.88zM37.67 67.73v-1.88h-1.88v5.63h1.88v-3.75zM75.24 37.67h-1.88v3.75h3.76v-1.87h-1.88v-1.88zM39.55 65.85h1.88v1.88h-1.88zM63.97 60.21h1.88v1.88h-1.88zM71.48 48.94h-1.87v1.88h-1.88v-1.88h-1.88v3.76h3.76v1.88h-3.76v1.87h1.88v1.88h1.88v1.88h1.87v-3.76h1.88V65.85h3.76v-1.88h-1.88v-3.76h1.88v-1.88h-1.88V52.7h-1.88v-1.88h-1.88v-1.88zM28.27 41.42h1.88v1.88h-1.88zM69.61 64H64v5.64h5.64V64zm-1.88 3.76h-1.88v-1.91h1.88zM30.15 43.3h1.88v1.88h-1.88zM47.06 52.7h7.52v-1.88h1.87v-1.88h-1.87v-1.88h-3.76v1.88h1.88v1.88h-1.88v-1.88h-1.88v1.88h-1.88v-3.76h1.88v-1.88h-1.88V43.3h1.88v1.88h5.64V43.3h-3.76v-1.88h-1.88v-1.87h1.88v-1.88h-1.88v-1.88h-1.88v-1.88h3.76v-1.88h-1.88v-1.88h-1.88v1.88h-1.88v1.88H43.3v1.88h1.88v1.88h1.88v1.88h-1.88v7.51H43.3v1.88h1.88v1.88H43.3v-1.88h-1.88v-1.88h-1.87v1.88h-1.88v3.76h1.88v-1.88h1.87v1.88h1.88v1.88h1.88V52.7h1.88z"/><path d="M37.67 17h1.88v1.88h-1.88zM52.7 17h-1.88v1.88h3.76V17H52.7zM60.21 20.76h1.88V17h-3.76v1.88h1.88v1.88zM58.33 20.76h1.88v1.88h-1.88z"/><path d="M41.42 24.52h1.88v1.87h1.88v-1.87h1.88v-1.88H43.3v-1.88h3.76v1.88h7.52v3.75h-3.76v3.76h-1.88v1.88h1.88v1.88h3.76v-1.88H52.7v-3.76h1.88v1.88h1.87v-1.88h1.88v-1.88h-1.88v-5.63h1.88v-1.88h-3.75v1.88h-5.64V17h-7.52v1.88h-1.87v1.88h-1.88v-1.88h-1.88V17h-1.88v3.76h1.88v5.63h3.76v-1.87h1.87z"/><path d="M48.94 24.52h1.88v1.88h-1.88zM62.09 26.39v-1.87h-3.76v1.87h3.76zM33.91 26.39h-1.88v3.76h1.88v-3.76z"/><path d="M48.94 26.39h-3.76v1.88h1.88v1.88h1.88v-3.76zM35.79 28.27h1.88v1.88h-1.88zM58.33 28.27h1.88v1.88h-1.88zM62.09 30.15h1.88v-3.76h-1.88v3.76zM33.91 30.15h1.88v1.88h-1.88zM60.21 30.15h1.88v1.88h-1.88zM22.64 32.03h1.88v1.88h-1.88zM30.15 33.91v-1.88h-3.76v1.88h3.76zM18.88 33.91v-1.88H17v3.76h1.88v-1.88zM24.52 33.91h1.88v1.88h-1.88zM33.91 33.91v-1.88h-1.88v3.76h1.88v-1.88zM56.45 35.79h3.76v-1.88h-1.88v-3.76h-1.88v3.76h-1.87v1.88h1.87zM77.12 35.79v1.88H79v-3.76h-1.88v1.88zM22.64 35.79h1.88v1.88h-1.88zM28.27 35.79h1.88v1.88h-1.88z"/><path d="M45.18 37.67v-1.88H43.3v-1.88h1.88v-1.88h1.88v-1.88h-1.88v-1.88H43.3v3.76h-1.88v-5.64h-1.87v5.64h-1.88v1.88h3.75v3.76h-1.87v3.75h1.87v-1.87h1.88v-1.88h1.88zM73.36 35.79h1.88v1.88h-1.88zM20.76 37.67h1.88v1.88h-1.88zM45.18 37.67h1.88v1.88h-1.88zM60.21 37.67h-5.63v1.88h1.87v3.75h1.88v-1.88h1.88v-1.87h1.88v-1.88h-1.88zM75.24 37.67h1.88v1.88h-1.88zM28.27 39.55h1.88v1.88h-1.88zM35.79 39.55h1.88v-3.76h-1.88v1.88h-3.76v1.88h1.88v1.87h1.88v-1.87z"/><path d="M24.52 43.3v-3.75h-1.88v1.87h-3.76v-3.75H17v5.63h1.88v1.88H17v1.88h3.76v-1.88h1.88V43.3h1.88zM32.03 43.3v1.88h1.88v-3.76h-3.76v1.88h1.88zM52.7 41.42v-3.75h1.88v-1.88h-3.76v-1.88h-3.76v1.88h1.88v1.88h1.88v1.88h-1.88v1.87h1.88v1.88h3.76v-1.88H52.7zM75.24 41.42h-1.88v-3.75h-1.88v-1.88h-1.87v-3.76h-1.88v1.88h-1.88v-1.88h-3.76v1.88h1.88v1.88h3.76v1.88h1.88v1.88h1.87v1.87h-3.75v-3.75h-1.88v1.88h-3.76v3.75h1.88v-1.88h1.88v1.88h-1.88v1.88h1.88v3.76h1.88V43.3h1.88v5.64h1.87v1.88h1.88v-3.76h-1.88V43.3h1.88v1.88h1.88v3.76h1.88V43.3H79v-3.75h-1.88v1.87h-1.88zM35.79 43.3h1.88v1.88h-1.88zM47.06 43.3h1.88v1.88h-1.88z"/><path d="M54.58 43.3h1.88v1.88h-1.88zM58.33 43.3v1.88h3.76V43.3h-3.76zM43.3 47.06h1.88v-7.51H43.3v3.75h-1.88v1.88h1.88v1.88z"/><path d="M52.7 45.18h-3.76v1.88h-1.88v3.76h1.88v-1.88h1.88v-1.88h3.76v-1.88H52.7zM62.09 45.18h1.88v1.88h-1.88zM30.15 48.94h1.88v-3.76h-1.88v1.88h-1.88v-1.88h1.88V43.3h-1.88v-1.88h-1.88v3.76h-3.75v1.88h3.75v1.88h3.76zM33.91 47.06h1.88v1.88h-1.88zM39.55 47.06h1.87v-1.88h-3.75v3.76h1.88v-1.88zM41.42 47.06h1.88v1.88h-1.88z"/><path d="M43.3 48.94h1.88v1.88H43.3zM50.82 48.94h1.88v1.88h-1.88zM62.09 48.94v-1.88h-3.76v-1.88h-1.88v1.88h-1.87v1.88h1.87v1.88h5.64v1.88h3.76v-3.76h-3.76zM67.73 48.94h1.88v1.88h-1.88zM24.52 52.7h1.87v-3.76h-1.87v1.88h-3.76v1.88h3.76zM75.24 52.7v5.63h1.88v1.88h-1.88v3.76h1.88v-1.88H79V50.82h-5.64v1.88h1.88zM43.3 52.7h-1.88v-1.88h-1.87v1.88h-1.88v-3.76h-1.88v1.88h-1.88v-1.88h-1.88v1.88h-3.76v1.88h1.88v1.88h-1.88v1.87h7.52v-1.87h-1.88V52.7h1.88v1.88h1.88v7.51h1.88v3.76h1.87V56.45h-1.87v-1.87h1.87v1.87h3.76v-1.87H43.3V52.7zM67.73 54.58h1.88V52.7h-3.76v1.88h1.88z"/><path d="M22.64 56.45v-1.87h-1.88V52.7h-1.88v-3.76H17v5.64h1.88v1.87h1.88v1.88H17v1.88h1.88v1.88h1.88v-1.88h1.88v-3.76zM43.3 58.33h1.88v1.88H43.3zM52.7 58.33h1.88v1.88H52.7zM50.82 60.21h1.88v1.88h-1.88z"/><path d="M17 62.09h1.88v1.88H17zM33.91 62.09h-5.64v-1.88h5.64v1.88h1.88v-3.76h-7.52v-1.88h-3.75v3.76h-1.88v1.88h3.75v1.88h5.64v1.88h1.88v-3.76zM54.58 63.97h1.87v1.88h-1.87v1.88h-7.52v1.88H43.3v1.87h7.52v-1.87h1.88v1.87h1.88v-1.87h1.87v1.87h1.88v-1.87h1.88v-1.88h-1.88v-1.88h1.88v-1.88h-1.88v-3.76h-3.75v3.76zM35.79 63.97h1.88v1.88h-1.88z"/><path d="M52.7 63.97h1.88v1.88H52.7zM77.12 63.97H79v1.88h-1.88zM39.55 65.85h-1.88v5.63h1.88v-1.87h1.87v-1.88h-1.87v-1.88zM43.3 67.73h1.88v-1.88h-3.76v1.88h1.88zM65.85 65.85h1.88v1.88h-1.88z"/><path d="M73.36 65.85v-9.4h-1.88v3.76h-1.87v-1.88h-1.88v-1.88h-1.88v-1.87h-3.76V52.7h-5.64v-1.88h-1.87v1.88h-9.4v1.88h5.64v1.87h-3.76v3.76h-1.88v1.88H43.3V64h7.52v-1.91h-1.88v-3.76h3.76v-1.88h3.75v1.88h3.76v-1.88H64v1.88h-1.91v13.15h3.76v1.88h1.88v-1.88h1.88v3.76h1.87v-3.76h1.88v-1.87h-1.88v-1.88h3.76v3.75H79v-3.75h-1.88v-1.88h-3.76zM64 60.21h1.88v1.88H64zm5.64 9.4H64V64h5.64v5.64zM35.79 69.61v-3.76h-1.88v1.88h-1.88v1.88h1.88v1.87h1.88v-1.87zM32.03 71.48h1.88v1.88h-1.88z"/><path d="M35.79 73.36h-1.88v1.88h1.88v1.88h-3.76V79h7.52v-1.88h-1.88v-5.64h-1.88v1.88zM41.42 71.48h1.88v1.88h-1.88zM54.58 73.36v1.88h1.87v-3.76h-1.87v1.88zM58.33 71.48h1.88v1.88h-1.88zM47.06 73.36h1.88v1.88h-1.88zM62.09 73.36V79h3.76v-5.64h-3.76zM73.36 73.36h1.88v1.88h-1.88zM77.12 73.36H79v1.88h-1.88zM43.3 77.12v-1.88h-3.75v1.88h3.75zM47.06 75.24h-1.88V79h3.76v-1.88h-1.88v-1.88z"/><path d="M52.7 75.24v-1.88h-1.88v1.88h-1.88v1.88h1.88V79h3.76v-1.88H52.7v-1.88zM56.45 79h1.88v-1.88h1.88v-1.88h-3.76V79zM69.61 77.12V79h3.75v-1.88h-3.75zM75.24 77.12h1.88V79h-1.88zM30.15 17H17v13.15h13.15zm-2 11.18H19V19h9.21zM77 17H65.85v13.15H79V17zm0 11.18h-9.18V19H77zM17 65.85V79h13.15V65.85H17zM28.18 77H19v-9.18h9.21z"/><path d="M20.76 20.76h5.64v5.64h-5.64zM69.61 20.76h5.64v5.64h-5.64zM20.76 69.61h5.64v5.64h-5.64z"/></svg>