<svg xmlns="http://www.w3.org/2000/svg" xmlns:xlink="http://www.w3.org/1999/xlink" viewBox="0 0 213 66"><defs><linearGradient id="linear-gradient" x1="34.25" y1="35.83" x2="53.37" y2="-3.21" gradientTransform="matrix(1, 0, 0, -1, 0, 68)" gradientUnits="userSpaceOnUse"><stop offset="0" stop-color="#3bb9eb"/><stop offset="1" stop-color="#585ae6"/></linearGradient><linearGradient id="linear-gradient-2" x1="28" y1="36.88" x2="47.12" y2="-2.16" xlink:href="#linear-gradient"/><linearGradient id="linear-gradient-3" x1="26.96" y1="43.16" x2="46.08" y2="4.13" xlink:href="#linear-gradient"/><linearGradient id="linear-gradient-4" x1="33.2" y1="42.11" x2="52.33" y2="3.08" xlink:href="#linear-gradient"/><linearGradient id="linear-gradient-5" x1="36.28" y1="36.13" x2="41.01" y2="29.45" xlink:href="#linear-gradient"/><linearGradient id="linear-gradient-6" x1="28.4" y1="33.63" x2="31.12" y2="21.44" xlink:href="#linear-gradient"/></defs><path d="M36.45,66A29.34,29.34,0,1,0,7.29,36.67,29.25,29.25,0,0,0,36.45,66Z" style="opacity:0.6000000238418579;isolation:isolate;fill:url(#linear-gradient)"/><path d="M30.2,65A29.33,29.33,0,1,0,1,35.62,29.25,29.25,0,0,0,30.2,65Z" style="opacity:0.6000000238418579;isolation:isolate;fill:url(#linear-gradient-2)"/><path d="M29.16,58.67A29.34,29.34,0,1,0,0,29.33,29.26,29.26,0,0,0,29.16,58.67Z" style="opacity:0.6000000238418579;isolation:isolate;fill:url(#linear-gradient-3)"/><path d="M35.41,59.71A29.33,29.33,0,1,0,6.25,30.38,29.25,29.25,0,0,0,35.41,59.71Z" style="opacity:0.6000000238418579;isolation:isolate;fill:url(#linear-gradient-4)"/><path d="M32.8,57.62A24.62,24.62,0,1,0,8.33,33,24.55,24.55,0,0,0,32.8,57.62Z" style="fill:#fff"/><path d="M26.57,42.81a4.66,4.66,0,0,0,6.6.56,4.54,4.54,0,0,0,.76-.82L47.3,24.2A1.23,1.23,0,0,0,47,22.49a1.19,1.19,0,0,0-1.4,0l-18,12.37a5.44,5.44,0,0,0-1.4,7.53A4.59,4.59,0,0,0,26.57,42.81Z" style="opacity:0.699999988079071;isolation:isolate;fill:url(#linear-gradient-5)"/><path d="M18.79,34.44l9.72,10.72a2.43,2.43,0,0,0,3.44.15,3.39,3.39,0,0,0,.31-.34l6-8.1A1.23,1.23,0,0,0,38,35.16a1.16,1.16,0,0,0-.59-.23l-17.87-2a.92.92,0,0,0-.77,1.53Z" style="fill:url(#linear-gradient-6)"/><path d="M76.37,15.56V13.69H86.9v1.87H82.62V33h-2V15.56Zm18.4,2.79a7,7,0,0,1,5.43,2.39,7.71,7.71,0,0,1-.11,10.39,7.45,7.45,0,0,1-10.65,0,7.69,7.69,0,0,1-.11-10.38A7,7,0,0,1,94.77,18.35Zm0,1.8a5.2,5.2,0,0,0-3.9,1.69,5.68,5.68,0,0,0-1.64,4.1A5.78,5.78,0,0,0,90,28.82a5.14,5.14,0,0,0,2,2.07,5.66,5.66,0,0,0,5.56,0,5.27,5.27,0,0,0,2-2.07,5.88,5.88,0,0,0,.74-2.88,5.64,5.64,0,0,0-1.64-4.1A5.22,5.22,0,0,0,94.77,20.15Zm10.54-1.43h1.84v6.66a14,14,0,0,0,.27,3.37,3.73,3.73,0,0,0,1.49,2.07,4.92,4.92,0,0,0,5.22,0,3.76,3.76,0,0,0,1.47-1.95,14.08,14.08,0,0,0,.27-3.51V18.72h1.87v7a11.08,11.08,0,0,1-.69,4.45A5.15,5.15,0,0,1,115,32.52a6.44,6.44,0,0,1-3.45.85,6.54,6.54,0,0,1-3.47-.85A5.23,5.23,0,0,1,106,30.16a11.52,11.52,0,0,1-.69-4.56Zm30.27,3-1.45.91A6.07,6.07,0,0,0,129,20.08a5.9,5.9,0,0,0-4.31,1.68A5.48,5.48,0,0,0,123,25.84a5.9,5.9,0,0,0,.79,2.95,5.65,5.65,0,0,0,2.17,2.14,6.37,6.37,0,0,0,3.09.76,6.23,6.23,0,0,0,5.11-2.51l1.45,1a6.86,6.86,0,0,1-2.73,2.38,8.68,8.68,0,0,1-3.91.85,7.69,7.69,0,0,1-5.59-2.16A7,7,0,0,1,121.13,26a7.55,7.55,0,0,1,1-3.86A7.3,7.3,0,0,1,125,19.35a8.23,8.23,0,0,1,4.06-1,8.56,8.56,0,0,1,2.72.43A7.65,7.65,0,0,1,134,19.91,6.07,6.07,0,0,1,135.58,21.68Zm3.51-8.48h1.83v8.08a7.7,7.7,0,0,1,2.44-2.2,5.87,5.87,0,0,1,2.88-.73,5,5,0,0,1,2.83.81,4.82,4.82,0,0,1,1.82,2.19,11.66,11.66,0,0,1,.59,4.3V33h-1.83V26.19a17.47,17.47,0,0,0-.2-3.3A3.36,3.36,0,0,0,145.88,20a4.5,4.5,0,0,0-3,1.1,5.17,5.17,0,0,0-1.73,2.74,19.24,19.24,0,0,0-.26,3.88V33h-1.83Zm30.08,8.48-1.45.91a6.06,6.06,0,0,0-5.12-2.51,5.93,5.93,0,0,0-4.32,1.68,5.51,5.51,0,0,0-1.71,4.08,5.8,5.8,0,0,0,.79,2.95,5.55,5.55,0,0,0,2.16,2.14,6.37,6.37,0,0,0,3.09.76,6.22,6.22,0,0,0,5.11-2.51l1.45,1a6.86,6.86,0,0,1-2.73,2.38,8.68,8.68,0,0,1-3.91.85,7.7,7.7,0,0,1-5.59-2.16A7,7,0,0,1,154.73,26a7.54,7.54,0,0,1,1-3.86,7.39,7.39,0,0,1,2.86-2.77,8.19,8.19,0,0,1,4-1,8.66,8.66,0,0,1,2.73.43,7.71,7.71,0,0,1,2.22,1.13A5.93,5.93,0,0,1,169.17,21.68Zm17.66-3V33H185V30.54a7.67,7.67,0,0,1-2.58,2.12,7.16,7.16,0,0,1-8.27-1.49A7.42,7.42,0,0,1,172,25.82a7.25,7.25,0,0,1,2.16-5.28,7,7,0,0,1,5.18-2.19,6.61,6.61,0,0,1,3.16.75A7,7,0,0,1,185,21.34V18.72Zm-7.31,1.4A5.46,5.46,0,0,0,174.65,23a5.8,5.8,0,0,0-.76,2.88,5.86,5.86,0,0,0,.76,2.89,5.71,5.71,0,0,0,2.07,2.15,5.43,5.43,0,0,0,2.79.77,5.79,5.79,0,0,0,2.85-.76,5.32,5.32,0,0,0,2.06-2.07,5.81,5.81,0,0,0,.73-2.92,5.68,5.68,0,0,0-1.63-4.15A5.36,5.36,0,0,0,179.52,20.12Zm10.73-1.4h1.87V20.8A6.5,6.5,0,0,1,193.88,19a3.44,3.44,0,0,1,1.93-.61,3.32,3.32,0,0,1,1.62.48l-1,1.55a2.71,2.71,0,0,0-1-.25,2.59,2.59,0,0,0-1.76.76,4.67,4.67,0,0,0-1.29,2.34,22.4,22.4,0,0,0-.34,4.94V33h-1.87ZM213,13.2V33h-1.8V30.54a7.87,7.87,0,0,1-2.58,2.12,7.16,7.16,0,0,1-8.27-1.49,7.38,7.38,0,0,1-2.14-5.35,7.25,7.25,0,0,1,2.16-5.28,7,7,0,0,1,5.18-2.19,6.64,6.64,0,0,1,3.16.75,7.11,7.11,0,0,1,2.49,2.24V13.2Zm-7.31,6.92a5.51,5.51,0,0,0-2.82.75A5.6,5.6,0,0,0,200.82,23a5.81,5.81,0,0,0-.77,2.88,5.87,5.87,0,0,0,.77,2.89,5.71,5.71,0,0,0,2.07,2.15,5.43,5.43,0,0,0,2.79.77,5.73,5.73,0,0,0,2.84-.76,5.28,5.28,0,0,0,2.07-2.07,5.91,5.91,0,0,0,.73-2.92,5.72,5.72,0,0,0-1.63-4.15A5.36,5.36,0,0,0,205.69,20.12Z" style="fill:#ffffff"/><path d="M80.68,48.91V42.26h5.73v6.65h-1V43.14H81.66v5.77Zm7.61.11a3.13,3.13,0,0,1-.79-.11l.11-.84a1.71,1.71,0,0,0,.47.09,1.15,1.15,0,0,0,.46-.08.93.93,0,0,0,.39-.37,2.25,2.25,0,0,0,.33-.85,14.19,14.19,0,0,0,.2-1.57c.05-.68.08-1.51.08-2.48v-.55h4.68v6.65h-1V43.14H90.48v.15a23.73,23.73,0,0,1-.12,2.59,10.2,10.2,0,0,1-.29,1.67,2.19,2.19,0,0,1-.48.94,1.45,1.45,0,0,1-.59.43A2.09,2.09,0,0,1,88.29,49Zm10.11,0a2.77,2.77,0,0,1-1.74-.56A1.81,1.81,0,0,1,95.93,47a1.88,1.88,0,0,1,.76-1.61,3.4,3.4,0,0,1,2.06-.57,7.38,7.38,0,0,1,2,.29v-.21a1.73,1.73,0,0,0-.52-1.34,2.06,2.06,0,0,0-1.44-.46,4.76,4.76,0,0,0-2,.48l-.3-.82a5.87,5.87,0,0,1,2.41-.56,2.89,2.89,0,0,1,2.14.73,2.68,2.68,0,0,1,.69,2v4.06h-1v-1A2.87,2.87,0,0,1,98.4,49.06Zm.19-.8a2.49,2.49,0,0,0,1.56-.5,1.6,1.6,0,0,0,.64-1.29v-.62a6.83,6.83,0,0,0-1.93-.28,2.35,2.35,0,0,0-1.42.37,1.13,1.13,0,0,0-.52,1,1.15,1.15,0,0,0,.48,1A1.93,1.93,0,0,0,98.59,48.26Zm6.84.65V43.14h-2.36v-.88h5.73v.88h-2.37v5.77Zm7.69.16a3.16,3.16,0,0,1-2.35-1,3.45,3.45,0,0,1-1-2.51,3.52,3.52,0,0,1,.91-2.46,2.92,2.92,0,0,1,2.26-1,2.75,2.75,0,0,1,2.25,1,3.8,3.8,0,0,1,.84,2.53c0,.12,0,.24,0,.34h-5.24a2.43,2.43,0,0,0,.76,1.62,2.25,2.25,0,0,0,1.57.6,2.82,2.82,0,0,0,2.08-.94l.62.55A3.54,3.54,0,0,1,113.12,49.07Zm-2.3-3.87h4.26a2.83,2.83,0,0,0-.63-1.61A1.87,1.87,0,0,0,113,43a1.92,1.92,0,0,0-1.45.63A2.65,2.65,0,0,0,110.82,45.2ZM117,48.91l2.71-3.8-2.57-2.85h1.19l3.36,3.86V42.26h1v3.86L126,42.26h1.19l-2.57,2.85,2.71,3.8h-1.15l-2.2-3.1-1.34,1.48v1.62h-1V47.29l-1.34-1.48-2.2,3.1Zm11.76-8.1v-1.1h1.12v1.1Zm.06,8.1V42.26h1v6.65Zm8.71,0V43.14h-2.36v-.88h5.73v.88h-2.37v5.77Zm6.77.15a2.81,2.81,0,0,1-1.74-.56,1.81,1.81,0,0,1-.73-1.54,1.89,1.89,0,0,1,.77-1.61,3.38,3.38,0,0,1,2.06-.57,7.36,7.36,0,0,1,2,.29v-.21a1.73,1.73,0,0,0-.51-1.34,2.09,2.09,0,0,0-1.45-.46,4.76,4.76,0,0,0-2,.48l-.29-.82a5.82,5.82,0,0,1,2.4-.56,2.89,2.89,0,0,1,2.14.73,2.68,2.68,0,0,1,.69,2v4.06h-1v-1A2.85,2.85,0,0,1,144.26,49.06Zm.19-.8a2.45,2.45,0,0,0,1.56-.5,1.57,1.57,0,0,0,.64-1.29v-.62a6.83,6.83,0,0,0-1.93-.28,2.37,2.37,0,0,0-1.42.37,1.22,1.22,0,0,0,0,2A1.9,1.9,0,0,0,144.45,48.26Zm9.09.65V42.26h5.73v6.65h-1V43.14h-3.76v5.77Zm10.82.16a3.16,3.16,0,0,1-2.35-1,3.45,3.45,0,0,1-.95-2.51,3.52,3.52,0,0,1,.91-2.46,2.92,2.92,0,0,1,2.26-1,2.75,2.75,0,0,1,2.25,1,3.8,3.8,0,0,1,.83,2.53c0,.12,0,.24,0,.34h-5.24a2.39,2.39,0,0,0,.76,1.62,2.24,2.24,0,0,0,1.56.6,2.82,2.82,0,0,0,2.09-.94l.61.55A3.52,3.52,0,0,1,164.36,49.07Zm-2.3-3.87h4.26a2.77,2.77,0,0,0-.64-1.61,1.84,1.84,0,0,0-1.47-.63,1.92,1.92,0,0,0-1.45.63A2.59,2.59,0,0,0,162.06,45.2ZM169,51V42.26h1V43.6a3,3,0,0,1,2.53-1.48,3,3,0,0,1,2.21,1,3.8,3.8,0,0,1,0,5,3,3,0,0,1-2.21,1A3,3,0,0,1,170,47.64V51Zm3.34-2.8a2.2,2.2,0,0,0,1.66-.7,2.94,2.94,0,0,0,0-3.75,2.2,2.2,0,0,0-1.65-.71,2.27,2.27,0,0,0-1.68.73,2.57,2.57,0,0,0-.71,1.85,2.54,2.54,0,0,0,.71,1.85A2.27,2.27,0,0,0,172.38,48.17Zm8.05.9a3.16,3.16,0,0,1-2.35-1,3.41,3.41,0,0,1-1-2.51,3.52,3.52,0,0,1,.91-2.46,2.92,2.92,0,0,1,2.26-1,2.75,2.75,0,0,1,2.25,1,3.8,3.8,0,0,1,.83,2.53c0,.12,0,.24,0,.34h-5.25a2.44,2.44,0,0,0,.77,1.62,2.23,2.23,0,0,0,1.56.6,2.82,2.82,0,0,0,2.09-.94l.61.55A3.52,3.52,0,0,1,180.43,49.07Zm-2.31-3.87h4.27a2.91,2.91,0,0,0-.64-1.61,1.84,1.84,0,0,0-1.48-.63,1.92,1.92,0,0,0-1.44.63A2.66,2.66,0,0,0,178.12,45.2Zm7,3.71V42.26h1V46.1l3.63-3.84h1.21l-2.76,2.88L191,48.91h-1.17l-2.35-3-1.4,1.45v1.6Zm9.22.15a2.81,2.81,0,0,1-1.74-.56,1.84,1.84,0,0,1-.73-1.54,1.89,1.89,0,0,1,.77-1.61,3.38,3.38,0,0,1,2.06-.57,7.31,7.31,0,0,1,2,.29v-.21a1.73,1.73,0,0,0-.51-1.34,2.06,2.06,0,0,0-1.44-.46,4.76,4.76,0,0,0-2,.48l-.3-.82a5.83,5.83,0,0,1,2.41-.56,2.89,2.89,0,0,1,2.14.73,2.68,2.68,0,0,1,.69,2v4.06h-1v-1A2.84,2.84,0,0,1,194.33,49.06Zm.2-.8a2.49,2.49,0,0,0,1.56-.5,1.6,1.6,0,0,0,.64-1.29v-.62a6.9,6.9,0,0,0-1.94-.28,2.39,2.39,0,0,0-1.42.37,1.22,1.22,0,0,0,0,2A1.93,1.93,0,0,0,194.53,48.26Zm7.34.81a4.22,4.22,0,0,1-2.74-1l.5-.74a3.31,3.31,0,0,0,2.21.87,2.05,2.05,0,0,0,1.16-.32,1,1,0,0,0,.48-.87.9.9,0,0,0-.43-.8,2.24,2.24,0,0,0-1.23-.29h-.88v-.81h.89a1.67,1.67,0,0,0,1.06-.32,1,1,0,0,0,.41-.83.82.82,0,0,0-.4-.72,1.81,1.81,0,0,0-1-.27,3.09,3.09,0,0,0-2,.67l-.49-.69a4,4,0,0,1,2.56-.84,2.74,2.74,0,0,1,1.75.5,1.54,1.54,0,0,1,.65,1.28,1.56,1.56,0,0,1-1.07,1.53,1.62,1.62,0,0,1,1.23,1.63,1.78,1.78,0,0,1-.71,1.42A2.94,2.94,0,0,1,201.87,49.07Zm4.45-.16V42.26h1v5.27l3.92-5.27h1v6.65h-1V43.65l-3.94,5.26Z" style="fill:#ffffff"/></svg>