<svg xmlns="http://www.w3.org/2000/svg" width="98.99" height="25" viewBox="0 0 98.99 25"><path d="M29.82,3h.88a1.45,1.45,0,0,0,1-.32,1.29,1.29,0,0,0,.28-.38A.9.9,0,0,0,32,1.82a1,1,0,0,0-.34-.76,1.45,1.45,0,0,0-.94-.3,1.52,1.52,0,0,0-1,.3,1.14,1.14,0,0,0-.41.81H28.6A1.82,1.82,0,0,1,29.24.49,2.38,2.38,0,0,1,30.78,0a2.24,2.24,0,0,1,1.49.5,1.53,1.53,0,0,1,.58,1.24,1.52,1.52,0,0,1-.34,1,1.41,1.41,0,0,1-.86.55h0a1.54,1.54,0,0,1,1.05.52,1.59,1.59,0,0,1,.37,1.11,1.68,1.68,0,0,1-.65,1.35,2.41,2.41,0,0,1-1.61.55,2.59,2.59,0,0,1-1.69-.45A1.72,1.72,0,0,1,28.42,5h.78a1.08,1.08,0,0,0,.48.83,1.86,1.86,0,0,0,1.05.3,1.57,1.57,0,0,0,1.06-.34,1.05,1.05,0,0,0,.41-.89A1.07,1.07,0,0,0,31.81,4a1.67,1.67,0,0,0-1.06-.31h-.91Z" transform="translate(-0.01)"/><path d="M37.05,2.17a2.24,2.24,0,0,0-2.64,0,1.39,1.39,0,0,0-.54,1.06h.75a1,1,0,0,1,.13-.32A.84.84,0,0,1,35,2.66a1.2,1.2,0,0,1,.71-.2,1.23,1.23,0,0,1,.81.24.89.89,0,0,1,.29.7v.39l-1.35.08a2.33,2.33,0,0,0-1.33.42,1.19,1.19,0,0,0-.47,1,1.33,1.33,0,0,0,.44,1,2,2,0,0,0,2.13.14,1.59,1.59,0,0,0,.62-.64v.84h.73V3.3A1.42,1.42,0,0,0,37.05,2.17ZM36.8,4.82a1.19,1.19,0,0,1-.38.87,1.44,1.44,0,0,1-1,.34h0a1.12,1.12,0,0,1-.69-.2.63.63,0,0,1-.27-.54c0-.48.32-.78,1-.78l1.26-.09Z" transform="translate(-0.01)"/><path d="M42,4.45a1.21,1.21,0,0,0-.73-.38.85.85,0,0,0,.56-.36A1.14,1.14,0,0,0,42.08,3a1.2,1.2,0,0,0-.39-.92,1.58,1.58,0,0,0-1-.3H38.53V6.67h2.11a1.77,1.77,0,0,0,1.21-.4,1.25,1.25,0,0,0,.44-1.06A1.14,1.14,0,0,0,42,4.45Zm-2.68-2h1.18c.52,0,.78.21.78.68s-.31.69-.91.69h-1ZM40.64,6h-1.3V4.52l1.15,0c.71,0,1,.27,1,.78S41.24,6,40.64,6Z" transform="translate(-0.01)"/><path d="M46.32,2.17A2,2,0,0,0,45,1.73a2,2,0,0,0-1.28.42,1.33,1.33,0,0,0-.53,1.06h.74A1,1,0,0,1,44,2.89a1.31,1.31,0,0,1,.24-.23,1.41,1.41,0,0,1,1.51,0,.86.86,0,0,1,.29.7v.39l-1.34.08a2.36,2.36,0,0,0-1.34.42,1.2,1.2,0,0,0-.46,1,1.34,1.34,0,0,0,.45,1,1.66,1.66,0,0,0,1.13.37h0a1.74,1.74,0,0,0,.94-.24,1.53,1.53,0,0,0,.62-.64v.84h.74V3.3A1.39,1.39,0,0,0,46.32,2.17ZM46,4.81a1.19,1.19,0,0,1-.38.87,1.4,1.4,0,0,1-1,.35h0A1.18,1.18,0,0,1,44,5.83a.65.65,0,0,1-.26-.54c0-.48.32-.78,1-.78L46,4.42Z" transform="translate(-0.01)"/><polygon points="51 4.46 48.6 4.46 48.6 6.67 47.84 6.67 47.84 1.81 48.6 1.81 48.6 3.82 51.04 3.82 51.04 1.81 51.8 1.81 51.8 6.67 51.04 6.67 51.04 4.46 51 4.46"/><polygon points="56.27 2.44 54.8 2.44 54.8 6.66 54.04 6.66 54.04 2.44 52.48 2.44 52.48 1.81 56.36 1.81 56.27 2.44"/><path d="M60.09,2.17a2,2,0,0,0-1.35-.44,2,2,0,0,0-1.28.42,1.41,1.41,0,0,0-.55,1.06h.75a1,1,0,0,1,.13-.32A.84.84,0,0,1,58,2.66a1.2,1.2,0,0,1,.71-.2,1.23,1.23,0,0,1,.81.24.89.89,0,0,1,.29.7v.39l-1.35.08a2.33,2.33,0,0,0-1.33.42,1.19,1.19,0,0,0-.47,1,1.33,1.33,0,0,0,.44,1,1.73,1.73,0,0,0,1.11.37h.08a1.74,1.74,0,0,0,.94-.24,1.59,1.59,0,0,0,.62-.64v.84h.73V3.3A1.42,1.42,0,0,0,60.09,2.17Zm-.34,2.64a1.12,1.12,0,0,1-.38.87,1.42,1.42,0,0,1-1,.34l.11,0h-.12a0,0,0,0,0,0,0,1.19,1.19,0,0,1-.61-.19.63.63,0,0,1-.27-.54c0-.48.32-.78,1-.78l1.18-.09Z" transform="translate(-0.01)"/><polygon points="67.81 6.7 66.9 6.7 64.89 4.32 64.89 4.32 64.89 6.67 64.13 6.67 64.13 4.32 64.13 4.32 62.13 6.67 61.15 6.67 63.32 4.12 61.21 1.81 62.16 1.81 64.1 3.97 64.1 3.97 64.1 1.86 64.89 1.86 64.89 3.97 64.89 3.97 66.82 1.86 67.78 1.86 65.67 4.16 67.81 6.7"/><polygon points="68.43 6.7 68.43 1.81 69.19 1.81 69.19 5.46 69.19 5.46 71.66 1.81 72.42 1.81 72.42 6.67 71.66 6.67 71.66 3.02 71.66 3.02 69.26 6.67 68.43 6.7"/><polygon points="77.01 2.48 75.53 2.48 75.53 6.7 74.77 6.7 74.77 2.48 73.21 2.48 73.21 1.81 77.09 1.81 77.01 2.48"/><polygon points="77.69 6.7 77.69 1.81 78.45 1.81 78.45 5.46 78.45 5.46 81.03 1.81 81.77 1.81 81.77 6.67 81.03 6.67 81.03 3.02 81.03 3.02 78.52 6.67 77.69 6.7"/><path d="M86.47,6.79a2.26,2.26,0,0,1-1.29-.37,1.25,1.25,0,0,1-.58-1h.78a1.39,1.39,0,0,0,.12.28.9.9,0,0,0,.23.21,1.4,1.4,0,0,0,.74.18,1.27,1.27,0,0,0,.82-.23.92.92,0,0,0,.22-.26.69.69,0,0,0,.13-.36q0-.81-1-.81h-.73V3.82h.73c.63,0,.94-.24.94-.73a.63.63,0,0,0-.22-.51,1,1,0,0,0-.7-.2,1.28,1.28,0,0,0-.71.18.62.62,0,0,0-.32.46h-.76a1.42,1.42,0,0,1,.12-.54,1.52,1.52,0,0,1,.39-.37,2.18,2.18,0,0,1,1.24-.35,1.9,1.9,0,0,1,1.24.35,1.19,1.19,0,0,1,.44,1,1.09,1.09,0,0,1-.23.67,1,1,0,0,1-.58.39h0a1.06,1.06,0,0,1,1,1.13v0a1.34,1.34,0,0,1-.51,1,2.12,2.12,0,0,1-1.35.42Z" transform="translate(-0.01)"/><path d="M34.56,10.68h-1.9L28.57,22.17h1.87l1-3.1h4.35l1,3.1h1.86Zm-2.67,6.91,1.68-5h0l1.69,5Z" transform="translate(-0.01)"/><path d="M44.12,13.44A3,3,0,0,0,41.4,15V13.53H39.76V25h1.7V20.76a2.92,2.92,0,0,0,2.7,1.5c2.15,0,3.57-1.73,3.57-4.41S46.3,13.44,44.12,13.44Zm-.43,7.36c-1.36,0-2.29-1.14-2.28-2.95s.9-3,2.28-3,2.29,1.21,2.29,3S45.07,20.8,43.69,20.8Z" transform="translate(-0.01)"/><path d="M53.48,13.44A3,3,0,0,0,50.72,15V13.53H49.08V25h1.74V20.76a2.92,2.92,0,0,0,2.7,1.5c2.14,0,3.56-1.73,3.56-4.41S55.65,13.44,53.48,13.44Zm-.43,7.36c-1.36,0-2.29-1.14-2.28-2.95s.9-3,2.28-3,2.29,1.21,2.29,3S54.43,20.8,53.05,20.8Z" transform="translate(-0.01)"/><path d="M61.82,19h1.73c.13,1.14,1.22,1.89,2.71,1.89s2.46-.75,2.46-1.78-.62-1.42-2.09-1.79L65.16,17c-2.08-.51-3-1.49-3-3.09,0-2,1.71-3.35,4.13-3.35s4,1.36,4.08,3.35H68.61c-.1-1.15-1-1.84-2.4-1.84s-2.3.7-2.3,1.72c0,.81.6,1.29,2.06,1.65l1.25.31c2.32.56,3.29,1.51,3.29,3.19,0,2.15-1.69,3.49-4.38,3.49C63.62,22.36,61.93,21.05,61.82,19Z" transform="translate(-0.01)"/><path d="M72.42,11.61h1.7v2h1.63v1.36H74.12v4.83c0,.75.33,1.1,1,1.1h.58v1.36a4.19,4.19,0,0,1-1,.09c-1.7,0-2.36-.66-2.36-2.33V15h-1.1V13.53h1.18V11.61Z" transform="translate(-0.01)"/><path d="M80.84,13.44c-2.42,0-4,1.72-4,4.44s1.53,4.43,4,4.43v0c2.46,0,4-1.68,4-4.4S83.26,13.44,80.84,13.44Zm0,7.43v0c-1.45,0-2.31-1.09-2.31-3s.87-3,2.31-3,2.3,1.1,2.3,3S82.28,20.87,80.84,20.87Z" transform="translate(-0.01)"/><path d="M86.23,22.2V13.53h1.62V15h0a2.06,2.06,0,0,1,2.06-1.54,2.76,2.76,0,0,1,.57.06v1.62a2.72,2.72,0,0,0-.75-.11,1.8,1.8,0,0,0-1.84,1.76,1.93,1.93,0,0,0,0,.24v5.16Z" transform="translate(-0.01)"/><path d="M99,18.29v-.61c0-2.62-1.37-4.24-3.75-4.24s-3.94,1.76-3.94,4.47,1.52,4.4,4,4.4A3.43,3.43,0,0,0,99,19.67H97.34l0,0a2,2,0,0,1-2,1.24h-.27A2.28,2.28,0,0,1,93,18.39v-.1Zm-6-1.23a2.21,2.21,0,0,1,2.23-2.21l0,0h.16a2.1,2.1,0,0,1,2,2.24Z" transform="translate(-0.01)"/><path d="M15.88,12.54a5.39,5.39,0,0,1,2.51-4.49,5.42,5.42,0,0,0-4.26-2.33C12.31,5.54,10.59,6.8,9.67,6.8s-2.35-1-3.85-1A5.68,5.68,0,0,0,1,8.8c-2.08,3.6-.55,9,1.45,11.89,1,1.45,2.2,3.1,3.68,3s2-1,3.82-1,2.28,1,3.85.93,2.57-1.45,3.57-2.89h0A13,13,0,0,0,19,17.38,5.2,5.2,0,0,1,15.88,12.54Z" transform="translate(-0.01)"/><path d="M12.92,3.85A5.25,5.25,0,0,0,14.13.09,5.17,5.17,0,0,0,10.7,1.88,4.92,4.92,0,0,0,9.46,5.52,4.29,4.29,0,0,0,12.92,3.85Z" transform="translate(-0.01)"/></svg>