<svg xmlns="http://www.w3.org/2000/svg" width="99" height="25" viewBox="0 0 99 25"><path d="M19.09,11.22,16.25,9.61l-2.86,2.85,2.86,2.87,2.84-1.61A1.31,1.31,0,0,0,19.09,11.22Z"/><path d="M.42,1.65A1.82,1.82,0,0,0,0,2.9V22a1.7,1.7,0,0,0,.44,1.21L11.19,12.46Z"/><polygon points="14.84 8.79 3.15 2.16 12.3 11.36 14.84 8.79"/><polygon points="3.12 22.79 14.81 16.13 14.84 16.13 12.3 13.58 3.12 22.79"/><path d="M30.08,3H31a1.45,1.45,0,0,0,1-.32,1.29,1.29,0,0,0,.28-.38.9.9,0,0,0,.09-.46A1,1,0,0,0,32,1.06,1.45,1.45,0,0,0,31,.76a1.52,1.52,0,0,0-1,.3,1.14,1.14,0,0,0-.41.81h-.78A1.82,1.82,0,0,1,29.5.49,2.38,2.38,0,0,1,31,0a2.24,2.24,0,0,1,1.49.5,1.53,1.53,0,0,1,.58,1.24,1.52,1.52,0,0,1-.34,1,1.41,1.41,0,0,1-.86.55h0A1.54,1.54,0,0,1,33,3.77a1.59,1.59,0,0,1,.37,1.11,1.68,1.68,0,0,1-.65,1.35,2.41,2.41,0,0,1-1.61.55,2.59,2.59,0,0,1-1.69-.45A1.72,1.72,0,0,1,28.68,5h.78a1.08,1.08,0,0,0,.48.83,1.86,1.86,0,0,0,1,.3,1.57,1.57,0,0,0,1.06-.34,1.05,1.05,0,0,0,.41-.89A1.07,1.07,0,0,0,32.07,4,1.67,1.67,0,0,0,31,3.71H30.1Z"/><path d="M37.31,2.17a2.24,2.24,0,0,0-2.64,0,1.39,1.39,0,0,0-.54,1.06h.75A1,1,0,0,1,35,2.89a.84.84,0,0,1,.23-.23,1.2,1.2,0,0,1,.71-.2,1.23,1.23,0,0,1,.81.24.89.89,0,0,1,.29.7v.39l-1.35.08a2.33,2.33,0,0,0-1.33.42,1.19,1.19,0,0,0-.47,1,1.31,1.31,0,0,0,.45,1,1.68,1.68,0,0,0,1.18.38,1.74,1.74,0,0,0,.94-.24,1.59,1.59,0,0,0,.62-.64v.84h.73V3.3A1.42,1.42,0,0,0,37.31,2.17Zm-.25,2.65a1.19,1.19,0,0,1-.38.87,1.44,1.44,0,0,1-1,.34h0a1.12,1.12,0,0,1-.69-.2.63.63,0,0,1-.27-.54c0-.48.32-.78,1-.78l1.26-.09Z"/><path d="M42.28,4.45a1.21,1.21,0,0,0-.73-.38.85.85,0,0,0,.56-.36A1.14,1.14,0,0,0,42.34,3,1.2,1.2,0,0,0,42,2.11a1.58,1.58,0,0,0-1.05-.3H38.79V6.67H40.9a1.77,1.77,0,0,0,1.21-.4,1.25,1.25,0,0,0,.44-1.06A1.14,1.14,0,0,0,42.28,4.45Zm-2.68-2h1.18c.52,0,.78.21.78.68s-.31.69-.91.69h-1ZM40.9,6H39.6V4.52l1.15,0c.71,0,1,.27,1,.78S41.5,6,40.9,6Z"/><path d="M46.58,2.17a2,2,0,0,0-1.36-.44,2,2,0,0,0-1.28.42,1.33,1.33,0,0,0-.53,1.06h.74a1,1,0,0,1,.12-.32,1.31,1.31,0,0,1,.24-.23A1.41,1.41,0,0,1,46,2.7a.86.86,0,0,1,.29.7v.39L45,3.87a2.36,2.36,0,0,0-1.34.42,1.2,1.2,0,0,0-.46,1,1.34,1.34,0,0,0,.45,1,1.66,1.66,0,0,0,1.13.37h0a1.74,1.74,0,0,0,.94-.24,1.53,1.53,0,0,0,.62-.64v.84h.74V3.3A1.39,1.39,0,0,0,46.58,2.17Zm-.31,2.64a1.19,1.19,0,0,1-.38.87,1.4,1.4,0,0,1-1,.35h0a1.18,1.18,0,0,1-.73-.21A.65.65,0,0,1,44,5.29c0-.48.32-.78,1-.78l1.26-.09Z"/><polygon points="51.27 4.46 48.87 4.46 48.87 6.67 48.1 6.67 48.1 1.81 48.87 1.81 48.87 3.82 51.31 3.82 51.31 1.81 52.07 1.81 52.07 6.67 51.31 6.67 51.31 4.46 51.27 4.46"/><polygon points="56.54 2.44 55.06 2.44 55.06 6.66 54.3 6.66 54.3 2.44 52.74 2.44 52.74 1.81 56.63 1.81 56.54 2.44"/><path d="M60.35,2.17A2,2,0,0,0,59,1.73a2,2,0,0,0-1.28.42,1.41,1.41,0,0,0-.55,1.06h.75a1,1,0,0,1,.13-.32.84.84,0,0,1,.23-.23,1.2,1.2,0,0,1,.71-.2,1.23,1.23,0,0,1,.81.24.89.89,0,0,1,.29.7v.39l-1.35.08a2.33,2.33,0,0,0-1.33.42,1.19,1.19,0,0,0-.47,1,1.33,1.33,0,0,0,.44,1,1.73,1.73,0,0,0,1.11.37h.08a1.74,1.74,0,0,0,.94-.24,1.59,1.59,0,0,0,.62-.64v.84h.73V3.3A1.42,1.42,0,0,0,60.35,2.17ZM60,4.81a1.12,1.12,0,0,1-.38.87,1.42,1.42,0,0,1-1,.34l.11,0h-.12a0,0,0,0,0,0,0,1.19,1.19,0,0,1-.61-.19.63.63,0,0,1-.27-.54c0-.48.32-.78,1-.78L60,4.42Z"/><polygon points="68.08 6.7 67.16 6.7 65.16 4.32 65.16 4.32 65.16 6.67 64.4 6.67 64.4 4.32 64.4 4.32 62.4 6.67 61.41 6.67 63.59 4.12 61.48 1.81 62.43 1.81 64.37 3.97 64.37 3.97 64.37 1.86 65.16 1.86 65.16 3.97 65.16 3.97 67.09 1.86 68.05 1.86 65.94 4.16 68.08 6.7"/><polygon points="68.69 6.7 68.69 1.81 69.45 1.81 69.45 5.46 69.45 5.46 71.92 1.81 72.68 1.81 72.68 6.67 71.92 6.67 71.92 3.02 71.92 3.02 69.53 6.67 68.69 6.7"/><polygon points="77.28 2.48 75.79 2.48 75.79 6.7 75.03 6.7 75.03 2.48 73.47 2.48 73.47 1.81 77.36 1.81 77.28 2.48"/><polygon points="77.96 6.7 77.96 1.81 78.72 1.81 78.72 5.46 78.72 5.46 81.3 1.81 82.04 1.81 82.04 6.67 81.3 6.67 81.3 3.02 81.3 3.02 78.79 6.67 77.96 6.7"/><path d="M86.73,6.79a2.26,2.26,0,0,1-1.29-.37,1.25,1.25,0,0,1-.58-1h.78a1.39,1.39,0,0,0,.12.28A.9.9,0,0,0,86,6a1.4,1.4,0,0,0,.74.18,1.27,1.27,0,0,0,.82-.23.92.92,0,0,0,.22-.26.69.69,0,0,0,.13-.36q0-.81-1.05-.81h-.73V3.82h.73c.63,0,.94-.24.94-.73a.63.63,0,0,0-.22-.51,1,1,0,0,0-.7-.2,1.28,1.28,0,0,0-.71.18.62.62,0,0,0-.32.46h-.76a1.42,1.42,0,0,1,.12-.54,1.52,1.52,0,0,1,.39-.37,2.18,2.18,0,0,1,1.24-.35,1.9,1.9,0,0,1,1.24.35,1.19,1.19,0,0,1,.44,1,1.09,1.09,0,0,1-.23.67,1,1,0,0,1-.58.39h0a1.06,1.06,0,0,1,1,1.13v0a1.34,1.34,0,0,1-.51,1,2.12,2.12,0,0,1-1.35.42Z"/><path d="M51.15,15a3.45,3.45,0,1,0,3.55,3.45A3.45,3.45,0,0,0,51.15,15Zm0,5.54a2.09,2.09,0,1,1,2-2.09A2,2,0,0,1,51.15,20.55ZM43.43,15A3.45,3.45,0,1,0,47,18.46,3.44,3.44,0,0,0,43.43,15Zm0,5.54a2.09,2.09,0,1,1,2-2.09A2,2,0,0,1,43.43,20.55Zm-9.19-4.48v1.46h3.58A3,3,0,0,1,37,19.37a3.73,3.73,0,0,1-2.77,1.07,3.89,3.89,0,1,1,2.7-6.73l1.05-1a5.28,5.28,0,0,0-3.75-1.47,5.49,5.49,0,0,0-5.56,5.35,5.49,5.49,0,0,0,5.56,5.35,5.06,5.06,0,0,0,3.82-1.5A4.75,4.75,0,0,0,39.36,17a4.89,4.89,0,0,0-.08-.91ZM71.82,17.2a3.26,3.26,0,0,0-3-2.19,3.31,3.31,0,0,0-3.33,3.45A3.41,3.41,0,0,0,69,21.9a3.51,3.51,0,0,0,2.94-1.52l-1.2-.79a2,2,0,0,1-1.74,1,1.8,1.8,0,0,1-1.71-1.05L72,17.6ZM67,18.35a1.91,1.91,0,0,1,1.84-2,1.36,1.36,0,0,1,1.31.73Zm-3.83,3.34h1.55V11.57H63.18Zm-2.55-5.91h-.05A2.48,2.48,0,0,0,58.73,15a3.45,3.45,0,0,0,0,6.89,2.41,2.41,0,0,0,1.85-.78h.05v.5a1.78,1.78,0,0,1-1.88,2A2,2,0,0,1,57,22.41L55.62,23a3.36,3.36,0,0,0,3.13,2c1.82,0,3.36-1.05,3.36-3.59V15.22H60.63v.56Zm-1.77,4.77a2.09,2.09,0,0,1,0-4.18,2,2,0,0,1,1.88,2.1A2,2,0,0,1,58.86,20.55Zm20.22-9H75.37V21.69h1.55V17.86h2.16a3.26,3.26,0,0,0,3.41-3.15A3.26,3.26,0,0,0,79.08,11.57Zm0,4.88h-2.2V13h2.2a1.77,1.77,0,0,1,1.82,1.73A1.79,1.79,0,0,1,79.12,16.45ZM88.69,15a2.91,2.91,0,0,0-2.76,1.55l1.37.56a1.69,1.69,0,0,1,3,.56v.11a3.44,3.44,0,0,0-1.61-.39c-1.48,0-3,.79-3,2.28a2.37,2.37,0,0,0,2.57,2.23,2.2,2.2,0,0,0,2-1h0v.78h1.5V17.79C91.84,16,90.46,15,88.69,15Zm-.19,5.55c-.51,0-1.21-.24-1.21-.85,0-.79.88-1.09,1.64-1.09a2.84,2.84,0,0,1,1.41.34A1.85,1.85,0,0,1,88.5,20.54Zm8.78-5.33-1.78,4.4h0l-1.84-4.4H91.94l2.76,6.14-1.57,3.42h1.61L99,15.21ZM83.34,21.69h1.55V11.57H83.34Z"/></svg>