<svg xmlns="http://www.w3.org/2000/svg" xmlns:xlink="http://www.w3.org/1999/xlink" width="199.85" height="90.57" viewBox="0 0 199.85 90.57"><defs><linearGradient id="a" x1="109.78" y1="44.77" x2="187" y2="44.77" gradientTransform="matrix(1, 0, 0, -1, 0, 90)" gradientUnits="userSpaceOnUse"><stop offset="0.1" stop-color="#fdc56d"/><stop offset="0.85" stop-color="#f9a25d"/></linearGradient><linearGradient id="b" x1="0.05" y1="45.81" x2="199.9" y2="45.81" gradientTransform="matrix(1, 0, 0, -1, 0, 90)" gradientUnits="userSpaceOnUse"><stop offset="0" stop-color="#43aae0"/><stop offset="1" stop-color="#3ec7f4"/></linearGradient></defs><title>borispol-logo</title><path d="M131.12,69c-.18,1.29-.29,2.6-.43,3.9s-.28,2.48-.42,3.71-.26,2.48-.39,3.72c-.07.62-.14,1.24-.23,1.85,0,.09-.15.17-.24.24s-.12,0-.18,0H112.61a2.78,2.78,0,0,1-2.78-2.22,5.32,5.32,0,0,1,0-1.5c.12-1.31.28-2.62.42-3.93s.33-2.91.49-4.37.32-2.82.45-4.23c0-.34.16-.39.46-.39h16.76A2.6,2.6,0,0,1,131.12,69Zm55.79-56.06a2.39,2.39,0,0,0-2.51-1.83h-17a.3.3,0,0,0-.34.3c-.05.51-.1,1-.16,1.53l-.32,3c-.14,1.24-.28,2.48-.41,3.72s-.29,2.55-.41,3.83a7.56,7.56,0,0,0-.05,1.93,2.8,2.8,0,0,0,2.89,2.32h16.55c.29,0,.4-.1.42-.36s.06-.61.1-.91l.39-3.72c.16-1.46.33-2.91.49-4.37.14-1.3.3-2.6.42-3.9a5.18,5.18,0,0,0-.06-1.55ZM155.52,77.62H141.91c-.39,0-.47.16-.5.49-.07.78-.16,1.56-.25,2.33q-.2,1.82-.41,3.64c-.14,1.2-.24,2.41-.42,3.6a2.24,2.24,0,0,0,2.2,2.84h13.42c.3,0,.39-.13.42-.42.1-1,.22-2,.33-3l.4-3.53c.13-1.19.23-2.38.41-3.57a2,2,0,0,0-2-2.38ZM141.94,12.91h13.42c.3,0,.39-.12.42-.41.09-1,.21-2,.32-3,.13-1.19.28-2.38.41-3.57s.23-2.38.4-3.57a2,2,0,0,0-2-2.41H141.38c-.39,0-.47.16-.5.49-.07.78-.16,1.56-.25,2.33q-.2,1.82-.41,3.64c-.14,1.2-.24,2.41-.42,3.6a2.24,2.24,0,0,0,2.14,2.9Zm2.22,16.45h9.74c.23,0,.32-.08.34-.31.11-1,.24-2,.35-3,.16-1.42.29-2.84.47-4.26.15-1.25-.4-1.9-1.67-1.9H143.8c-.16,0-.36-.06-.39.21a12.39,12.39,0,0,1-.15,1.35c-.14,1.2-.28,2.4-.41,3.6-.09.87-.21,1.75-.26,2.63a1.52,1.52,0,0,0,1.4,1.63Zm.13,41.49h9.59c.25,0,.34-.08.36-.33.13-1.24.28-2.48.42-3.71s.24-2.38.41-3.57a1.45,1.45,0,0,0-1.51-1.81h-9.78c-.16,0-.35,0-.38.22-.12,1.07-.24,2.14-.37,3.2-.14,1.25-.26,2.5-.43,3.75s.46,2.25,1.69,2.25Z" transform="translate(-0.05 0.05)" style="fill:url(#a)"/><path d="M114.4,36.92a6.1,6.1,0,0,0-6.05-1.86,8.56,8.56,0,0,0-4.23,2.25l-.81.73a.79.79,0,0,1,.06-.42,12.27,12.27,0,0,0,.1-1.28A1.47,1.47,0,0,0,102.38,35a2.31,2.31,0,0,0-2,.37,2.83,2.83,0,0,0-1.1,1.81c-.5,2.42-1,4.84-1.47,7.25C97,48.28,96.23,52.16,95.47,56a24.65,24.65,0,0,0-.39,2.86,1.09,1.09,0,0,0,.81,1.25,2.38,2.38,0,0,0,2.74-.88,4.21,4.21,0,0,0,.64-1.39c.45-2,.85-4.07,1.27-6.1.09-.46.19-.91.29-1.39l.12.08.37.55a5.16,5.16,0,0,0,3,2.25,7.51,7.51,0,0,0,3.13,0A8.93,8.93,0,0,0,113,49.87a13.42,13.42,0,0,0,2.82-9.28A6,6,0,0,0,114.4,36.92Zm-5.25,11.34a4.61,4.61,0,0,1-3.3,1.74,3.34,3.34,0,0,1-3.61-2.67,10.65,10.65,0,0,1-.19-1.27,10,10,0,0,1,1.82-5.64A5.34,5.34,0,0,1,107,38.34a3.25,3.25,0,0,1,4.19,3A9,9,0,0,1,109.15,48.26Zm73.2-12.88a9.21,9.21,0,0,0-4.48-.45,9.56,9.56,0,0,0-5.19,2,11.89,11.89,0,0,0-4.4,10.85A5.69,5.69,0,0,0,172.81,53a11.52,11.52,0,0,0,5.95,0,9.52,9.52,0,0,0,4.57-2.52,4.08,4.08,0,0,0,1.18-1.92,1,1,0,0,0-.86-1.36,1.75,1.75,0,0,0-1.52.34c-.59.46-1.18.92-1.78,1.36a7,7,0,0,1-3.72,1.51A3.46,3.46,0,0,1,172.85,48a5.77,5.77,0,0,1-.14-2.54c0-.26.19-.29.41-.29h8.42A14.74,14.74,0,0,0,183.4,45a2.69,2.69,0,0,0,2.54-2.36,7,7,0,0,0,.16-2.36A5.71,5.71,0,0,0,182.35,35.38Zm-.67,7c0,.26-.12.36-.39.34h-8A5.69,5.69,0,0,1,177.75,38a3.28,3.28,0,0,1,3.31,1.11,3.45,3.45,0,0,1,.65,1.92c0,.46,0,.92,0,1.37Zm-103.9-5.3q-1.16,2.31-2.46,4.55-3.95,6.86-7.95,13.69a21.61,21.61,0,0,1-1.75,2.54A6.26,6.26,0,0,1,61,60.21,11.44,11.44,0,0,1,57.74,60c-.89-.18-1.3-.59-1.36-1.27a1.94,1.94,0,0,1,1.67-2,4.47,4.47,0,0,1,1.27.06,2.81,2.81,0,0,0,3.13-1.15C63,54.86,63.51,54,64,53.24a.74.74,0,0,0,.07-.49q-.81-4.21-1.64-8.41c-.4-2-.81-4.07-1.2-6.11a2.71,2.71,0,0,1,2.41-3.33,1.35,1.35,0,0,1,1.62.89,13.12,13.12,0,0,1,.45,2c.28,1.85.53,3.7.8,5.55l.69,4.86a.85.85,0,0,0,.1.43c.14-.23.22-.36.29-.5l5.8-10.56a17.65,17.65,0,0,1,1.23-1.91,1.9,1.9,0,0,1,2-.73,1.47,1.47,0,0,1,1.16,2.15ZM38.22,35.27A10.37,10.37,0,0,0,33.79,35a10.07,10.07,0,0,0-5.56,2.53,11.72,11.72,0,0,0-3.84,10.15,5.94,5.94,0,0,0,3,4.72,7.87,7.87,0,0,0,4.29,1h.66l.66-.06a10.1,10.1,0,0,0,6.32-3,11.77,11.77,0,0,0,3.49-9.47A6.16,6.16,0,0,0,38.22,35.27ZM35.51,49a4.57,4.57,0,0,1-3.86,1.1,3.22,3.22,0,0,1-2.76-3,9.66,9.66,0,0,0-.1-1,9.83,9.83,0,0,1,2.13-6,4.78,4.78,0,0,1,4.59-1.73A3,3,0,0,1,38.15,41,8.66,8.66,0,0,1,35.51,49Zm129.86-9.1c-.63,3.68-1.37,7.35-2.1,11a4.23,4.23,0,0,1-.68,1.52,2.4,2.4,0,0,1-2.38,1,1.58,1.58,0,0,1-1.42-1.69,19.59,19.59,0,0,1,.38-2.53c.44-2.27.93-4.52,1.34-6.79a9.12,9.12,0,0,0,.09-2.19,1.89,1.89,0,0,0-1.92-1.86h-.08a5,5,0,0,0-4.95,3.48c-.47,1.51-.78,3.08-1.12,4.63s-.59,3-.9,4.42a3.31,3.31,0,0,1-1.17,2,2.55,2.55,0,0,1-2,.53,1.55,1.55,0,0,1-1.35-1.59,15.53,15.53,0,0,1,.31-2.32q1.14-5.82,2.33-11.64a7.53,7.53,0,0,1,.52-1.67,2.3,2.3,0,0,1,2-1.33A1.7,1.7,0,0,1,154.06,37c-.05.28-.09.56-.13.84H154l.77-.72A8.37,8.37,0,0,1,159.21,35a6.89,6.89,0,0,1,3.64.34,4.1,4.1,0,0,1,2.52,4.54ZM93.69,37.19a2.25,2.25,0,0,1-.39,3.16l0,0A2.09,2.09,0,0,1,90.33,40L90.27,40a5.47,5.47,0,0,1-.45-.67,3,3,0,0,0-3-1.56,4.14,4.14,0,0,0-2.25.68,2,2,0,0,0-.87,1.18,1.12,1.12,0,0,0,.47,1.32,8.09,8.09,0,0,0,1.72.8c1.34.43,2.71.76,4,1.2a7.68,7.68,0,0,1,1.74.86,3.43,3.43,0,0,1,1.57,4.18,7,7,0,0,1-5.28,5,12.81,12.81,0,0,1-3.7.45,9.43,9.43,0,0,1-3.95-.67,4.83,4.83,0,0,1-2.06-1.5,3.27,3.27,0,0,1-.66-2.69,2.24,2.24,0,0,1,2.66-1.71,1.38,1.38,0,0,1,.68.49,4.77,4.77,0,0,1,.48,1,3.38,3.38,0,0,0,3.17,2.21,5.1,5.1,0,0,0,3-.57,2.22,2.22,0,0,0,1.28-1.88A1.42,1.42,0,0,0,88,46.6c-.95-.39-1.93-.7-2.89-1s-2.14-.7-3.18-1.12a5,5,0,0,1-1.3-.82,3.42,3.42,0,0,1-1-4,6.13,6.13,0,0,1,2.64-3.29A9.09,9.09,0,0,1,86.59,35a11.35,11.35,0,0,1,4.91.6A4.47,4.47,0,0,1,93.69,37.19ZM194.13,47.74a7.73,7.73,0,0,0-.1,1c-.06,1,.48,1.34,1.45,1.25.62-.06,1.23-.17,1.85-.25a1.17,1.17,0,0,1,1.22,1.52,2.35,2.35,0,0,1-1.26,1.5,6.5,6.5,0,0,1-2.69.67,9.44,9.44,0,0,1-3.14-.19,2.65,2.65,0,0,1-2.09-2.7,21.66,21.66,0,0,1,.62-4.46c.47-2.37,1-4.74,1.43-7.12v-.4a9.23,9.23,0,0,1-1.2-.09,1.24,1.24,0,0,1-1-1.82,2.17,2.17,0,0,1,2-1.32c.87,0,.86,0,1-.91.23-1.15.46-2.3.74-3.44a2.75,2.75,0,0,1,2-2.21,1.77,1.77,0,0,1,2.36,2.06c-.28,1.4-.52,2.81-.77,4.22v.26h1.88a1.34,1.34,0,0,1,1.36.75,1.57,1.57,0,0,1-.36,1.7,2.19,2.19,0,0,1-1.48.65,14,14,0,0,1-1.68.08c-.29,0-.42.09-.47.37C195.3,41.82,194.71,44.78,194.13,47.74ZM18.92,28.86a15.4,15.4,0,0,0-3.27-.37c-2.51,0-5,0-7.54,0a14.29,14.29,0,0,0-1.54.07,2.71,2.71,0,0,0-2.31,1.58,5.45,5.45,0,0,0-.41,1.17c-.36,1.72-.7,3.45-1,5.17-.8,4-1.61,8-2.39,12a10.86,10.86,0,0,0-.41,3,1.45,1.45,0,0,0,1.14,1.44A6,6,0,0,0,2.6,53H9.88a22.3,22.3,0,0,0,4.39-.33A8.39,8.39,0,0,0,21,46.84a6,6,0,0,0,.22-3.33A4.72,4.72,0,0,0,18,40.24l-.4-.18s0-.08.07-.09l.82-.42a7.07,7.07,0,0,0,3.88-5.3A4.65,4.65,0,0,0,18.92,28.86Zm-2.6,16.76a4.3,4.3,0,0,1-3.9,3.58,17.86,17.86,0,0,1-2.26.15h-5l.6-3c.26-1.3.53-2.61.78-3.91,0-.25.15-.34.41-.34h5.58a7.79,7.79,0,0,1,2,.32,2.44,2.44,0,0,1,1.84,3.2Zm1.1-10.5a3.82,3.82,0,0,1-3.56,3.32c-2.12.15-4.26.12-6.38.16h-.2c.17-.88.33-1.73.5-2.58.24-1.17.49-2.34.71-3.52,0-.26.16-.31.39-.31h4.89a9.62,9.62,0,0,1,2.34.41C17.47,33,17.62,33.93,17.42,35.12Zm118.43-4.89c-.12.64-.3,1.56-.48,2.48L133,44.29c-.44,2.2-.87,4.41-1.33,6.61a3,3,0,0,1-1.79,2.35,2,2,0,0,1-2.09-.17,1.9,1.9,0,0,1-.59-2c.62-3.23,1.27-6.45,1.91-9.67L131.26,31a3.88,3.88,0,0,1,1.09-2.23,2.46,2.46,0,0,1,2.22-.58c.84.1,1.28.76,1.27,2Zm-78.47,9c-.66-.13-1.3-.36-2-.46a2.88,2.88,0,0,0-2.76,1.11A8.23,8.23,0,0,0,51,43.3c-.54,2.22-1,4.46-1.49,6.68a11.33,11.33,0,0,1-.45,1.7,2.65,2.65,0,0,1-2.66,1.76A1.57,1.57,0,0,1,44.89,52a8.6,8.6,0,0,1,.33-2.61q1.11-5.64,2.26-11.28a7.59,7.59,0,0,1,.64-1.86A2.37,2.37,0,0,1,50.9,35a1.26,1.26,0,0,1,1,1.17v1.27c.59-.51,1.19-1,1.78-1.55a4.69,4.69,0,0,1,5.69,0A1.57,1.57,0,0,1,60,37.72a2.31,2.31,0,0,1-1.62,1.56,2.1,2.1,0,0,1-1,0Zm67.82-2.14c-.15.77-.35,1.82-.56,2.87q-1.05,5.26-2.11,10.52a3.8,3.8,0,0,1-1.17,2.31,2.54,2.54,0,0,1-2.05.6A1.54,1.54,0,0,1,118,51.83a15.58,15.58,0,0,1,.31-2.32q1.14-5.82,2.33-11.63a6.42,6.42,0,0,1,.58-1.69,2.5,2.5,0,0,1,2.49-1.29c1,.19,1.55.84,1.49,2.22Zm16.36,12a2,2,0,0,1,.39,1.83,3,3,0,0,1-3,2.44,1.88,1.88,0,0,1-2.05-1.69s0-.09,0-.14a3.22,3.22,0,0,1,2.41-3,2.12,2.12,0,0,1,2.26.69Zm-15-19.23a2.7,2.7,0,0,1-3.24,2.66,1.66,1.66,0,0,1-1.24-2.23,2.82,2.82,0,0,1,3.18-2,1.56,1.56,0,0,1,1.32,1.65Z" transform="translate(-0.05 0.05)" style="fill:url(#b)"/></svg>