<svg xmlns="http://www.w3.org/2000/svg" xmlns:xlink="http://www.w3.org/1999/xlink" width="200" height="90.53" viewBox="0 0 200 90.53"><defs><linearGradient id="a" x1="109.77" y1="45.27" x2="186.98" y2="45.27" gradientUnits="userSpaceOnUse"><stop offset="0.1" stop-color="#fdc56d"/><stop offset="0.85" stop-color="#f9a25d"/></linearGradient><linearGradient id="b" y1="44.18" x2="200" y2="44.18" gradientUnits="userSpaceOnUse"><stop offset="0" stop-color="#43aae0"/><stop offset="1" stop-color="#3ec7f4"/></linearGradient><linearGradient id="c" x1="7.74" y1="18.14" x2="137.77" y2="18.14" xlink:href="#b"/></defs><title>borispol-logo</title><path d="M131.12,69c-.18,1.29-.29,2.6-.43,3.9s-.28,2.48-.42,3.71-.26,2.48-.39,3.72c-.07.62-.14,1.24-.23,1.85,0,.09-.15.17-.24.24s-.12,0-.18,0H112.61a2.78,2.78,0,0,1-2.78-2.22,5.32,5.32,0,0,1,0-1.5c.12-1.31.28-2.62.42-3.93s.33-2.91.49-4.37.32-2.82.45-4.23c0-.34.16-.39.46-.39h8.6c2.72,0,5.44,0,8.16,0A2.6,2.6,0,0,1,131.12,69Zm55.79-56.06a2.39,2.39,0,0,0-2.51-1.83h-17a.3.3,0,0,0-.34.3c-.05.51-.1,1-.16,1.53q-.16,1.51-.32,3c-.14,1.24-.28,2.48-.41,3.72s-.29,2.55-.41,3.83a7.56,7.56,0,0,0-.05,1.93,2.8,2.8,0,0,0,2.89,2.32h16.55c.29.05.4-.1.42-.36s.06-.61.1-.91c.13-1.24.26-2.48.39-3.72.16-1.46.33-2.91.49-4.37.14-1.3.3-2.6.42-3.9A5.18,5.18,0,0,0,186.91,12.93ZM155.52,77.62h-6.77c-2.28,0-4.56,0-6.84,0-.39,0-.47.16-.5.49-.07.78-.16,1.56-.25,2.33q-.2,1.82-.41,3.64c-.14,1.2-.24,2.41-.42,3.6a2.24,2.24,0,0,0,2.2,2.84c4.47,0,8.95,0,13.42,0,.3,0,.39-.13.42-.42.1-1,.22-2,.33-3l.4-3.53c.13-1.19.23-2.38.41-3.57A2,2,0,0,0,155.52,77.62ZM141.94,12.91c4.47,0,8.95,0,13.42,0,.3,0,.39-.12.42-.41.09-1,.21-2,.32-3,.13-1.19.28-2.38.41-3.57s.23-2.38.4-3.57a2,2,0,0,0-2-2.41h-6.69c-2.28,0-4.56,0-6.84,0-.39,0-.47.16-.5.49-.07.78-.16,1.56-.25,2.33q-.2,1.82-.41,3.64c-.14,1.2-.24,2.41-.42,3.6A2.24,2.24,0,0,0,141.94,12.91Zm2.22,16.45h9.74c.23,0,.32-.08.34-.31.11-1,.24-2,.35-2.95.16-1.42.29-2.84.47-4.26.15-1.25-.4-1.9-1.67-1.9h-9.59c-.16,0-.36-.06-.39.21,0,.45-.1.9-.15,1.35-.14,1.2-.28,2.4-.41,3.6-.09.87-.21,1.75-.26,2.63A1.52,1.52,0,0,0,144.16,29.36Zm.13,41.49h9.59c.25,0,.34-.08.36-.33.13-1.24.28-2.48.42-3.71s.24-2.38.41-3.57a1.45,1.45,0,0,0-1.51-1.81h-9.78c-.16,0-.35-.05-.38.22-.12,1.07-.24,2.14-.37,3.2-.14,1.25-.26,2.5-.43,3.75S143.06,70.85,144.29,70.85Z" transform="translate(0)" style="fill:url(#a)"/><path d="M114.4,36.92a6.1,6.1,0,0,0-6.05-1.86,8.56,8.56,0,0,0-4.23,2.25l-.81.73c0-.21,0-.32.06-.42a12.27,12.27,0,0,0,.1-1.28A1.47,1.47,0,0,0,102.38,35a2.31,2.31,0,0,0-2,.37,2.83,2.83,0,0,0-1.1,1.81c-.5,2.42-1,4.84-1.47,7.25C97,48.28,96.23,52.16,95.47,56a24.65,24.65,0,0,0-.39,2.86,1.09,1.09,0,0,0,.81,1.25,2.38,2.38,0,0,0,2.74-.88,4.21,4.21,0,0,0,.64-1.39c.45-2,.85-4.07,1.27-6.1.09-.46.19-.91.29-1.39l.12.08.37.55a5.16,5.16,0,0,0,3,2.25,7.51,7.51,0,0,0,3.13.05A8.93,8.93,0,0,0,113,49.87a13.42,13.42,0,0,0,2.82-9.28A6,6,0,0,0,114.4,36.92Zm-5.25,11.34A4.61,4.61,0,0,1,105.85,50a3.34,3.34,0,0,1-3.61-2.67,10.65,10.65,0,0,1-.19-1.27,10,10,0,0,1,1.82-5.64A5.34,5.34,0,0,1,107,38.34a3.25,3.25,0,0,1,4.19,3A9,9,0,0,1,109.15,48.26Zm73.2-12.88a9.21,9.21,0,0,0-4.48-.45,9.56,9.56,0,0,0-5.19,2,11.89,11.89,0,0,0-4.4,10.85,5.69,5.69,0,0,0,4.53,5.25,11.52,11.52,0,0,0,5.95,0,9.52,9.52,0,0,0,4.57-2.52,4.08,4.08,0,0,0,1.18-1.92,1,1,0,0,0-.86-1.36,1.75,1.75,0,0,0-1.52.34c-.59.46-1.18.92-1.78,1.36a7,7,0,0,1-3.72,1.51,3.46,3.46,0,0,1-3.78-2.41,5.77,5.77,0,0,1-.14-2.54c0-.26.19-.29.41-.29h4.49c1.31,0,2.62,0,3.93,0a14.74,14.74,0,0,0,1.86-.15,2.69,2.69,0,0,0,2.54-2.36,7,7,0,0,0,.16-2.36A5.71,5.71,0,0,0,182.35,35.38Zm-.67,7c0,.26-.12.36-.39.34-.43,0-.86,0-1.29,0h-6.67A5.69,5.69,0,0,1,177.75,38a3.28,3.28,0,0,1,3.31,1.11,3.45,3.45,0,0,1,.65,1.92C181.74,41.49,181.69,41.95,181.68,42.4ZM77.78,37.08q-1.16,2.31-2.46,4.55-3.95,6.86-7.95,13.69a21.61,21.61,0,0,1-1.75,2.54A6.26,6.26,0,0,1,61,60.21,11.44,11.44,0,0,1,57.74,60c-.89-.18-1.3-.59-1.36-1.27a1.94,1.94,0,0,1,1.67-2,4.47,4.47,0,0,1,1.27.06,2.81,2.81,0,0,0,3.13-1.15C63,54.86,63.51,54,64,53.24a.74.74,0,0,0,.07-.49q-.81-4.21-1.64-8.41c-.4-2-.81-4.07-1.2-6.11a2.71,2.71,0,0,1,2.41-3.33,1.35,1.35,0,0,1,1.62.89,13.12,13.12,0,0,1,.45,2c.28,1.85.53,3.7.8,5.55l.69,4.86c0,.11,0,.22.1.43.14-.23.22-.36.29-.5,1.93-3.52,3.85-7,5.8-10.56a17.65,17.65,0,0,1,1.23-1.91,1.9,1.9,0,0,1,2-.73A1.47,1.47,0,0,1,77.78,37.08ZM38.22,35.27A10.37,10.37,0,0,0,33.79,35a10.07,10.07,0,0,0-5.56,2.53,11.72,11.72,0,0,0-3.84,10.15,5.94,5.94,0,0,0,3,4.72,7.87,7.87,0,0,0,4.29,1h.66l.66-.06a10.1,10.1,0,0,0,6.32-3,11.77,11.77,0,0,0,3.49-9.47A6.16,6.16,0,0,0,38.22,35.27ZM35.51,49a4.57,4.57,0,0,1-3.86,1.1,3.22,3.22,0,0,1-2.76-3c0-.35-.07-.7-.1-1a9.83,9.83,0,0,1,2.13-6,4.78,4.78,0,0,1,4.59-1.73,3,3,0,0,1,2.64,2.59A8.66,8.66,0,0,1,35.51,49Zm129.86-9.1c-.63,3.68-1.37,7.35-2.1,11a4.23,4.23,0,0,1-.68,1.52,2.4,2.4,0,0,1-2.38,1,1.58,1.58,0,0,1-1.42-1.69,19.59,19.59,0,0,1,.38-2.53c.44-2.27.93-4.52,1.34-6.79a9.12,9.12,0,0,0,.09-2.19,1.89,1.89,0,0,0-2-1.86,5,5,0,0,0-4.95,3.48c-.47,1.51-.78,3.08-1.12,4.63s-.59,2.95-.9,4.42a3.31,3.31,0,0,1-1.17,2,2.55,2.55,0,0,1-2,.53,1.55,1.55,0,0,1-1.35-1.59,15.53,15.53,0,0,1,.31-2.32q1.14-5.82,2.33-11.64a7.53,7.53,0,0,1,.52-1.67,2.3,2.3,0,0,1,2-1.33A1.7,1.7,0,0,1,154.06,37c-.05.28-.09.56-.13.84l.08,0,.77-.72A8.37,8.37,0,0,1,159.21,35a6.89,6.89,0,0,1,3.64.34A4.1,4.1,0,0,1,165.37,39.88ZM93.69,37.19a2.25,2.25,0,0,1-.42,3.18,2.09,2.09,0,0,1-3-.42,5.47,5.47,0,0,1-.45-.67,3,3,0,0,0-3-1.56,4.14,4.14,0,0,0-2.25.68,2,2,0,0,0-.87,1.18,1.12,1.12,0,0,0,.47,1.32,8.09,8.09,0,0,0,1.72.8c1.34.43,2.71.76,4,1.2a7.68,7.68,0,0,1,1.74.86,3.43,3.43,0,0,1,1.57,4.18,7,7,0,0,1-5.28,5,12.81,12.81,0,0,1-3.7.45,9.43,9.43,0,0,1-3.95-.67,4.83,4.83,0,0,1-2.06-1.5,3.27,3.27,0,0,1-.66-2.69,2.24,2.24,0,0,1,2.66-1.71,1.38,1.38,0,0,1,.68.49,4.77,4.77,0,0,1,.48,1,3.38,3.38,0,0,0,3.17,2.21,5.1,5.1,0,0,0,3-.57,2.22,2.22,0,0,0,1.28-1.88A1.42,1.42,0,0,0,88,46.6c-.95-.39-1.93-.7-2.89-1s-2.14-.7-3.18-1.12a5,5,0,0,1-1.3-.82,3.42,3.42,0,0,1-1-4,6.13,6.13,0,0,1,2.64-3.29,9.09,9.09,0,0,1,4.32-1.38,11.35,11.35,0,0,1,4.91.6A4.47,4.47,0,0,1,93.69,37.19ZM194.13,47.74a7.73,7.73,0,0,0-.1,1c-.06,1,.48,1.34,1.45,1.25.62-.06,1.23-.17,1.85-.25a1.17,1.17,0,0,1,1.22,1.52,2.35,2.35,0,0,1-1.26,1.5,6.5,6.5,0,0,1-2.69.67,9.44,9.44,0,0,1-3.14-.19,2.65,2.65,0,0,1-2.09-2.7,21.66,21.66,0,0,1,.62-4.46c.47-2.37,1-4.74,1.43-7.12,0-.12,0-.24,0-.4a9.23,9.23,0,0,1-1.2-.09,1.24,1.24,0,0,1-1-1.82,2.17,2.17,0,0,1,2-1.32c.87,0,.86,0,1-.91.23-1.15.46-2.3.74-3.44a2.75,2.75,0,0,1,2-2.21,1.77,1.77,0,0,1,2.36,2.06c-.28,1.4-.52,2.81-.77,4.22,0,.07,0,.14,0,.26l.41,0c.49,0,1,0,1.47,0a1.34,1.34,0,0,1,1.36.75,1.57,1.57,0,0,1-.36,1.7,2.19,2.19,0,0,1-1.48.65,14,14,0,0,1-1.68.08c-.29,0-.42.09-.47.37C195.3,41.82,194.71,44.78,194.13,47.74ZM18.92,28.86a15.4,15.4,0,0,0-3.27-.37c-2.51-.05-5,0-7.54,0a14.29,14.29,0,0,0-1.54.07,2.71,2.71,0,0,0-2.31,1.58,5.45,5.45,0,0,0-.41,1.17c-.36,1.72-.7,3.45-1,5.17-.8,4-1.61,8-2.39,12a10.86,10.86,0,0,0-.41,3,1.45,1.45,0,0,0,1.14,1.44A6,6,0,0,0,2.6,53C5,53,7.45,53,9.88,53a22.3,22.3,0,0,0,4.39-.33A8.39,8.39,0,0,0,21,46.84a6,6,0,0,0,.22-3.33A4.72,4.72,0,0,0,18,40.24l-.4-.18c0-.05.05-.08.07-.09l.82-.42a7.07,7.07,0,0,0,3.88-5.3A4.65,4.65,0,0,0,18.92,28.86ZM16.32,45.62a4.3,4.3,0,0,1-3.9,3.58,17.86,17.86,0,0,1-2.26.15c-1.52,0-3,0-4.56,0H5.11l.6-3c.26-1.3.53-2.61.78-3.91,0-.25.15-.34.41-.34,1.86,0,3.72,0,5.58,0a7.79,7.79,0,0,1,2,.32A2.44,2.44,0,0,1,16.32,45.62Zm1.1-10.5a3.82,3.82,0,0,1-3.56,3.32c-2.12.15-4.26.12-6.38.16a1.12,1.12,0,0,1-.2,0c.17-.88.33-1.73.5-2.58.24-1.17.49-2.34.71-3.52,0-.26.16-.31.39-.31,1.63,0,3.26,0,4.89,0a9.62,9.62,0,0,1,2.34.41C17.47,33,17.62,33.93,17.42,35.12Zm118.43-4.89c-.12.64-.3,1.56-.48,2.48L133,44.29c-.44,2.2-.87,4.41-1.33,6.61a3,3,0,0,1-1.79,2.35,2,2,0,0,1-2.09-.17,1.9,1.9,0,0,1-.59-2c.62-3.23,1.27-6.45,1.91-9.67L131.26,31a3.88,3.88,0,0,1,1.09-2.23,2.46,2.46,0,0,1,2.22-.58C135.41,28.29,135.85,28.95,135.84,30.24Zm-78.47,9c-.66-.13-1.3-.36-2-.46a2.88,2.88,0,0,0-2.76,1.11A8.23,8.23,0,0,0,51,43.3c-.54,2.22-1,4.46-1.49,6.68a11.33,11.33,0,0,1-.45,1.7,2.65,2.65,0,0,1-2.66,1.76A1.57,1.57,0,0,1,44.89,52a8.6,8.6,0,0,1,.33-2.61q1.11-5.64,2.26-11.28a7.59,7.59,0,0,1,.64-1.86,2.37,2.37,0,0,1,2.78-1.27,1.26,1.26,0,0,1,1,1.17c0,.34,0,.68,0,1,0,.09,0,.18,0,.27.59-.51,1.19-1,1.78-1.55a4.69,4.69,0,0,1,5.69,0A1.57,1.57,0,0,1,60,37.72a2.31,2.31,0,0,1-1.62,1.56A2.1,2.1,0,0,1,57.38,39.26Zm67.82-2.14c-.15.77-.35,1.82-.56,2.87q-1.05,5.26-2.11,10.52a3.8,3.8,0,0,1-1.17,2.31,2.54,2.54,0,0,1-2.05.6A1.54,1.54,0,0,1,118,51.83a15.58,15.58,0,0,1,.31-2.32q1.14-5.82,2.33-11.63a6.42,6.42,0,0,1,.58-1.69,2.5,2.5,0,0,1,2.49-1.29C124.74,35.09,125.26,35.74,125.2,37.12Zm16.36,12a2,2,0,0,1,.39,1.83,3,3,0,0,1-3,2.44,1.88,1.88,0,0,1-2.06-1.83,3.22,3.22,0,0,1,2.41-3.05A2.12,2.12,0,0,1,141.56,49.17Zm-15-19.23a2.7,2.7,0,0,1-3.24,2.66,1.66,1.66,0,0,1-1.24-2.23,2.82,2.82,0,0,1,3.18-2A1.56,1.56,0,0,1,126.58,29.94Z" transform="translate(0)" style="fill:url(#b)"/><path d="M14.17,20.79c0,.31-.06.43-.4.42q-2.83,0-5.66,0c-.3,0-.37-.09-.37-.38q0-2.45,0-4.89c0-.3.1-.4.38-.37H8.3c.33,0,.45.08.44.42,0,1.15,0,2.3,0,3.46a4,4,0,0,0,0,.62A.32.32,0,0,0,9,20.3c.46,0,.92,0,1.43,0,0-1.46,0-2.86,0-4.26,0-.47,0-.47.49-.47h.18c.28,0,.38.07.38.37,0,1.29,0,2.57,0,3.86v.47h1.68v-.42c0-1.29,0-2.57,0-3.86,0-.31.08-.47.41-.42h0c.6,0,.6,0,.6.58C14.17,17.71,14.16,19.25,14.17,20.79Zm67.73-5.2c-.59-.18-.83,0-.83.6q0,.51,0,1c0,.9,0,1.79,0,2.68,0,.32-.1.44-.42.41a5.69,5.69,0,0,0-.92,0c-.3,0-.4-.08-.4-.39,0-1.34,0-2.67,0-4,0-.25-.07-.37-.33-.34a1.85,1.85,0,0,1-.33,0c-.25,0-.36.08-.35.34s0,.44,0,.66c0,1.12,0,2.23,0,3.35,0,.15.07.38-.21.38H76.69c0-.23,0-.4,0-.57q0-1.75,0-3.49c0-.71,0-.74-.75-.66-.1,0-.25.16-.25.25,0,1.7,0,3.41,0,5.11,0,.19.06.28.25.26h5.81c.16,0,.36,0,.36-.23,0-1.72,0-3.43,0-5.15A.31.31,0,0,0,81.91,15.59Zm-13.84,0a7.3,7.3,0,0,1-.88,0c-.27,0-.39.09-.45.36-.23,1-.49,2-.74,3,0,.14-.09.28-.14.42-.31-.9-.53-1.78-.76-2.67-.09-.36-.1-.87-.34-1s-.75-.06-1.14-.08-.37.09-.37.36c0,1.64,0,3.29,0,4.93,0,.5.35.31.59.35s.36-.06.36-.34c0-1.21,0-2.43,0-3.64,0-.12,0-.24,0-.36a.88.88,0,0,1,.18.38c.29,1.2.58,2.4.85,3.6.06.29.18.41.46.37a.88.88,0,0,1,.26,0c.27,0,.39-.08.45-.34.16-.75.34-1.5.52-2.25.14-.59.29-1.18.43-1.77h.12q0,.2,0,.4,0,1.69,0,3.38c0,.58,0,.57.58.57.25,0,.35-.07.34-.33q0-2.48,0-5C68.4,15.67,68.33,15.56,68.07,15.57Zm-20.36,0a1.1,1.1,0,0,0-1.13.26L44.8,18.92c-.07.12-.15.24-.23.36l-.1,0v-.4c0-1,0-1.91,0-2.87,0-.33-.11-.45-.42-.4h-.22c-.23,0-.33.07-.33.31,0,1.68,0,3.36,0,5a.36.36,0,0,0,.09.26,1.09,1.09,0,0,0,1.12-.28l1.79-3c.06-.11.14-.21.21-.32a.74.74,0,0,1,.08.37c0,.89,0,1.79,0,2.68,0,.68-.1.6.64.61.22,0,.33,0,.33-.3,0-1.68,0-3.36,0-5A.37.37,0,0,0,47.7,15.62Zm-5.74,0a1.12,1.12,0,0,0-1.14.25l-1.77,3-.22.36-.1,0v-.4c0-1,0-2,0-2.94,0-.26-.08-.36-.34-.34h-.29c-.24,0-.35.06-.35.33,0,1.67,0,3.33,0,5a.4.4,0,0,0,.07.27A1.18,1.18,0,0,0,39,21l1.82-3.1c.06-.11.14-.21.21-.31l.08,0v.35c0,.88,0,1.76,0,2.65,0,.71-.15.63.68.65.22,0,.3-.08.3-.3,0-1.68,0-3.36,0-5A.38.38,0,0,0,42,15.62Zm-16.39,0a1.06,1.06,0,0,0-1.1.25L23,18.47l-.48.81-.11,0c0-.13,0-.26,0-.39,0-1,0-2,0-2.94,0-.27-.08-.39-.36-.36h-.29c-.2,0-.28.07-.28.28,0,1.69,0,3.38,0,5.07a.35.35,0,0,0,.09.25,1.07,1.07,0,0,0,1.12-.29l1.79-3c.06-.11.14-.21.21-.32l.1,0v.38c0,1,0,2,0,2.94,0,.26.08.37.33.33a1.32,1.32,0,0,1,.29,0c.23,0,.3-.08.3-.3,0-1.68,0-3.36,0-5A.38.38,0,0,0,25.57,15.62Zm70,0a1,1,0,0,0-1.11.31l-1.77,3-.2.32a.64.64,0,0,1-.12-.4c0-1,0-2,0-3,0-.25-.08-.37-.34-.34s-.24,0-.33,0-.25.17-.25.25c0,1.7,0,3.4,0,5.11a.33.33,0,0,0,.07.23,1.15,1.15,0,0,0,1.11-.24l1.83-3.1.19-.3.11,0V18c0,1,0,1.94,0,2.9,0,.28.08.39.36.35a1.36,1.36,0,0,1,.29,0c.21,0,.28-.08.28-.28,0-1.69,0-3.38,0-5.07A.34.34,0,0,0,95.59,15.61Zm31.41,0a3.11,3.11,0,0,0-.83,0c-.07,0-.11.31-.12.48,0,.56,0,1.12,0,1.69h-2.16a.8.8,0,0,1,0-.14c0-.47,0-.93,0-1.4,0-.74.1-.67-.7-.68-.25,0-.35.07-.34.33,0,1.67,0,3.33,0,5,0,.21,0,.31.29.31.89,0,.75.1.76-.73,0-.44,0-.88,0-1.32,0-.14,0-.28,0-.43H126c0,.6,0,1.18,0,1.75,0,.82-.16.71.79.72.2,0,.25-.09.25-.27,0-1.7,0-3.41,0-5.11C127.08,15.76,127,15.62,127,15.62ZM115.8,20.3c-.76,0-1.52,0-2.28,0-.33,0-.43-.11-.41-.42a7.3,7.3,0,0,0,0-.88c0-.24.08-.32.32-.32.61,0,1.23,0,1.84,0s.6,0,.57-.62c0-.2-.07-.28-.28-.28H114.1c-1,0-1,0-1-1,0-.28.11-.36.37-.35.75,0,1.5,0,2.24,0,.35,0,.34-.18.33-.41s0-.46-.33-.46c-1.09,0-2.18,0-3.27,0-.26,0-.34.1-.33.35,0,.82,0,1.64,0,2.46s0,1.64,0,2.46c0,.26,0,.37.34.37,1.11,0,2.23,0,3.34,0,.37,0,.35-.2.35-.44S116.2,20.29,115.8,20.3Zm16.52,0c-.5,0-1,0-1.51,0l-1.17,0c0-.41,0-.82-.06-1.23,0-.25.07-.35.33-.34.67,0,1.35,0,2,0,.37,0,.39-.18.38-.45s0-.48-.36-.46c-.66,0-1.32,0-2,0-.28,0-.41-.06-.39-.37a3.83,3.83,0,0,0,0-.66c0-.28.11-.36.37-.35.73,0,1.47,0,2.2,0,.33,0,.39-.12.38-.41s0-.47-.37-.46c-1.06,0-2.13,0-3.2,0-.32,0-.39.12-.39.41,0,.81,0,1.62,0,2.42s0,1.54,0,2.31c0,.49,0,.49.47.49h3c.61,0,.6,0,.58-.6C132.62,20.39,132.55,20.3,132.32,20.31ZM87.82,18.4q0-1.14,0-2.28c0-.55,0-.55-.56-.55h-.11c-.24,0-.33.08-.32.32,0,.54,0,1.08,0,1.62,0,.22-.07.31-.3.3-.55,0-1.1,0-1.65,0-.25,0-.31-.11-.31-.33,0-.49,0-1,0-1.47s-.12-.46-.46-.44c-.53,0-.54,0-.54.44,0,1.52,0,3,0,4.56,0,.74-.11.63.68.65.24,0,.33-.07.32-.31,0-.62,0-1.25,0-1.87,0-.23.07-.33.31-.32.54,0,1.08,0,1.62,0,.27,0,.33.11.33.35,0,.51,0,1,0,1.54,0,.69-.08.59.6.62.3,0,.41-.08.4-.39C87.8,20,87.82,19.21,87.82,18.4Zm17.59-2.83a1.33,1.33,0,0,1-.26,0c-.34,0-.49.07-.46.44s0,1,0,1.47c0,.16,0,.32-.24.32h-2c0-.65,0-1.25,0-1.85,0-.11,0-.3,0-.31a3.61,3.61,0,0,0-.82,0c-.06,0-.13.24-.13.37,0,1.52,0,3,0,4.56,0,.77-.07.66.7.68.24,0,.32-.08.32-.32,0-.62,0-1.25,0-1.87,0-.24.07-.33.31-.32q.81,0,1.62,0c.24,0,.33.09.32.32q0,.75,0,1.51c0,.76-.15.67.72.68.21,0,.27-.09.27-.29q0-2.54,0-5.07C105.69,15.65,105.6,15.56,105.4,15.58ZM34.95,18.26c.49-.31.58-.83.75-1.29a.88.88,0,0,1,.84-.7c.36,0,.18-.31.21-.48s0-.26-.24-.28a1.32,1.32,0,0,0-1.38.77c-.2.42-.36.86-.54,1.28a.58.58,0,0,1-.7.38c0-.61,0-1.2,0-1.8s0-.56-.57-.58c-.34,0-.44.11-.44.44,0,1,0,2,0,2.94,0,.62,0,1.25,0,1.87,0,.31.1.43.4.39a.8.8,0,0,1,.22,0c.31,0,.4-.08.39-.39,0-.68,0-1.37,0-2.08.4,0,.52,0,.69.36.3.6.58,1.22.87,1.82,0,.1.14.25.22.26.34,0,.69,0,1.12,0C36.15,20.17,36,19,34.95,18.26Zm75.67-2.69a3.63,3.63,0,0,1-.4,0h-2.87c-.53,0-.5,0-.54.44s.22.43.52.42.44,0,.66,0,.46.09.45.43c0,.66,0,1.32,0,2s0,1.32,0,2c0,.31.1.43.4.38a1,1,0,0,1,.26,0c.28,0,.36-.08.35-.35,0-1.1,0-2.2,0-3.31,0-.35-.1-.85.08-1s.69-.11,1-.1.52,0,.5-.44S110.95,15.54,110.62,15.57Zm26.87,0h-3.67c-.41,0-.25.3-.28.5s0,.38.3.36.64,0,1,0,.37.09.36.36c0,.67,0,1.35,0,2s0,1.37,0,2.06c0,.1,0,.29.06.3a3.48,3.48,0,0,0,.83,0c.05,0,.09-.27.09-.42q0-2,0-3.93c0-.28.08-.41.38-.39s.64,0,1,0,.29-.19.28-.39S137.87,15.57,137.49,15.58Zm-37.74,0h-.22c-.32,0-.42.08-.42.41,0,1.51,0,3,0,4.52,0,.8-.15.69.73.71.28,0,.32-.11.32-.35,0-.83,0-1.67,0-2.5s0-1.59,0-2.39C100.18,15.64,100.06,15.53,99.75,15.57Zm-9.94,0h-.18c-.34,0-.48.07-.46.44,0,.78,0,1.57,0,2.35s0,1.45,0,2.17-.13.66.68.68c.25,0,.32-.09.31-.32,0-.47,0-.93,0-1.4,0-1.19,0-2.38,0-3.56C90.17,15.66,90.08,15.54,89.81,15.57ZM93.73,15a1,1,0,0,0,.89-1.15,2,2,0,0,0-.4.34.73.73,0,0,1-1.24,0,.32.32,0,0,0-.46-.17A1.06,1.06,0,0,0,93.73,15ZM45.65,15a1,1,0,0,0,1.08-1c-.31-.07-.31-.07-.45.17a.72.72,0,0,1-1.24,0c-.12-.24-.26-.24-.46-.19A1,1,0,0,0,45.65,15ZM56,20.78c0,.46,0,.93,0,1.4s-.27.26-.46.28-.42,0-.38-.28a.25.25,0,0,0,0,0c0-.93,0-.93-.95-.93-.74,0-1.47,0-2.21,0-.27,0-.38.09-.36.36s0,.3,0,.44c.06.38-.1.49-.47.47s-.39-.08-.37-.38c0-.5,0-1,0-1.51,0-.17,0-.26.24-.29a.54.54,0,0,0,.34-.28,8.17,8.17,0,0,0,.44-2.74c0-.46,0-.93,0-1.4,0-.22.08-.3.3-.3,1,0,2.06,0,3.09,0,.29,0,.31.16.31.38q0,2,0,4c0,.1,0,.19,0,.34C55.95,20.24,56,20.47,56,20.78Zm-1.51-4.14c0-.07-.17-.19-.26-.2-.34,0-.68,0-1,0s-.38.07-.38.37c0,.61-.06,1.22-.12,1.82s-.18,1.1-.27,1.67h2.08C54.46,19.05,54.47,17.85,54.45,16.64ZM31.74,20.53c0,.56,0,1.13,0,1.69,0,.37-.28.21-.46.23s-.39.06-.37-.25a3.74,3.74,0,0,0,0-.73c0-.1-.16-.25-.24-.25q-1.51,0-3,0c-.08,0-.22.14-.23.23a3.68,3.68,0,0,0,0,.73c0,.32-.2.29-.39.27s-.45.12-.45-.25c0-.55,0-1.1,0-1.65,0-.08.14-.17.22-.24s.3-.16.32-.27a13.52,13.52,0,0,0,.39-1.86c.08-.75.07-1.51.08-2.27,0-.25.08-.34.34-.34,1,0,2,0,3,0,.28,0,.35.12.35.37,0,.67,0,1.35,0,2s0,1.3,0,1.95c0,.21,0,.43.31.41C31.63,20.32,31.74,20.46,31.74,20.53Zm-1.48-3.82c0-.2-.08-.29-.28-.28s-.69,0-1,0-.39.11-.41.4c0,.8-.1,1.61-.18,2.41a9.84,9.84,0,0,1-.23,1.07c.67,0,1.3,0,1.94,0,.06,0,.18-.16.18-.24C30.26,18.94,30.26,17.83,30.26,16.71ZM20.08,19.22a1.51,1.51,0,0,1-1.3,1.92c-1,.07-1.93.06-2.9.06a.36.36,0,0,1-.25-.25q0-2.55,0-5.11a.37.37,0,0,1,.26-.25c.91,0,1.81,0,2.72,0a1.28,1.28,0,0,1,1.18,1A1.32,1.32,0,0,1,19.38,18l-.25.22A1.54,1.54,0,0,1,20.08,19.22Zm-3.41-1.72c0,.26.1.35.34.34.4,0,.81,0,1.21,0a.68.68,0,0,0,0-1.36c-.22,0-.44,0-.66,0-.91,0-.91,0-.91.89A1.35,1.35,0,0,1,16.67,17.51Zm2.41,2.08a.77.77,0,0,0-.79-.86,12.78,12.78,0,0,0-1.39,0,.3.3,0,0,0-.22.2c0,.45,0,.9,0,1.36l.18,0H18.2C18.76,20.3,19.05,20.05,19.08,19.59ZM62,17.7a5.82,5.82,0,0,1-.06,1.63,2.31,2.31,0,0,1-2.46,2,2.39,2.39,0,0,1-2.57-2.35,5.51,5.51,0,0,1,.11-1.7,2.4,2.4,0,0,1,2.69-1.78A2.43,2.43,0,0,1,62,17.7Zm-.94.67a9.29,9.29,0,0,0-.18-1,1.41,1.41,0,0,0-1.39-1,1.44,1.44,0,0,0-1.43,1,3.07,3.07,0,0,0,0,1.95,1.43,1.43,0,0,0,1.44,1.08,1.39,1.39,0,0,0,1.41-1.11C61,19,61,18.68,61,18.36Zm13.48,2.44c0,.11.08.22.14.4a7.87,7.87,0,0,1-.87,0,.42.42,0,0,1-.27-.22c-.12-.27-.18-.56-.32-.82a.53.53,0,0,0-.37-.25c-.56,0-1.13,0-1.69,0-.13,0-.25.16-.37.26s0,.11-.06.17c-.31.89-.31.89-1.32.87a1.79,1.79,0,0,1,.05-.28c.62-1.69,1.24-3.37,1.86-5.06a.39.39,0,0,1,.43-.29c.79,0,.79,0,1.06.71ZM72.77,19,72,16.89H71.9L71.18,19Zm48.77-1.6A1.55,1.55,0,0,1,119.83,19c-.32,0-.64,0-1,0s-.42.08-.4.4c0,.5,0,1,0,1.51,0,.2-.07.28-.28.28-.85,0-.73.09-.73-.71s0-1.42,0-2.13,0-1.57,0-2.35c0-.32.08-.46.43-.45.68,0,1.37,0,2.06,0A1.54,1.54,0,0,1,121.54,17.4Zm-1-.1a.8.8,0,0,0-.59-.79,7.31,7.31,0,0,0-.76-.1v0a2.4,2.4,0,0,1-.29,0c-.3,0-.41.09-.39.39s0,.71,0,1.06c0,.1.12.27.19.27a7.72,7.72,0,0,0,1.24-.07A.78.78,0,0,0,120.51,17.3Z" transform="translate(0)" style="fill:url(#c)"/></svg>