<svg id="Layer_1" data-name="Layer 1" xmlns="http://www.w3.org/2000/svg" width="35.81" height="35.99" viewBox="0 0 35.81 35.99"><title>phone-24h-icon</title><path d="M19.31,0a17.08,17.08,0,0,0-7.09,1.56.71.71,0,0,0-.34.95.74.74,0,0,0,1,.33,15.21,15.21,0,0,1,6.52-1.39A15.1,15.1,0,0,1,34.63,16.3a15,15,0,0,1-1.26,5.9.65.65,0,0,0,.34.89.53.53,0,0,0,.29.06.73.73,0,0,0,.63-.45A15.79,15.79,0,0,0,36,16.25,16.49,16.49,0,0,0,19.31,0Z" transform="translate(-0.19 0)" style="fill:#fff"/><path d="M17.11,14.84h2.64a4.4,4.4,0,0,0,1-.14,1.88,1.88,0,0,0,.68-.36l.21-.16a1.83,1.83,0,0,0,.53-.88,3.6,3.6,0,0,0,.15-.9,3.58,3.58,0,0,0-.15-.9,1.33,1.33,0,0,0-.53-.82,1.88,1.88,0,0,0-.84-.5A2.65,2.65,0,0,0,19.74,10H15.33a.82.82,0,1,0,0,1.65h4.41a1.92,1.92,0,0,1,.57.1.57.57,0,0,1,.27.14.68.68,0,0,1,.11.12v.3a.7.7,0,0,1-.08.29.89.89,0,0,1-.17.26.58.58,0,0,1-.27.14,1.51,1.51,0,0,1-.5.1H17a2.09,2.09,0,0,0-2.28,2.12v1.69l.5.5h6.13a.82.82,0,1,0,0-1.65h-5v-.48C16.44,15.13,16.47,14.84,17.11,14.84Z" transform="translate(-0.19 0)" style="fill:#fff"/><path d="M31.67,13.71h-.75V10.32a.83.83,0,0,0-1.66,0v3.39H26a.51.51,0,0,1-.49-.47V10.32a.83.83,0,0,0-1.66,0v2.92A2.11,2.11,0,0,0,26,15.36h3.25v1.31a.83.83,0,0,0,1.66,0V15.36h.75a.82.82,0,1,0,0-1.65Z" transform="translate(-0.19 0)" style="fill:#fff"/><path d="M28.43,25.1,24.51,24a4.14,4.14,0,0,0-1.08-.14,4.72,4.72,0,0,0-3.24,1.28l-1,1A14.09,14.09,0,0,1,10,17l1-1a4.74,4.74,0,0,0,1.13-4.32l-1.08-4A5.12,5.12,0,0,0,6.21,4.13a4.19,4.19,0,0,0-3,1.22L1.06,7.47l-.31.4a5.34,5.34,0,0,0-.5,1.38l-.06.48A26.28,26.28,0,0,0,7.81,28.36,25.86,25.86,0,0,0,26.23,36h.64l.5-.14a5.33,5.33,0,0,0,.63-.25,2.74,2.74,0,0,0,.36-.2l.3-.25L30.8,33a4.53,4.53,0,0,0,1-4.3A5.08,5.08,0,0,0,28.43,25.1Zm1,6.45h0l-2.12,2.12-.12.06-.38.15-.36.1h-.06A23.92,23.92,0,0,1,2.22,9.77a3.43,3.43,0,0,1,.33-.87L4.63,6.76c1.43-1.42,4-.27,4.52,1.49l1.07,3.93a2.74,2.74,0,0,1-.62,2.39L8.18,16l-.41.41.15.56a16.05,16.05,0,0,0,11.29,11.3l.56.15.41-.41,1.42-1.42A2.71,2.71,0,0,1,24,26l3.92,1a3.17,3.17,0,0,1,2,2.23A2.51,2.51,0,0,1,29.39,31.55Z" transform="translate(-0.19 0)" style="fill:#fff"/></svg>