<?xml version="1.0" standalone="no"?>
<!DOCTYPE svg PUBLIC "-//W3C//DTD SVG 20010904//EN"
 "http://www.w3.org/TR/2001/REC-SVG-20010904/DTD/svg10.dtd">
<svg version="1.0" xmlns="http://www.w3.org/2000/svg"
 width="313.000000pt" height="313.000000pt" viewBox="0 0 313.000000 313.000000"
 preserveAspectRatio="xMidYMid meet">
<metadata>
Created by potrace 1.11, written by Peter Selinger 2001-2013
</metadata>
<g transform="translate(0.000000,313.000000) scale(0.100000,-0.100000)"
fill="#000000" stroke="none">
<path d="M1309 2863 c0 -16 -2 -37 -4 -48 -2 -11 -7 -48 -10 -83 -3 -35 -8
-78 -10 -96 -3 -17 -7 -69 -11 -117 -6 -80 -5 -87 17 -113 l24 -28 283 -2
c155 -1 287 1 292 4 13 8 16 23 25 124 4 43 8 86 10 95 6 35 19 169 19 210 0
33 -5 47 -23 62 -22 18 -44 19 -317 19 l-294 0 -1 -27z"/>
<path d="M2388 2452 l-46 -3 -8 -82 c-4 -45 -8 -89 -9 -97 -1 -8 -5 -46 -10
-85 -4 -38 -9 -83 -11 -100 -2 -16 -7 -74 -11 -127 l-6 -97 36 -36 c25 -25 44
-35 69 -36 158 -3 668 0 675 4 5 3 10 23 11 44 2 32 21 203 38 333 2 19 7 76
10 127 l6 92 -30 31 c-23 22 -40 30 -69 31 -137 3 -606 3 -645 1z"/>
<path d="M1405 2028 c-4 -40 -9 -80 -10 -89 -9 -47 -15 -162 -10 -178 3 -11
13 -23 23 -27 9 -4 108 -8 220 -9 237 -2 216 -14 227 123 3 45 10 103 14 130
10 62 5 94 -16 110 -12 9 -75 12 -229 12 l-212 0 -7 -72z"/>
<path d="M1335 1396 c-11 -31 -35 -299 -29 -321 3 -14 14 -30 24 -35 22 -12
430 -14 431 -2 0 4 2 14 3 22 2 8 6 44 10 80 4 36 10 88 13 115 13 111 9 132
-29 143 -46 14 -419 12 -423 -2z"/>
<path d="M71 1230 c-5 -3 -11 -42 -15 -87 -4 -46 -9 -91 -11 -101 -2 -11 -6
-55 -10 -98 -4 -43 -9 -82 -11 -85 -2 -3 -6 -53 -10 -110 l-6 -104 30 -35 30
-35 355 -1 c195 -1 359 1 365 5 5 3 13 40 16 81 7 78 24 233 31 285 3 17 7 75
11 130 6 100 6 100 -21 128 -15 15 -33 28 -39 28 -40 5 -708 4 -715 -1z"/>
<path d="M1265 755 c-8 -6 -16 -43 -19 -90 -4 -44 -8 -91 -11 -105 -2 -14 -6
-50 -9 -80 -3 -30 -8 -74 -12 -97 -8 -55 10 -107 42 -122 28 -13 580 -16 587
-3 3 4 7 39 11 77 4 39 8 81 11 95 5 35 14 122 20 210 5 65 3 78 -14 100 l-19
24 -287 1 c-182 0 -292 -3 -300 -10z"/>
</g>
</svg>
