<svg xmlns="http://www.w3.org/2000/svg" style="display:none"><symbol id="arrow-slider" viewBox="0 0 13.68 32"><title>arrow-slider</title><path d="M0 0v4.85L9.53 16 0 27.15V32l13.68-16L0 0z"/></symbol><symbol id="faq-icon" viewBox="0 0 30 30"><title>faq-icon</title><ellipse cx="15" cy="23.42" rx="1.67" ry="1.58" fill="#fff"/><path d="M15 6a4.88 4.88 0 0 0-5 4.75v.79h1.67v-.79A3.25 3.25 0 0 1 15 7.58a3.25 3.25 0 0 1 3.33 3.17A3.25 3.25 0 0 1 15 13.92h-.83v5.49h1.67v-4A4.83 4.83 0 0 0 20 10.75 4.88 4.88 0 0 0 15 6z" fill="#fff"/><path d="M15 0a15 15 0 1 0 15 15A15 15 0 0 0 15 0zm0 28a13 13 0 1 1 13-13 13 13 0 0 1-13 13z" fill="#fff"/></symbol><symbol id="fb-icon" viewBox="0 0 17.63 33.96"><title>fb-icon</title><path d="M11.45 34V18.47h5.2l.78-6h-6V8.58c0-1.75.49-2.94 3-2.94h3.2V.24A42.78 42.78 0 0 0 13 0C8.37 0 5.21 2.81 5.21 8v4.45H0v6h5.21V34z"/></symbol><symbol id="google-plus-icon" viewBox="0 0 31.82 20.25"><title>google-plus-icon</title><path d="M10.13 20.25A10.06 10.06 0 0 1 0 10.13 10.06 10.06 0 0 1 10.13 0a9.38 9.38 0 0 1 6.8 2.75l-2.75 2.6a5.57 5.57 0 0 0-4.05-1.59 6.3 6.3 0 0 0-6.22 6.36 6.3 6.3 0 0 0 6.22 6.36 5.55 5.55 0 0 0 5.79-4.34h-5.79V8.68h9.55a6.48 6.48 0 0 1 .14 1.74c0 5.78-3.91 9.83-9.69 9.83zm21.7-8.68h-2.9v2.89H26v-2.89h-2.86V8.68H26V5.79h2.89v2.89h2.89z"/></symbol><symbol id="multistory-icon" viewBox="0 0 48 48"><path d="M35.15 9l-22.67 3.48a1 1 0 0 0-.94.9v27.7a1.06 1.06 0 0 0 1.17.92h22.66a1.06 1.06 0 0 0 1.17-.92V9.92c0-.58-.67-1.01-1.39-.92zm-7.83 31.16h-6.57v-6h6.57zm6.88 0h-4.54v-7a1.06 1.06 0 0 0-1.17-.92h-8.91a1.06 1.06 0 0 0-1.17.92v7h-4.54v-26L34.2 11z"/><path d="M30.66 19.48a1.07 1.07 0 0 0 1.17-.92v-1.71a1.2 1.2 0 0 0-2.34 0v1.71a1.06 1.06 0 0 0 1.17.92zM26.25 19.48a1.07 1.07 0 0 0 1.17-.92v-1.71a1.2 1.2 0 0 0-2.34 0v1.71a1.06 1.06 0 0 0 1.17.92zM21.83 19.48a1.06 1.06 0 0 0 1.17-.92v-1.71a1.06 1.06 0 0 0-1.17-.92 1.06 1.06 0 0 0-1.17.92v1.71a1.06 1.06 0 0 0 1.17.92zM17.41 19.48a1.07 1.07 0 0 0 1.17-.92v-1.71a1.06 1.06 0 0 0-1.17-.92 1.06 1.06 0 0 0-1.17.92v1.71a1.06 1.06 0 0 0 1.17.92zM30.66 25a1.06 1.06 0 0 0 1.17-.92v-1.67a1.2 1.2 0 0 0-2.34 0v1.71a1.06 1.06 0 0 0 1.17.88zM26.25 25a1.07 1.07 0 0 0 1.17-.92v-1.67a1.2 1.2 0 0 0-2.34 0v1.71a1.06 1.06 0 0 0 1.17.88zM21.83 25a1.06 1.06 0 0 0 1.17-.88v-1.71a1.06 1.06 0 0 0-1.17-.92 1.06 1.06 0 0 0-1.17.92v1.71a1.06 1.06 0 0 0 1.17.88zM17.41 25a1.06 1.06 0 0 0 1.17-.92v-1.67a1.06 1.06 0 0 0-1.17-.92 1.06 1.06 0 0 0-1.17.92v1.71a1.06 1.06 0 0 0 1.17.88zM30.66 30.6a1.06 1.06 0 0 0 1.17-.92V28a1.2 1.2 0 0 0-2.34 0v1.71a1.06 1.06 0 0 0 1.17.89zM26.25 30.6a1.07 1.07 0 0 0 1.17-.92V28a1.2 1.2 0 0 0-2.34 0v1.71a1.06 1.06 0 0 0 1.17.89zM21.83 30.6a1.06 1.06 0 0 0 1.17-.92V28a1.06 1.06 0 0 0-1.17-.92 1.06 1.06 0 0 0-1.17.92v1.71a1.06 1.06 0 0 0 1.17.89zM17.41 30.6a1.06 1.06 0 0 0 1.17-.92V28a1.06 1.06 0 0 0-1.17-.92 1.06 1.06 0 0 0-1.17.92v1.71a1.06 1.06 0 0 0 1.17.89z"/></symbol><symbol id="office-icon" viewBox="0 0 48 48"><path d="M11.86 33.24h3.47v3.27h-3.47zM11.86 26.71h3.47v3.27h-3.47zM11.86 20.17h3.47v3.27h-3.47zM11.86 13.61h3.47v3.3h-3.47zM18.79 33.24h3.46v3.27h-3.46zM18.79 26.71h3.46v3.27h-3.46zM18.79 20.17h3.46v3.27h-3.46zM18.79 13.61h3.46v3.27h-3.46zM25.75 33.24h3.46v3.27h-3.46zM25.75 26.71h3.46v3.27h-3.46zM32.68 33.24h3.47v3.27h-3.47zM32.68 26.71h3.47v3.27h-3.47z"/><path d="M11.86 13.61h3.47v3.3h-3.47zM18.79 13.61h3.46v3.27h-3.46zM18.79 20.17h3.46v3.27h-3.46zM11.86 20.17h3.47v3.27h-3.47zM11.86 26.71h3.47v3.27h-3.47zM18.79 26.71h3.46v3.27h-3.46zM18.79 33.24h3.46v3.27h-3.46zM11.86 33.24h3.47v3.27h-3.47zM25.75 33.24h3.46v3.27h-3.46zM25.75 26.71h3.46v3.27h-3.46zM32.68 26.71h3.47v3.27h-3.47zM32.68 33.24h3.47v3.27h-3.47z"/><path d="M38.82 21.66h-11.4v-10.4a2.68 2.68 0 0 0-2.68-2.68H9.18a2.68 2.68 0 0 0-2.68 2.68v27.65a2.68 2.68 0 0 0 2.68 2.68h29.64a2.68 2.68 0 0 0 2.68-2.68V24.33a2.68 2.68 0 0 0-2.68-2.67zm.68 17.93h-31v-29h16.92v13.08H39.5z"/></symbol><symbol id="privat-icon" viewBox="0 0 48 48"><path d="M13 38.12c0 .52.59.89 1.26.89h1.19V32.1a1.49 1.49 0 0 1 1.49-1.49H24a1.49 1.49 0 0 1 1.49 1.49V39h8.32c.67 0 1.26-.45 1.26-.89V25.2H13zM11.52 22.22h24.89a1.46 1.46 0 0 1 .44.07h.75L24 10.41 10.48 22.3h.6a1.46 1.46 0 0 1 .44-.08z" fill="none"/><path d="M40.64 21.18L25 7.37a1.56 1.56 0 0 0-1.93 0L7.36 21.11a2.34 2.34 0 0 0-.67 2.53A2.42 2.42 0 0 0 9 25.2h1v12.92a4 4 0 0 0 4.16 3.79h2.6a1.49 1.49 0 0 0 1.49-1.49v-6.9h4.23v6.91A1.49 1.49 0 0 0 24 41.91h9.73A4 4 0 0 0 37.89 38V25.2H39a2.46 2.46 0 0 0 2.3-1.49 2.34 2.34 0 0 0-.66-2.53zM24 10.41L37.6 22.3h-.75a1.46 1.46 0 0 0-.44-.07H11.52a1.46 1.46 0 0 0-.44.07h-.6zm11.07 27.71c0 .45-.59.89-1.26.89h-8.32V32.1A1.49 1.49 0 0 0 24 30.62h-7.06a1.49 1.49 0 0 0-1.49 1.49V39h-1.18c-.67 0-1.26-.37-1.26-.89V25.2h22.06z"/></symbol><symbol id="select-down" viewBox="0 0 12 6.37"><title>select-down</title><path d="M.14 0h11.72a.44.44 0 0 1 .14.33.44.44 0 0 1-.14.34L6.33 6.23a.46.46 0 0 1-.67 0L.14.67A.44.44 0 0 1 0 .34.44.44 0 0 1 .14 0z"/></symbol><symbol id="user-icon" viewBox="0 0 28 29.94"><title>user-icon</title><path d="M18.39 16.84a9 9 0 1 0-8.79 0A13.49 13.49 0 0 0 0 29.94h2a11.66 11.66 0 0 1 12-11.77 11.66 11.66 0 0 1 12 11.77h2a13.49 13.49 0 0 0-9.61-13.1zM7 9a7 7 0 1 1 7 7 7 7 0 0 1-7-7z" fill="#fff"/></symbol></svg>