<svg id="Layer_1" data-name="Layer 1" xmlns="http://www.w3.org/2000/svg" width="30" height="30" viewBox="0 0 30 30"><title>faq-icon</title><ellipse cx="15" cy="23.42" rx="1.67" ry="1.58" style="fill:#fff"/><path d="M15,6a4.88,4.88,0,0,0-5,4.75v.79h1.67v-.79A3.25,3.25,0,0,1,15,7.58a3.25,3.25,0,0,1,3.33,3.17A3.25,3.25,0,0,1,15,13.92h-.83v5.49h1.67v-4A4.83,4.83,0,0,0,20,10.75,4.88,4.88,0,0,0,15,6Z" transform="translate(0 0)" style="fill:#fff"/><path d="M15,0A15,15,0,1,0,30,15,15,15,0,0,0,15,0Zm0,28A13,13,0,1,1,28,15,13,13,0,0,1,15,28Z" transform="translate(0 0)" style="fill:#fff"/></svg>