<svg xmlns="http://www.w3.org/2000/svg" width="30" height="28" viewBox="0 0 30 28"><path d="M26.26.25s-9.63,4.08-14.55,6.3C8.5,8,5.21,9.47,2,10.88-.72,11.91-.58,15,2,16c.69.35,3,1.31,4.57,2l.93.38c.43,1.46,1.55,5,1.83,5.88.56,1.57,2,3.19,3.65,1.86l3.5-3.08,4.36,4.12c1.82,1.62,4.62.74,4.9-1.47.47-2.06,4.22-22.21,4.22-22.21C30.47.85,28.5-.62,26.26.25Zm-3.8,24.52-6.17-6-4.21,3.67,1.09-4.84.71-.73c2.22-2.31,8.27-8.58,8.27-9a.31.31,0,0,0-.28-.29c-.28,0-12.06,7.2-13.18,7.94-.85-.37-1.73-.74-2.61-1.1l-2.59-1.1L26.75,3.23C26.43,4.89,22.66,23.74,22.46,24.77Z"/></svg>