<svg xmlns="http://www.w3.org/2000/svg" width="88" height="70.03" viewBox="0 0 88 70.03"><title>home-icon</title><path d="M75.44,40.34v26.2A3.54,3.54,0,0,1,71.95,70H51v-21H37V70h-21a3.54,3.54,0,0,1-3.49-3.49V40.34a.75.75,0,0,1,0-.16.75.75,0,0,0,0-.16L44,14.14,75.39,40A.76.76,0,0,1,75.44,40.34Zm12.17-3.77-3.38,4a1.86,1.86,0,0,1-1.15.6h-.16a1.68,1.68,0,0,1-1.15-.38L44,9.33,6.23,40.83a2,2,0,0,1-1.31.38,1.86,1.86,0,0,1-1.15-.6l-3.38-4A1.77,1.77,0,0,1,0,35.29a1.58,1.58,0,0,1,.6-1.17L39.85,1.42a6.77,6.77,0,0,1,8.3,0L61.47,12.55V1.91A1.68,1.68,0,0,1,63.21.16H73.69a1.68,1.68,0,0,1,1.75,1.75V24.18l12,9.93a1.58,1.58,0,0,1,.6,1.17A1.77,1.77,0,0,1,87.61,36.57Z"/></svg>