<svg xmlns="http://www.w3.org/2000/svg" width="71.63" height="64.87" viewBox="0 0 71.63 64.87"><path d="M29,21.62A9.58,9.58,0,0,1,35.81,25a9.58,9.58,0,0,1,6.78-3.33c4.09,0,6.78,3,6.78,7.63s-5.59,9.08-8,10.33a19.55,19.55,0,0,0-5.6,4.54,19.55,19.55,0,0,0-5.6-4.54c-2.37-1.26-8-5.71-8-10.33S24.94,21.62,29,21.62Z"/><path d="M69.56,0A2.06,2.06,0,0,0,67.5,2.06V6.75H59.13V2.06a2.06,2.06,0,0,0-4.12,0V9.63H16.63V2.06a2.06,2.06,0,0,0-4.12,0V6.75H4.13V2.06A2.06,2.06,0,0,0,0,2.06V62.81a2.06,2.06,0,0,0,4.13,0V58.62H12.5v4.19a2.06,2.06,0,0,0,4.13,0V55H55v7.81a2.06,2.06,0,1,0,4.13,0V58.62H67.5v4.19a2.06,2.06,0,1,0,4.13,0V2.06A2.06,2.06,0,0,0,69.56,0ZM13,55.12H3.88V48H13Zm0-12.75H3.88V35.25H13Zm0-12.75H3.88V22.5H13Zm0-12.75H3.88V9.75H13ZM55,48.75H16.63V15.87H55Zm13,6.38H58.88V48H68Zm0-12.75H58.88V35.25H68Zm0-12.75H58.88V22.5H68Zm0-12.75H58.88V9.75H68Z"/></svg>