<svg xmlns="http://www.w3.org/2000/svg" width="48" height="48" viewBox="0 0 48 48"><path d="M35.15,9,12.48,12.48a1,1,0,0,0-.94.9V41.08a1.06,1.06,0,0,0,1.17.92H35.37a1.06,1.06,0,0,0,1.17-.92V9.92C36.54,9.34,35.87,8.91,35.15,9ZM27.32,40.16H20.75v-6h6.57Zm6.88,0H29.66v-7a1.06,1.06,0,0,0-1.17-.92H19.58a1.06,1.06,0,0,0-1.17.92v7H13.87v-26L34.2,11Z"/><path d="M30.66,19.48a1.07,1.07,0,0,0,1.17-.92V16.85a1.2,1.2,0,0,0-2.34,0v1.71A1.06,1.06,0,0,0,30.66,19.48Z"/><path d="M26.25,19.48a1.07,1.07,0,0,0,1.17-.92V16.85a1.2,1.2,0,0,0-2.34,0v1.71A1.06,1.06,0,0,0,26.25,19.48Z"/><path d="M21.83,19.48A1.06,1.06,0,0,0,23,18.56V16.85a1.06,1.06,0,0,0-1.17-.92,1.06,1.06,0,0,0-1.17.92v1.71A1.06,1.06,0,0,0,21.83,19.48Z"/><path d="M17.41,19.48a1.07,1.07,0,0,0,1.17-.92V16.85a1.06,1.06,0,0,0-1.17-.92,1.06,1.06,0,0,0-1.17.92v1.71A1.06,1.06,0,0,0,17.41,19.48Z"/><path d="M30.66,25a1.06,1.06,0,0,0,1.17-.92V22.41a1.2,1.2,0,0,0-2.34,0v1.71A1.06,1.06,0,0,0,30.66,25Z"/><path d="M26.25,25a1.07,1.07,0,0,0,1.17-.92V22.41a1.2,1.2,0,0,0-2.34,0v1.71A1.06,1.06,0,0,0,26.25,25Z"/><path d="M21.83,25A1.06,1.06,0,0,0,23,24.12V22.41a1.06,1.06,0,0,0-1.17-.92,1.06,1.06,0,0,0-1.17.92v1.71A1.06,1.06,0,0,0,21.83,25Z"/><path d="M17.41,25a1.06,1.06,0,0,0,1.17-.92V22.41a1.06,1.06,0,0,0-1.17-.92,1.06,1.06,0,0,0-1.17.92v1.71A1.06,1.06,0,0,0,17.41,25Z"/><path d="M30.66,30.6a1.06,1.06,0,0,0,1.17-.92V28a1.2,1.2,0,0,0-2.34,0v1.71A1.06,1.06,0,0,0,30.66,30.6Z"/><path d="M26.25,30.6a1.07,1.07,0,0,0,1.17-.92V28a1.2,1.2,0,0,0-2.34,0v1.71A1.06,1.06,0,0,0,26.25,30.6Z"/><path d="M21.83,30.6A1.06,1.06,0,0,0,23,29.68V28a1.06,1.06,0,0,0-1.17-.92,1.06,1.06,0,0,0-1.17.92v1.71A1.06,1.06,0,0,0,21.83,30.6Z"/><path d="M17.41,30.6a1.06,1.06,0,0,0,1.17-.92V28a1.06,1.06,0,0,0-1.17-.92,1.06,1.06,0,0,0-1.17.92v1.71A1.06,1.06,0,0,0,17.41,30.6Z"/></svg>
