<svg xmlns="http://www.w3.org/2000/svg" width="48" height="48" viewBox="0 0 48 48"><rect x="11.86" y="33.24" width="3.47" height="3.27"/><rect x="11.86" y="26.71" width="3.47" height="3.27"/><rect x="11.86" y="20.17" width="3.47" height="3.27"/><rect x="11.86" y="13.61" width="3.47" height="3.3"/><rect x="18.79" y="33.24" width="3.46" height="3.27"/><rect x="18.79" y="26.71" width="3.46" height="3.27"/><rect x="18.79" y="20.17" width="3.46" height="3.27"/><rect x="18.79" y="13.61" width="3.46" height="3.27"/><rect x="25.75" y="33.24" width="3.46" height="3.27"/><rect x="25.75" y="26.71" width="3.46" height="3.27"/><rect x="32.68" y="33.24" width="3.47" height="3.27"/><rect x="32.68" y="26.71" width="3.47" height="3.27"/><rect x="11.86" y="13.61" width="3.47" height="3.3"/><rect x="18.79" y="13.61" width="3.46" height="3.27"/><rect x="18.79" y="20.17" width="3.46" height="3.27"/><rect x="11.86" y="20.17" width="3.47" height="3.27"/><rect x="11.86" y="26.71" width="3.47" height="3.27"/><rect x="18.79" y="26.71" width="3.46" height="3.27"/><rect x="18.79" y="33.24" width="3.46" height="3.27"/><rect x="11.86" y="33.24" width="3.47" height="3.27"/><rect x="25.75" y="33.24" width="3.46" height="3.27"/><rect x="25.75" y="26.71" width="3.46" height="3.27"/><rect x="32.68" y="26.71" width="3.47" height="3.27"/><rect x="32.68" y="33.24" width="3.47" height="3.27"/><path d="M38.82,21.66H27.42V11.26a2.68,2.68,0,0,0-2.68-2.68H9.18A2.68,2.68,0,0,0,6.5,11.26V38.91a2.68,2.68,0,0,0,2.68,2.68H38.82a2.68,2.68,0,0,0,2.68-2.68V24.33A2.68,2.68,0,0,0,38.82,21.66Zm.68,17.93H8.5v-29H25.42V23.67H39.5Z"/></svg>
