<svg xmlns="http://www.w3.org/2000/svg" width="28" height="24" viewBox="0 0 28 24"><title>phone-24h-icon</title><polygon points="22.39 6.48 25.05 6.48 25.05 2.37 24.92 2.58 22.39 6.48" fill="none"/><path d="M14.15,1.81a1.65,1.65,0,0,1,1.27-.49,1.42,1.42,0,0,1,1.09.43,1.59,1.59,0,0,1,.41,1.14A2.1,2.1,0,0,1,16.61,4a8.12,8.12,0,0,1-1,1.32L12.2,8.87V10H19V8.69H14.31L16.78,6.1a8.76,8.76,0,0,0,1.4-1.84,3.31,3.31,0,0,0,.43-1.55,2.46,2.46,0,0,0-.86-2A3.47,3.47,0,0,0,15.43,0a3.94,3.94,0,0,0-1.81.4,2.89,2.89,0,0,0-1.2,1.12A3.16,3.16,0,0,0,12,3.14h1.69A1.89,1.89,0,0,1,14.15,1.81Z"/><path d="M26.74,6.48V.14H25L20.62,6.8l0,1H25V10h1.69V7.8H28V6.48ZM25,6.48H22.39l2.53-3.9L25,2.36Z"/><path d="M23.77,18.77a3.37,3.37,0,0,0-2.06-1.95L18.56,16a3.09,3.09,0,0,0-2.7.71l-1.14,1.14A12.11,12.11,0,0,1,6.2,9.28L7.34,8.14A3.08,3.08,0,0,0,8,5.45L7.18,2.29a3.37,3.37,0,0,0-2-2.06L4.87.11A2.86,2.86,0,0,0,2.21.74L.5,2.45A3.18,3.18,0,0,0,0,3.62,20.15,20.15,0,0,0,20.33,24a3.18,3.18,0,0,0,1.22-.5l1.71-1.71a2.86,2.86,0,0,0,.63-2.67Z"/></svg>