<svg xmlns="http://www.w3.org/2000/svg" width="25.1" height="24" viewBox="0 0 25.1 24"><path fill="none" d="M22.4 6.5h2.7V2.4l-.2.2-2.5 3.9z"/><path d="M13.7 1.5a1.4 1.4 0 0 1 1-.4 1.2 1.2 0 0 1 1 .4 1.3 1.3 0 0 1 .3 1 1.7 1.7 0 0 1-.3.8 6.7 6.7 0 0 1-.8 1.1l-2.8 3v1h5.6V7.1h-3.9l2-2.1A7.3 7.3 0 0 0 17 3.5a2.8 2.8 0 0 0 .4-1.3 2 2 0 0 0-.7-1.6 2.9 2.9 0 0 0-2-.6 3.3 3.3 0 0 0-1.5.3 2.4 2.4 0 0 0-1 1 2.6 2.6 0 0 0-.3 1.3h1.4a1.6 1.6 0 0 1 .4-1zM23 5.3V0h-1.5L18 5.5v.9h3.6v1.8H23V6.4H24V5.3zm-1.4 0h-2.3L21.4 2l.1-.2z"/><path d="M23.8 18.8a3.4 3.4 0 0 0-2-2l-3.2-.8a3 3 0 0 0-2.7.7L14.7 18a12.1 12.1 0 0 1-8.5-8.6L7.3 8A3 3 0 0 0 8 5.5l-.8-3.2a3.4 3.4 0 0 0-2-2L4.9 0a2.9 2.9 0 0 0-2.7.6L.5 2.5A3.2 3.2 0 0 0 0 3.6 20.1 20.1 0 0 0 20 24h.3a3.2 3.2 0 0 0 1.3-.5l1.7-1.7a2.9 2.9 0 0 0 .6-2.7z"/></svg>