<svg xmlns="http://www.w3.org/2000/svg" width="48" height="48" viewBox="0 0 48 48"><path d="M13,38.12c0,.52.59.89,1.26.89h1.19V32.1a1.49,1.49,0,0,1,1.49-1.49H24a1.49,1.49,0,0,1,1.49,1.49V39h8.32c.67,0,1.26-.45,1.26-.89V25.2H13Z" style="fill:none"/><path d="M11.52,22.22H36.41a1.46,1.46,0,0,1,.44.07h.75L24,10.41,10.48,22.3h.6A1.46,1.46,0,0,1,11.52,22.22Z" style="fill:none"/><path d="M40.64,21.18,25,7.37a1.56,1.56,0,0,0-1.93,0L7.36,21.11a2.34,2.34,0,0,0-.67,2.53A2.42,2.42,0,0,0,9,25.2h1V38.12a4,4,0,0,0,4.16,3.79h2.6a1.49,1.49,0,0,0,1.49-1.49V33.52h4.23v6.91A1.49,1.49,0,0,0,24,41.91h9.73A4,4,0,0,0,37.89,38V25.2H39a2.46,2.46,0,0,0,2.3-1.49A2.34,2.34,0,0,0,40.64,21.18ZM24,10.41,37.6,22.3h-.75a1.46,1.46,0,0,0-.44-.07H11.52a1.46,1.46,0,0,0-.44.07h-.6ZM35.07,38.12c0,.45-.59.89-1.26.89H25.49V32.1A1.49,1.49,0,0,0,24,30.62H16.94a1.49,1.49,0,0,0-1.49,1.49V39H14.27c-.67,0-1.26-.37-1.26-.89V25.2H35.07Z"/></svg>
