<svg width="32" height="32" viewBox="0 0 32 32" fill="none" xmlns="http://www.w3.org/2000/svg">
<path d="M28.5 30C28.5 30.8284 29.1716 31.5 30 31.5C30.8284 31.5 31.5 30.8284 31.5 30H28.5ZM27.1122 24.1875L26.7485 25.6427L26.7486 25.6427L27.1122 24.1875ZM20.7918 22.608L21.1555 21.1528L21.1549 21.1526L20.7918 22.608ZM19.8284 21.3607L21.3283 21.3769L21.3283 21.3765L19.8284 21.3607ZM19.8398 20.2725L21.3397 20.2883L21.3397 20.2876L19.8398 20.2725ZM21.0922 17.2142L22.2002 18.2253L22.2003 18.2252L21.0922 17.2142ZM16 2L16.0276 0.500253C16.0092 0.499916 15.9908 0.499916 15.9724 0.500253L16 2ZM10.9078 17.2129L9.79972 18.2239L9.7998 18.224L10.9078 17.2129ZM12.1602 20.2713L10.6603 20.2863L10.6603 20.2871L12.1602 20.2713ZM12.1716 21.3595L10.6717 21.3752L10.6717 21.3757L12.1716 21.3595ZM11.2082 22.6067L10.8451 21.1513L10.8445 21.1515L11.2082 22.6067ZM4.88782 24.1862L4.52415 22.7309L4.52324 22.7312L4.88782 24.1862ZM0.5 30C0.5 30.8284 1.17157 31.5 2 31.5C2.82843 31.5 3.5 30.8284 3.5 30H0.5ZM31.5 30V27.886H28.5V30H31.5ZM31.5 27.886C31.5 25.4476 29.8401 23.3228 27.4757 22.7322L26.7486 25.6427C27.7773 25.8997 28.5 26.8244 28.5 27.886H31.5ZM27.4758 22.7322L21.1555 21.1528L20.4282 24.0632L26.7485 25.6427L27.4758 22.7322ZM21.1549 21.1526C21.2574 21.1782 21.3294 21.2716 21.3283 21.3769L18.3285 21.3445C18.3146 22.6284 19.1834 23.7527 20.4288 24.0634L21.1549 21.1526ZM21.3283 21.3765L21.3397 20.2883L18.3399 20.2568L18.3284 21.3449L21.3283 21.3765ZM21.3397 20.2876C21.3471 19.5572 21.6488 18.8296 22.2002 18.2253L19.9842 16.2031C18.9956 17.2864 18.3555 18.7046 18.3399 20.2575L21.3397 20.2876ZM22.2003 18.2252C23.5988 16.6923 24.3544 15.2474 24.7353 13.7872C25.1045 12.3714 25.0969 11.0123 25.0969 9.79673H22.0969C22.0969 11.0681 22.0893 12.0451 21.8324 13.03C21.5871 13.9704 21.0903 14.9908 19.9841 16.2032L22.2003 18.2252ZM25.0969 9.79673C25.0969 4.68825 21.0765 0.593019 16.0276 0.500253L15.9724 3.49975C19.3744 3.56225 22.0969 6.31175 22.0969 9.79673H25.0969ZM15.9724 0.500253C10.9237 0.593017 6.90309 4.68809 6.90309 9.79545H9.90309C9.90309 6.31191 12.6254 3.56226 16.0276 3.49975L15.9724 0.500253ZM6.90309 9.79545C6.90309 11.011 6.89546 12.3701 7.26474 13.7859C7.64564 15.2462 8.40118 16.6911 9.79972 18.2239L12.0159 16.2019C10.9097 14.9895 10.4129 13.9691 10.1676 13.0287C9.91072 12.0438 9.90309 11.0668 9.90309 9.79545H6.90309ZM9.7998 18.224C10.3512 18.8283 10.6529 19.5559 10.6603 20.2863L13.6601 20.2562C13.6445 18.7033 13.0044 17.2852 12.0158 16.2018L9.7998 18.224ZM10.6603 20.2871L10.6717 21.3752L13.6716 21.3437L13.6601 20.2555L10.6603 20.2871ZM10.6717 21.3757C10.6706 21.2699 10.7418 21.1771 10.8451 21.1513L11.5712 24.0621C12.8175 23.7513 13.6854 22.625 13.6715 21.3432L10.6717 21.3757ZM10.8445 21.1515L4.52415 22.7309L5.25148 25.6414L11.5718 24.062L10.8445 21.1515ZM4.52324 22.7312C2.15994 23.3233 0.5 25.4474 0.5 27.886H3.5C3.5 26.8246 4.2226 25.8992 5.25239 25.6412L4.52324 22.7312ZM0.5 27.886V30H3.5V27.886H0.5Z"/>
</svg>
