<svg xmlns="http://www.w3.org/2000/svg" width="75.5" height="94.56" viewBox="0 0 75.5 94.56"><path d="M75.38,38.35H57.08A24.3,24.3,0,0,0,42.5,30.24l9.59-18.7a5.56,5.56,0,1,0-1.64-.76L40.64,30a37.92,37.92,0,0,0-4.6-.27,26.7,26.7,0,0,0-3,.18l-7.09-12.2a4,4,0,1,0-1.65.77l6.84,11.72c-7.2,1.42-10.52,5.77-11.84,8.2H-.12V86.69H13.7L7.52,95.17H13l10.22-8.48H52.67l10.22,8.48h5.44l-6.18-8.48H75.38ZM59.85,64.44A14.25,14.25,0,0,1,45.6,78.69H22.43A14.25,14.25,0,0,1,8.18,64.44V60.1A14.25,14.25,0,0,1,22.43,45.85H45.6A14.25,14.25,0,0,1,59.85,60.1Z" transform="translate(0.13 -0.6)"/><polygon points="44.13 52.9 40.26 67.21 36.42 52.9 35.27 52.9 32.06 52.9 18.72 52.9 18.72 56.02 24.97 56.02 24.97 72.77 28.94 72.77 28.94 56.02 33.03 56.02 38.26 72.77 42.29 72.77 48.5 52.9 44.13 52.9"/></svg>